SplineFontDB: 3.2
FontName: nasin-palisa-Regular
FullName: nasin-palisa Regular
FamilyName: nasin-palisa
Weight: Book
Copyright: (C) Copyright aks Ejan, 2025
Version: 1.1.0
ItalicAngle: 0
UnderlinePosition: -100
UnderlineWidth: 50
Ascent: 800
Descent: 200
InvalidEm: 0
sfntRevision: 0x00010000
LayerCount: 2
Layer: 0 1 "Back" 1
Layer: 1 1 "Fore" 0
XUID: [1021 712 2127891865 8498]
StyleMap: 0x0000
FSType: 0
OS2Version: 4
OS2_WeightWidthSlopeOnly: 0
OS2_UseTypoMetrics: 1
CreationTime: 1744345721
ModificationTime: 1744655555
PfmFamily: 17
TTFWeight: 400
TTFWidth: 5
LineGap: 0
VLineGap: 0
Panose: 2 0 5 3 0 0 0 0 0 0
OS2TypoAscent: 1200
OS2TypoAOffset: 0
OS2TypoDescent: -300
OS2TypoDOffset: 0
OS2TypoLinegap: 0
OS2WinAscent: 938
OS2WinAOffset: 0
OS2WinDescent: 363
OS2WinDOffset: 0
HheadAscent: 1200
HheadAOffset: 0
HheadDescent: -300
HheadDOffset: 0
OS2SubXSize: 650
OS2SubYSize: 700
OS2SubXOff: 0
OS2SubYOff: 140
OS2SupXSize: 650
OS2SupYSize: 700
OS2SupXOff: 0
OS2SupYOff: 480
OS2StrikeYSize: 49
OS2StrikeYPos: 258
OS2CapHeight: 580
OS2XHeight: 592
OS2Vendor: 'PfEd'
OS2CodePages: 00000001.00000000
OS2UnicodeRanges: 80000001.0a000000.04000000.00000000
Lookup: 4 0 1 "'liga' Standard Ligatures in Latin lookup 0" { "'liga' Standard Ligatures in Latin lookup 0 subtable"  } ['liga' ('DFLT' <'dflt' > 'latn' <'dflt' > ) ]
Lookup: 1 0 0 "'liga' Standard Ligatures in Latin lookup 1" { "'liga' Standard Ligatures in Latin lookup 1 subtable"  } ['liga' ('DFLT' <'dflt' > 'latn' <'dflt' > ) ]
Lookup: 2 0 0 "Multiple Substitution lookup 2" { "Multiple Substitution lookup 2 subtable"  } []
Lookup: 6 0 0 "'calt' Contextual Alternates in Latin lookup 3" { "'calt' Contextual Alternates in Latin lookup 3 contextual 0"  "'calt' Contextual Alternates in Latin lookup 3 contextual 1"  } ['calt' ('DFLT' <'dflt' > 'latn' <'dflt' > ) ]
Lookup: 258 0 0 "'kern' Horizontal Kerning in Latin lookup 1" { "'kern' Horizontal Kerning in Latin lookup 1-1" [120,85,2] } ['kern' ('DFLT' <'dflt' > 'latn' <'dflt' > ) ]

StartChar: .notdef
Encoding: 256 -1 0
Width: 364
GlyphClass: 1
Flags: W
LayerCount: 2
Fore
SplineSet
33 0 m 1,0,-1
 33 666 l 1,1,-1
 298 666 l 1,2,-1
 298 0 l 1,3,-1
 33 0 l 1,0,-1
66 33 m 1,4,-1
 265 33 l 1,5,-1
 265 633 l 1,6,-1
 66 633 l 1,7,-1
 66 33 l 1,4,-1
EndSplineSet
Validated: 1
EndChar

StartChar: period
Encoding: 267 46 11
Width: 500
GlyphClass: 1
Flags: W
LayerCount: 2
Fore
SplineSet
245.107421875 409 m 4,0,1
 258.107421875 418 258.107421875 418 284.107421875 417 c 4,2,3
 301.107421875 415 301.107421875 415 306.607421875 412.5 c 132,-1,4
 312.107421875 410 312.107421875 410 317.107421875 399 c 4,5,6
 319.107421875 396 319.107421875 396 323.107421875 387 c 132,-1,7
 327.107421875 378 327.107421875 378 329.107421875 375 c 4,8,9
 336.107421875 360 336.107421875 360 332.607421875 333 c 132,-1,10
 329.107421875 306 329.107421875 306 318.107421875 281 c 4,11,12
 302.107421875 245 302.107421875 245 268.107421875 214 c 132,-1,13
 234.107421875 183 234.107421875 183 212.107421875 183 c 4,14,15
 200.107421875 183 200.107421875 183 188.607421875 193.5 c 132,-1,16
 177.107421875 204 177.107421875 204 177.107421875 216 c 4,17,18
 177.107421875 225 177.107421875 225 172.107421875 227 c 4,19,20
 162.107421875 234 162.107421875 234 169.107421875 281 c 132,-1,21
 176.107421875 328 176.107421875 328 190.107421875 350 c 4,22,23
 216.107421875 389 216.107421875 389 245.107421875 409 c 4,0,1
EndSplineSet
MultipleSubs2: "Multiple Substitution lookup 2 subtable" period cartoucheMiddleTok
Substitution2: "'liga' Standard Ligatures in Latin lookup 1 subtable" middotTok
EndChar

StartChar: colon
Encoding: 278 58 22
Width: 450
GlyphClass: 1
Flags: W
LayerCount: 2
Fore
SplineSet
145 164 m 2,0,1
 194 216 194 216 206 196 c 0,2,3
 211 189 211 189 211.5 136 c 128,-1,4
 212 83 212 83 208 66 c 0,5,6
 203 47 203 47 170 12.5 c 128,-1,7
 137 -22 137 -22 123 -22 c 2,8,-1
 109 -22 l 1,9,-1
 109 53 l 1,10,-1
 109 128 l 1,11,-1
 145 164 l 2,0,1
174 606 m 0,12,13
 195 623 195 623 203 622 c 0,14,15
 220.361328125 619.95703125 220.361328125 619.95703125 216 524 c 2,16,-1
 213 458 l 1,17,-1
 178 421 l 2,18,19
 140 381 140 381 125.5 385.5 c 0,20,21
 110 390 110 390 109 444 c 0,22,23
 108 507 108 507 111 525 c 128,-1,24
 114 543 114 543 131 564 c 0,25,26
 150 588 150 588 174 606 c 0,12,13
EndSplineSet
MultipleSubs2: "Multiple Substitution lookup 2 subtable" colon cartoucheMiddleTok
Substitution2: "'liga' Standard Ligatures in Latin lookup 1 subtable" colonTok
EndChar

StartChar: A
Encoding: 282 65 26
Width: 538
VWidth: 980
GlyphClass: 1
Flags: W
LayerCount: 2
Fore
SplineSet
288 356.224609375 m 4,0,1
 269.5 394.150390625 269.5 394.150390625 263.025390625 371.950195312 c 4,2,3
 260.25 362.700195312 260.25 362.700195312 240.825195312 325.700195312 c 4,4,5
 222.325195312 287.775390625 222.325195312 287.775390625 222.325195312 281.299804688 c 260,6,7
 222.325195312 274.825195312 222.325195312 274.825195312 267.650390625 274.825195312 c 260,8,9
 312.975585938 274.825195312 312.975585938 274.825195312 315.75 278.525390625 c 4,10,11
 317.600585938 281.299804688 317.600585938 281.299804688 309.275390625 301.650390625 c 4,12,13
 300.025390625 319.224609375 300.025390625 319.224609375 299.100585938 327.549804688 c 4,14,15
 299.100585938 334.950195312 299.100585938 334.950195312 288 356.224609375 c 4,0,1
241.75 526.424804688 m 4,16,17
 249.150390625 529.200195312 249.150390625 529.200195312 285.225585938 529.200195312 c 132,-1,18
 321.299804688 529.200195312 321.299804688 529.200195312 326.850585938 525.5 c 4,19,20
 332.400390625 522.724609375 332.400390625 522.724609375 342.575195312 500.525390625 c 6,21,22
 342.575195312 500.525390625 342.575195312 500.525390625 369.400390625 447.799804688 c 4,23,24
 385.125 417.275390625 385.125 417.275390625 385.125 407.099609375 c 4,25,26
 386.049804688 396 386.049804688 396 395.299804688 381.200195312 c 4,27,28
 405.475585938 365.474609375 405.475585938 365.474609375 405.475585938 358.075195312 c 4,29,30
 405.475585938 349.75 405.475585938 349.75 412.875 335.875 c 4,31,32
 426.75 309.049804688 426.75 309.049804688 438.775390625 278.525390625 c 4,33,34
 448.950195312 252.625 448.950195312 252.625 448.950195312 244.299804688 c 260,35,36
 448.950195312 235.974609375 448.950195312 235.974609375 452.650390625 235.974609375 c 260,37,38
 456.350585938 235.974609375 456.350585938 235.974609375 464.674804688 211 c 4,39,40
 476.700195312 176.775390625 476.700195312 176.775390625 491.5 142.549804688 c 4,41,42
 501.674804688 121.275390625 501.674804688 121.275390625 505.375 98.150390625 c 4,43,44
 506.299804688 84.275390625 506.299804688 84.275390625 503.987304688 76.875 c 132,-1,45
 501.674804688 69.474609375 501.674804688 69.474609375 489.650390625 53.75 c 4,46,47
 476.700195312 36.1748046875 476.700195312 36.1748046875 459.125 20.4501953125 c 132,-1,48
 441.549804688 4.724609375 441.549804688 4.724609375 434.150390625 4.724609375 c 4,49,50
 430.450195312 4.724609375 430.450195312 4.724609375 412.875 40.337890625 c 132,-1,51
 395.299804688 75.9501953125 395.299804688 75.9501953125 395.299804688 83.349609375 c 4,52,53
 395.299804688 89.8251953125 395.299804688 89.8251953125 383.275390625 112.487304688 c 132,-1,54
 371.25 135.150390625 371.25 135.150390625 371.25 146.25 c 4,55,56
 371.25 155.5 371.25 155.5 362 172.150390625 c 6,57,-1
 352.75 186.950195312 l 5,58,-1
 265.799804688 186.950195312 l 5,59,-1
 178.850585938 186.950195312 l 5,60,-1
 166.825195312 171.224609375 l 6,61,62
 154.799804688 155.5 154.799804688 155.5 154.799804688 151.799804688 c 4,63,64
 154.799804688 149.025390625 154.799804688 149.025390625 147.400390625 131.450195312 c 132,-1,65
 140 113.875 140 113.875 135.375 105.549804688 c 4,66,67
 131.674804688 100 131.674804688 100 122.424804688 81.5 c 4,68,69
 112.25 62.0751953125 112.25 62.0751953125 82.1875 33.400390625 c 132,-1,70
 52.125 4.724609375 52.125 4.724609375 41.025390625 4.724609375 c 4,71,72
 29 4.724609375 29 4.724609375 29 13.0498046875 c 4,73,74
 29 23.224609375 29 23.224609375 65.0751953125 94.4501953125 c 4,75,76
 164.049804688 295.174804688 164.049804688 295.174804688 164.049804688 302.575195312 c 4,77,78
 164.049804688 308.125 164.049804688 308.125 169.137695312 308.125 c 132,-1,79
 174.225585938 308.125 174.225585938 308.125 174.225585938 317.375 c 4,80,81
 174.225585938 325.700195312 174.225585938 325.700195312 181.163085938 332.174804688 c 132,-1,82
 188.100585938 338.650390625 188.100585938 338.650390625 188.100585938 344.200195312 c 4,83,84
 188.100585938 350.674804688 188.100585938 350.674804688 210.299804688 393.224609375 c 4,85,86
 226.025390625 423.75 226.025390625 423.75 227.875 430.224609375 c 132,-1,87
 229.725585938 436.700195312 229.725585938 436.700195312 221.400390625 439.474609375 c 4,88,89
 211.225585938 443.174804688 211.225585938 443.174804688 202.900390625 440.400390625 c 4,90,91
 193.650390625 437.625 193.650390625 437.625 181.625 443.174804688 c 4,92,93
 172.375 446.875 172.375 446.875 171.450195312 449.1875 c 132,-1,94
 170.525390625 451.5 170.525390625 451.5 175.150390625 458.900390625 c 4,95,96
 183.475585938 470.924804688 183.475585938 470.924804688 209.375 497.287109375 c 132,-1,97
 235.275390625 523.650390625 235.275390625 523.650390625 241.75 526.424804688 c 4,16,17
EndSplineSet
MultipleSubs2: "Multiple Substitution lookup 2 subtable" A cartoucheMiddleTok
EndChar

StartChar: B
Encoding: 283 66 27
Width: 519
VWidth: 980
GlyphClass: 1
Flags: W
LayerCount: 2
Fore
SplineSet
318.184570312 192.58203125 m 260,0,1
 308.643554688 198.306640625 308.643554688 198.306640625 291.946289062 198.784179688 c 132,-1,2
 275.25 199.260742188 275.25 199.260742188 231.361328125 197.352539062 c 4,3,4
 190.3359375 194.490234375 190.3359375 194.490234375 186.518554688 189.719726562 c 4,5,6
 181.749023438 184.948242188 181.749023438 184.948242188 178.885742188 146.30859375 c 132,-1,7
 176.0234375 107.666992188 176.0234375 107.666992188 179.83984375 104.8046875 c 4,8,9
 186.518554688 100.98828125 186.518554688 100.98828125 265.708984375 102.418945312 c 132,-1,10
 344.899414062 103.850585938 344.899414062 103.850585938 363.981445312 108.62109375 c 260,11,12
 383.063476562 113.390625 383.063476562 113.390625 387.356445312 116.73046875 c 132,-1,13
 391.650390625 120.0703125 391.650390625 120.0703125 392.603515625 130.564453125 c 4,14,15
 394.51171875 140.106445312 394.51171875 140.106445312 390.696289062 147.26171875 c 132,-1,16
 386.879882812 154.416992188 386.879882812 154.416992188 374.4765625 166.821289062 c 4,17,18
 354.440429688 186.857421875 354.440429688 186.857421875 341.083007812 186.857421875 c 260,19,20
 327.725585938 186.857421875 327.725585938 186.857421875 318.184570312 192.58203125 c 260,0,1
243.764648438 426.3359375 m 4,21,22
 219.912109375 429.19921875 219.912109375 429.19921875 201.784179688 433.969726562 c 4,23,24
 186.518554688 435.877929688 186.518554688 435.877929688 183.65625 431.106445312 c 4,25,26
 180.793945312 427.291015625 180.793945312 427.291015625 179.83984375 363.365234375 c 4,27,28
 178.885742188 291.807617188 178.885742188 291.807617188 189.380859375 291.807617188 c 4,29,30
 192.243164062 290.854492188 192.243164062 290.854492188 196.059570312 295.624023438 c 4,31,32
 201.784179688 301.349609375 201.784179688 301.349609375 212.279296875 301.349609375 c 4,33,34
 230.407226562 301.349609375 230.407226562 301.349609375 277.158203125 315.18359375 c 132,-1,35
 323.909179688 329.018554688 323.909179688 329.018554688 329.633789062 335.697265625 c 4,36,37
 347.76171875 357.641601562 347.76171875 357.641601562 319.138671875 387.6953125 c 132,-1,38
 290.515625 417.749023438 290.515625 417.749023438 243.764648438 426.3359375 c 4,21,22
98.7412109375 524.608398438 m 4,39,40
 109.236328125 529.379882812 109.236328125 529.379882812 187.47265625 529.379882812 c 4,41,42
 238.994140625 529.379882812 238.994140625 529.379882812 261.892578125 526.994140625 c 132,-1,43
 284.791015625 524.608398438 284.791015625 524.608398438 312.459960938 517.9296875 c 4,44,45
 353.485351562 507.435546875 353.485351562 507.435546875 370.659179688 498.848632812 c 132,-1,46
 387.833984375 490.26171875 387.833984375 490.26171875 403.098632812 472.1328125 c 4,47,48
 426.951171875 445.41796875 426.951171875 445.41796875 428.3828125 421.565429688 c 132,-1,49
 429.814453125 397.712890625 429.814453125 397.712890625 408.82421875 357.641601562 c 4,50,51
 388.788085938 320.431640625 388.788085938 320.431640625 376.384765625 310.413085938 c 132,-1,52
 363.981445312 300.39453125 363.981445312 300.39453125 363.981445312 297.532226562 c 4,53,54
 363.981445312 290.854492188 363.981445312 290.854492188 425.998046875 278.450195312 c 4,55,56
 439.35546875 275.588867188 439.35546875 275.588867188 462.252929688 253.64453125 c 6,57,-1
 485.15234375 231.700195312 l 5,58,-1
 482.290039062 195.444335938 l 6,59,60
 479.426757812 160.142578125 479.426757812 160.142578125 467.500976562 135.813476562 c 132,-1,61
 455.57421875 111.483398438 455.57421875 111.483398438 425.998046875 81.90625 c 4,62,63
 392.603515625 49.466796875 392.603515625 49.466796875 362.072265625 33.2470703125 c 132,-1,64
 331.541015625 17.02734375 331.541015625 17.02734375 289.561523438 10.3486328125 c 4,65,66
 259.983398438 6.5322265625 259.983398438 6.5322265625 157.41796875 5.1015625 c 132,-1,67
 54.8525390625 3.669921875 54.8525390625 3.669921875 44.357421875 8.4404296875 c 4,68,69
 15.734375 17.9814453125 15.734375 17.9814453125 54.8525390625 57.099609375 c 4,70,71
 78.705078125 81.90625 78.705078125 81.90625 83.4755859375 92.4013671875 c 260,72,73
 88.2470703125 102.896484375 88.2470703125 102.896484375 87.7685546875 263.184570312 c 132,-1,74
 87.2919921875 423.473632812 87.2919921875 423.473632812 83.4755859375 430.15234375 c 4,75,76
 79.66015625 435.877929688 79.66015625 435.877929688 55.8076171875 435.877929688 c 4,77,78
 38.6337890625 435.877929688 38.6337890625 435.877929688 34.81640625 437.786132812 c 132,-1,79
 31 439.693359375 31 439.693359375 31 447.326171875 c 4,80,81
 31 457.822265625 31 457.822265625 58.1923828125 488.830078125 c 132,-1,82
 85.3837890625 519.837890625 85.3837890625 519.837890625 98.7412109375 524.608398438 c 4,39,40
EndSplineSet
MultipleSubs2: "Multiple Substitution lookup 2 subtable" B cartoucheMiddleTok
EndChar

StartChar: C
Encoding: 284 67 28
Width: 490
VWidth: 980
GlyphClass: 1
Flags: W
LayerCount: 2
Fore
SplineSet
260 514.900390625 m 4,0,1
 274.399414062 523 274.399414062 523 287.44921875 525.25 c 132,-1,2
 300.5 527.5 300.5 527.5 332.899414062 527.5 c 4,3,4
 402.19921875 527.5 402.19921875 527.5 413.899414062 508.599609375 c 4,5,6
 417.5 504.099609375 417.5 504.099609375 424.69921875 504.099609375 c 4,7,8
 432.799804688 504.099609375 432.799804688 504.099609375 445.399414062 489.700195312 c 4,9,10
 454.399414062 480.700195312 454.399414062 480.700195312 455.75 476.650390625 c 132,-1,11
 457.099609375 472.599609375 457.099609375 472.599609375 453.5 463.599609375 c 4,12,13
 442.69921875 439.299804688 442.69921875 439.299804688 404.899414062 397.450195312 c 132,-1,14
 367.099609375 355.599609375 367.099609375 355.599609375 347.299804688 345.700195312 c 4,15,16
 336.5 341.200195312 336.5 341.200195312 332.899414062 341.200195312 c 132,-1,17
 329.299804688 341.200195312 329.299804688 341.200195312 324.349609375 346.150390625 c 132,-1,18
 319.399414062 351.099609375 319.399414062 351.099609375 320.75 355.150390625 c 132,-1,19
 322.099609375 359.200195312 322.099609375 359.200195312 332.899414062 373.599609375 c 4,20,21
 350.899414062 394.299804688 350.899414062 394.299804688 355.399414062 405.099609375 c 4,22,23
 359 411.400390625 359 411.400390625 357.649414062 414.099609375 c 132,-1,24
 356.299804688 416.799804688 356.299804688 416.799804688 348.19921875 419.5 c 4,25,26
 336.5 424 336.5 424 336.5 429.400390625 c 4,27,28
 336.5 433.900390625 336.5 433.900390625 325.69921875 433.900390625 c 4,29,30
 314 433.900390625 314 433.900390625 311.299804688 438.400390625 c 4,31,32
 308.599609375 443.799804688 308.599609375 443.799804688 281.149414062 443.349609375 c 132,-1,33
 253.69921875 442.900390625 253.69921875 442.900390625 239.299804688 437.5 c 4,34,35
 196.099609375 424 196.099609375 424 174.5 405.099609375 c 4,36,37
 147.5 382.599609375 147.5 382.599609375 130.849609375 350.200195312 c 132,-1,38
 114.19921875 317.799804688 114.19921875 317.799804688 117.799804688 296.200195312 c 4,39,40
 126.799804688 243.099609375 126.799804688 243.099609375 134.899414062 235.900390625 c 4,41,42
 140.299804688 230.5 140.299804688 230.5 140.299804688 223.299804688 c 4,43,44
 140.299804688 211.599609375 140.299804688 211.599609375 152.899414062 190.900390625 c 132,-1,45
 165.5 170.200195312 165.5 170.200195312 184.399414062 151.299804688 c 4,46,47
 208.69921875 127 208.69921875 127 216.349609375 121.150390625 c 132,-1,48
 224 115.299804688 224 115.299804688 240.19921875 108.099609375 c 4,49,50
 253.69921875 101.799804688 253.69921875 101.799804688 289.25 100 c 132,-1,51
 324.799804688 98.2001953125 324.799804688 98.2001953125 340.099609375 102.700195312 c 4,52,53
 350.899414062 106.299804688 350.899414062 106.299804688 377 138.700195312 c 4,54,55
 404 171.099609375 404 171.099609375 407.599609375 171.099609375 c 4,56,57
 410.299804688 171.099609375 410.299804688 171.099609375 425.599609375 185.5 c 4,58,59
 437.299804688 197.200195312 437.299804688 197.200195312 446.75 198.099609375 c 132,-1,60
 456.19921875 199 456.19921875 199 458 189.099609375 c 4,61,62
 460.69921875 174.700195312 460.69921875 174.700195312 412.099609375 116.650390625 c 132,-1,63
 363.5 58.599609375 363.5 58.599609375 328.399414062 34.2998046875 c 4,64,65
 301.399414062 16.2998046875 301.399414062 16.2998046875 256.849609375 10 c 132,-1,66
 212.299804688 3.7001953125 212.299804688 3.7001953125 185.299804688 14.5 c 4,67,68
 103.399414062 46.900390625 103.399414062 46.900390625 62.8994140625 130.599609375 c 4,69,70
 46.69921875 165.700195312 46.69921875 165.700195312 40.849609375 188.650390625 c 132,-1,71
 35 211.599609375 35 211.599609375 35 244 c 4,72,73
 35 274.599609375 35 274.599609375 42.19921875 294.849609375 c 132,-1,74
 49.3994140625 315.099609375 49.3994140625 315.099609375 76.3994140625 356.5 c 4,75,76
 98.8994140625 390.700195312 98.8994140625 390.700195312 158.75 447.400390625 c 132,-1,77
 218.599609375 504.099609375 218.599609375 504.099609375 233 504.099609375 c 4,78,79
 235.69921875 504.099609375 235.69921875 504.099609375 260 514.900390625 c 4,0,1
EndSplineSet
MultipleSubs2: "Multiple Substitution lookup 2 subtable" C cartoucheMiddleTok
EndChar

StartChar: D
Encoding: 285 68 29
Width: 572
VWidth: 980
GlyphClass: 1
Flags: W
LayerCount: 2
Fore
SplineSet
318.41015625 420.240234375 m 4,0,1
 293.625 433.5859375 293.625 433.5859375 265.979492188 438.3515625 c 132,-1,2
 238.333007812 443.119140625 238.333007812 443.119140625 234.51953125 433.5859375 c 4,3,4
 232.614257812 426.913085938 232.614257812 426.913085938 232.614257812 258.178710938 c 4,5,6
 232.614257812 147.596679688 232.614257812 147.596679688 233.567382812 118.044921875 c 132,-1,7
 234.51953125 88.4931640625 234.51953125 88.4931640625 239.287109375 86.5859375 c 4,8,9
 247.866210938 83.7265625 247.866210938 83.7265625 276.465820312 91.353515625 c 4,10,11
 304.111328125 99.931640625 304.111328125 99.931640625 324.129882812 99.931640625 c 4,12,13
 342.2421875 99.931640625 342.2421875 99.931640625 369.412109375 108.03515625 c 132,-1,14
 396.580078125 116.138671875 396.580078125 116.138671875 411.833984375 125.671875 c 4,15,16
 431.8515625 139.971679688 431.8515625 139.971679688 439.001953125 158.560546875 c 132,-1,17
 446.15234375 177.149414062 446.15234375 177.149414062 446.15234375 216.234375 c 4,18,19
 447.104492188 266.758789062 447.104492188 266.758789062 435.666015625 297.265625 c 132,-1,20
 424.2265625 327.76953125 424.2265625 327.76953125 391.814453125 364.947265625 c 4,21,22
 363.215820312 395.454101562 363.215820312 395.454101562 355.588867188 400.220703125 c 4,23,24
 351.775390625 403.080078125 351.775390625 403.080078125 318.41015625 420.240234375 c 4,0,1
90.5732421875 519.3828125 m 4,25,26
 102.01171875 527.961914062 102.01171875 527.961914062 231.18359375 527.485351562 c 132,-1,27
 360.354492188 527.008789062 360.354492188 527.008789062 384.186523438 518.4296875 c 4,28,29
 404.208007812 511.755859375 404.208007812 511.755859375 413.262695312 505.560546875 c 132,-1,30
 422.319335938 499.362304688 422.319335938 499.362304688 458.543945312 466.950195312 c 260,31,32
 494.76953125 434.540039062 494.76953125 434.540039062 515.7421875 395.454101562 c 6,33,-1
 536.715820312 355.416015625 l 5,34,-1
 536.715820312 284.872070312 l 6,35,36
 536.715820312 235.30078125 536.715820312 235.30078125 534.80859375 222.4296875 c 132,-1,37
 532.90234375 209.560546875 532.90234375 209.560546875 523.370117188 195.26171875 c 4,38,39
 510.0234375 173.3359375 510.0234375 173.3359375 510.0234375 171.4296875 c 4,40,41
 510.0234375 159.990234375 510.0234375 159.990234375 456.638671875 106.60546875 c 132,-1,42
 403.252929688 53.2216796875 403.252929688 53.2216796875 386.09375 45.5947265625 c 4,43,44
 379.420898438 43.6884765625 379.420898438 43.6884765625 366.075195312 35.107421875 c 4,45,46
 345.1015625 20.8095703125 345.1015625 20.8095703125 312.689453125 15.0888671875 c 132,-1,47
 280.278320312 9.3681640625 280.278320312 9.3681640625 208.78125 7.462890625 c 4,48,49
 114.405273438 5.556640625 114.405273438 5.556640625 75.3203125 2.6953125 c 4,50,51
 33.3759765625 0.7890625 33.3759765625 0.7890625 33.3759765625 7.462890625 c 132,-1,52
 33.3759765625 14.134765625 33.3759765625 14.134765625 66.740234375 50.3603515625 c 4,53,54
 87.7138671875 72.2861328125 87.7138671875 72.2861328125 96.7685546875 78.484375 c 132,-1,55
 105.826171875 84.6796875 105.826171875 84.6796875 116.3125 84.6796875 c 4,56,57
 133.471679688 84.6796875 133.471679688 84.6796875 137.283203125 96.1181640625 c 4,58,59
 142.05078125 109.463867188 142.05078125 109.463867188 141.096679688 267.711914062 c 4,60,61
 141.096679688 286.778320312 141.096679688 286.778320312 141.096679688 318.237304688 c 4,62,63
 141.096679688 404.987304688 141.096679688 404.987304688 135.377929688 419.762695312 c 132,-1,64
 129.658203125 434.540039062 129.658203125 434.540039062 96.29296875 435.4921875 c 4,65,66
 83.8994140625 435.4921875 83.8994140625 435.4921875 77.2265625 435.4921875 c 4,67,68
 40.048828125 437.399414062 40.048828125 437.399414062 32.8994140625 443.119140625 c 132,-1,69
 25.748046875 448.837890625 25.748046875 448.837890625 36.2353515625 465.998046875 c 4,70,71
 42.908203125 476.484375 42.908203125 476.484375 60.5439453125 493.643554688 c 132,-1,72
 78.1796875 510.803710938 78.1796875 510.803710938 90.5732421875 519.3828125 c 4,25,26
EndSplineSet
MultipleSubs2: "Multiple Substitution lookup 2 subtable" D cartoucheMiddleTok
EndChar

StartChar: E
Encoding: 286 69 30
Width: 443
VWidth: 980
GlyphClass: 1
Flags: W
LayerCount: 2
Fore
SplineSet
133.927734375 530.794921875 m 4,0,1
 144.9375 535.3828125 144.9375 535.3828125 172.462890625 531.712890625 c 4,2,3
 204.575195312 528.959960938 204.575195312 528.959960938 214.66796875 528.959960938 c 4,4,5
 231.182617188 529.877929688 231.182617188 529.877929688 287.150390625 529.877929688 c 132,-1,6
 343.118164062 529.877929688 343.118164062 529.877929688 372.477539062 528.959960938 c 4,7,8
 400.002929688 528.04296875 400.002929688 528.04296875 405.5078125 526.666015625 c 132,-1,9
 411.012695312 525.290039062 411.012695312 525.290039062 412.84765625 517.032226562 c 4,10,11
 414.682617188 506.940429688 414.682617188 506.940429688 380.735351562 472.9921875 c 6,12,-1
 346.788085938 439.962890625 l 5,13,-1
 263.294921875 439.962890625 l 6,14,15
 179.802734375 439.962890625 179.802734375 439.962890625 177.05078125 435.375 c 260,16,17
 174.297851562 430.787109375 174.297851562 430.787109375 172.462890625 381.2421875 c 4,18,19
 172.462890625 379.407226562 172.462890625 379.407226562 172.462890625 374.8203125 c 4,20,21
 172.462890625 363.809570312 172.462890625 363.809570312 172.00390625 359.22265625 c 132,-1,22
 171.544921875 354.634765625 171.544921875 354.634765625 172.462890625 347.294921875 c 132,-1,23
 173.379882812 339.955078125 173.379882812 339.955078125 173.379882812 337.202148438 c 132,-1,24
 173.379882812 334.450195312 173.379882812 334.450195312 176.591796875 329.862304688 c 132,-1,25
 179.802734375 325.275390625 179.802734375 325.275390625 181.178710938 324.357421875 c 132,-1,26
 182.555664062 323.440429688 182.555664062 323.440429688 188.51953125 321.146484375 c 132,-1,27
 194.482421875 318.852539062 194.482421875 318.852539062 198.15234375 318.852539062 c 132,-1,28
 201.823242188 318.852539062 201.823242188 318.852539062 212.374023438 317.934570312 c 132,-1,29
 222.92578125 317.017578125 222.92578125 317.017578125 229.34765625 317.017578125 c 132,-1,30
 235.770507812 317.017578125 235.770507812 317.017578125 251.368164062 317.017578125 c 4,31,32
 256.873046875 317.017578125 256.873046875 317.017578125 260.54296875 317.017578125 c 4,33,34
 333.025390625 316.099609375 333.025390625 316.099609375 337.61328125 312.4296875 c 4,35,36
 353.209960938 303.254882812 353.209960938 303.254882812 309.169921875 256.462890625 c 4,37,38
 284.397460938 231.690429688 284.397460938 231.690429688 277.057617188 227.561523438 c 132,-1,39
 269.717773438 223.432617188 269.717773438 223.432617188 252.28515625 224.349609375 c 4,40,41
 229.34765625 226.184570312 229.34765625 226.184570312 220.172851562 225.267578125 c 4,42,43
 217.419921875 225.267578125 217.419921875 225.267578125 208.704101562 225.267578125 c 132,-1,44
 199.98828125 225.267578125 199.98828125 225.267578125 195.400390625 225.267578125 c 4,45,46
 179.802734375 225.267578125 179.802734375 225.267578125 176.1328125 218.844726562 c 4,47,48
 172.462890625 213.33984375 172.462890625 213.33984375 173.379882812 161.500976562 c 132,-1,49
 174.297851562 109.662109375 174.297851562 109.662109375 177.967773438 103.240234375 c 4,50,51
 181.637695312 97.7353515625 181.637695312 97.7353515625 190.354492188 96.3583984375 c 132,-1,52
 199.0703125 94.982421875 199.0703125 94.982421875 230.265625 94.982421875 c 4,53,54
 255.955078125 95.900390625 255.955078125 95.900390625 284.397460938 95.900390625 c 4,55,56
 314.67578125 95.900390625 314.67578125 95.900390625 342.200195312 95.900390625 c 4,57,58
 407.342773438 94.982421875 407.342773438 94.982421875 407.342773438 83.0546875 c 4,59,60
 407.342773438 79.384765625 407.342773438 79.384765625 402.754882812 74.7978515625 c 4,61,62
 394.498046875 65.6220703125 394.498046875 65.6220703125 394.498046875 62.4111328125 c 132,-1,63
 394.498046875 59.2001953125 394.498046875 59.2001953125 366.97265625 31.6748046875 c 6,64,-1
 339.448242188 5.0673828125 l 5,65,-1
 192.647460938 5.0673828125 l 6,66,67
 46.765625 5.0673828125 46.765625 5.0673828125 43.095703125 9.6552734375 c 4,68,69
 41.2607421875 13.3251953125 41.2607421875 13.3251953125 47.6826171875 27.5458984375 c 132,-1,70
 54.10546875 41.767578125 54.10546875 41.767578125 58.6923828125 44.51953125 c 4,71,72
 61.4453125 44.51953125 61.4453125 44.51953125 71.5380859375 60.1171875 c 4,73,74
 78.8779296875 70.2099609375 78.8779296875 70.2099609375 80.25390625 95.900390625 c 132,-1,75
 81.6298828125 121.58984375 81.6298828125 121.58984375 80.712890625 241.782226562 c 4,76,77
 79.794921875 415.190429688 79.794921875 415.190429688 79.794921875 424.365234375 c 4,78,79
 78.8779296875 435.375 78.8779296875 435.375 76.125 437.668945312 c 132,-1,80
 73.373046875 439.962890625 73.373046875 439.962890625 57.775390625 439.962890625 c 4,81,82
 35.7548828125 439.962890625 35.7548828125 439.962890625 32.0849609375 448.219726562 c 4,83,84
 27.498046875 457.39453125 27.498046875 457.39453125 33.0029296875 467.028320312 c 132,-1,85
 38.5078125 476.662109375 38.5078125 476.662109375 64.1982421875 501.434570312 c 4,86,87
 84.3828125 520.702148438 84.3828125 520.702148438 92.640625 525.749023438 c 132,-1,88
 100.897460938 530.794921875 100.897460938 530.794921875 110.073242188 528.959960938 c 4,89,90
 125.669921875 527.125 125.669921875 527.125 133.927734375 530.794921875 c 4,0,1
EndSplineSet
MultipleSubs2: "Multiple Substitution lookup 2 subtable" E cartoucheMiddleTok
EndChar

StartChar: F
Encoding: 287 70 31
Width: 508
VWidth: 980
GlyphClass: 1
Flags: W
LayerCount: 2
Fore
SplineSet
103 516 m 2,0,-1
 127 529 l 1,1,-1
 293 527 l 2,2,3
 461 525 461 525 469 522 c 0,4,5
 476 520 476 520 477.5 515.5 c 128,-1,6
 479 511 479 511 476 503.5 c 128,-1,7
 473 496 473 496 465 486 c 128,-1,8
 457 476 457 476 444 462 c 2,9,-1
 409 425 l 1,10,-1
 313 426 l 2,11,12
 217 427 217 427 211 421 c 0,13,14
 207 417 207 417 206.5 373 c 128,-1,15
 206 329 206 329 210 322 c 0,16,17
 213 316 213 316 258 316 c 0,18,19
 334 317 334 317 337 300 c 0,20,21
 338 293 338 293 302 255 c 0,22,23
 275 228 275 228 266 223 c 128,-1,24
 257 218 257 218 238 216 c 2,25,-1
 210 215 l 1,26,-1
 206 191 l 2,27,28
 203 161 203 161 203 122 c 0,29,30
 202 79 202 79 189 57 c 128,-1,31
 176 35 176 35 135 8 c 2,32,-1
 113 -7 l 1,33,-1
 81 4 l 2,34,35
 30 22 30 22 30 30 c 0,36,37
 30 35 30 35 69 75 c 2,38,-1
 108 115 l 1,39,-1
 108 268 l 2,40,41
 108 420 108 420 102 424 c 0,42,43
 97 427 97 427 63 426 c 0,44,45
 36 426 36 426 32.5 430 c 128,-1,46
 29 434 29 434 39 453 c 0,47,48
 59 492 59 492 103 516 c 2,0,-1
EndSplineSet
MultipleSubs2: "Multiple Substitution lookup 2 subtable" F cartoucheMiddleTok
EndChar

StartChar: G
Encoding: 288 71 32
Width: 590
VWidth: 980
GlyphClass: 1
Flags: W
LayerCount: 2
Fore
SplineSet
238.881835938 525.451171875 m 4,0,1
 261.10546875 532.21484375 261.10546875 532.21484375 305.0703125 532.21484375 c 132,-1,2
 349.03515625 532.21484375 349.03515625 532.21484375 377.056640625 524.484375 c 4,3,4
 397.348632812 518.686523438 397.348632812 518.686523438 418.123046875 504.676757812 c 132,-1,5
 438.8984375 490.665039062 438.8984375 490.665039062 445.661132812 478.103515625 c 4,6,7
 450.493164062 468.44140625 450.493164062 468.44140625 447.111328125 461.677734375 c 132,-1,8
 443.729492188 454.913085938 443.729492188 454.913085938 418.606445312 428.82421875 c 4,9,10
 384.788085938 393.073242188 384.788085938 393.073242188 378.0234375 393.073242188 c 4,11,12
 372.2265625 393.073242188 372.2265625 393.073242188 358.698242188 406.600585938 c 4,13,14
 336.474609375 430.756835938 336.474609375 430.756835938 319.564453125 435.588867188 c 132,-1,15
 302.655273438 440.419921875 302.655273438 440.419921875 249.509765625 440.419921875 c 4,16,17
 190.568359375 440.419921875 190.568359375 440.419921875 173.17578125 432.689453125 c 132,-1,18
 155.782226562 424.958984375 155.782226562 424.958984375 142.255859375 392.106445312 c 4,19,20
 130.66015625 363.119140625 130.66015625 363.119140625 125.829101562 328.333007812 c 132,-1,21
 120.998046875 293.547851562 120.998046875 293.547851562 125.829101562 280.986328125 c 4,22,23
 130.66015625 265.526367188 130.66015625 265.526367188 130.66015625 252.481445312 c 132,-1,24
 130.66015625 239.436523438 130.66015625 239.436523438 138.390625 224.942382812 c 260,25,26
 146.12109375 210.44921875 146.12109375 210.44921875 146.12109375 203.684570312 c 4,27,28
 146.12109375 194.98828125 146.12109375 194.98828125 168.344726562 168.900390625 c 132,-1,29
 190.568359375 142.810546875 190.568359375 142.810546875 208.927734375 130.25 c 4,30,31
 235.016601562 111.890625 235.016601562 111.890625 261.10546875 104.16015625 c 260,32,33
 287.1953125 96.4306640625 287.1953125 96.4306640625 322.946289062 96.4306640625 c 132,-1,34
 358.698242188 96.4306640625 358.698242188 96.4306640625 372.2265625 104.16015625 c 4,35,36
 384.788085938 110.923828125 384.788085938 110.923828125 401.213867188 141.844726562 c 132,-1,37
 417.640625 172.765625 417.640625 172.765625 417.640625 187.258789062 c 6,38,-1
 417.640625 200.786132812 l 5,39,-1
 366.428710938 202.719726562 l 6,40,41
 329.7109375 203.684570312 329.7109375 203.684570312 322.462890625 205.618164062 c 132,-1,42
 315.216796875 207.55078125 315.216796875 207.55078125 316.182617188 214.314453125 c 4,43,44
 318.115234375 223.977539062 318.115234375 223.977539062 332.125976562 241.852539062 c 132,-1,45
 346.13671875 259.728515625 346.13671875 259.728515625 364.495117188 273.255859375 c 6,46,-1
 382.854492188 288.715820312 l 5,47,-1
 464.020507812 290.649414062 l 6,48,49
 546.153320312 291.615234375 546.153320312 291.615234375 551.950195312 288.715820312 c 4,50,51
 570.309570312 281.952148438 570.309570312 281.952148438 528.760742188 236.538085938 c 4,52,53
 526.827148438 235.572265625 526.827148438 235.572265625 524.895507812 233.638671875 c 4,54,55
 491.076171875 197.887695312 491.076171875 197.887695312 478.514648438 172.765625 c 4,56,57
 447.594726562 112.856445312 447.594726562 112.856445312 395.899414062 65.9931640625 c 132,-1,58
 344.204101562 19.12890625 344.204101562 19.12890625 297.823242188 9.466796875 c 4,59,60
 278.499023438 4.634765625 278.499023438 4.634765625 254.341796875 4.634765625 c 4,61,62
 235.016601562 5.6015625 235.016601562 5.6015625 204.095703125 13.3310546875 c 132,-1,63
 173.17578125 21.0615234375 173.17578125 21.0615234375 162.546875 28.30859375 c 132,-1,64
 151.91796875 35.5556640625 151.91796875 35.5556640625 144.1875 35.5556640625 c 4,65,66
 133.559570312 35.5556640625 133.559570312 35.5556640625 88.14453125 88.69921875 c 4,67,68
 65.9208984375 112.856445312 65.9208984375 112.856445312 50.4599609375 157.788085938 c 132,-1,69
 35 202.719726562 35 202.719726562 35 239.436523438 c 4,70,71
 35 327.366210938 35 327.366210938 96.357421875 412.880859375 c 132,-1,72
 157.715820312 498.395507812 157.715820312 498.395507812 238.881835938 525.451171875 c 4,0,1
EndSplineSet
MultipleSubs2: "Multiple Substitution lookup 2 subtable" G cartoucheMiddleTok
EndChar

StartChar: H
Encoding: 289 72 33
Width: 508
VWidth: 980
GlyphClass: 1
Flags: W
LayerCount: 2
Fore
SplineSet
434 537 m 0,0,1
 443 546 443 546 450 546 c 0,2,3
 463 546 463 546 465.5 511.5 c 128,-1,4
 468 477 468 477 468 298 c 2,5,-1
 468 62 l 1,6,-1
 429 25 l 2,7,8
 388 -12 388 -12 384 -12 c 0,9,10
 377 -12 377 -12 374.5 14.5 c 128,-1,11
 372 41 372 41 372 116 c 0,12,13
 374 237 374 237 365 243 c 0,14,15
 361 245 361 245 352 236 c 0,16,17
 344 228 344 228 245 228 c 0,18,19
 175 228 175 228 159.5 226.5 c 128,-1,20
 144 225 144 225 140 218 c 0,21,22
 135 207 135 207 136 141 c 0,23,24
 136 83 136 83 130.5 67 c 128,-1,25
 125 51 125 51 91 19 c 0,26,27
 69 -4 69 -4 58.5 -9 c 128,-1,28
 48 -14 48 -14 43 -5 c 0,29,30
 40 0 40 0 40 231 c 0,31,32
 40 241 40 241 40 260 c 0,33,34
 40 415 40 415 42.5 443.5 c 128,-1,35
 45 472 45 472 60 490 c 0,36,37
 62 492 62 492 63 494 c 0,38,39
 75 507 75 507 97 523.5 c 128,-1,40
 119 540 119 540 125.5 540 c 128,-1,41
 132 540 132 540 133.5 528.5 c 128,-1,42
 135 517 135 517 135 463 c 0,43,44
 135 389 135 389 138 354 c 2,45,-1
 142 323 l 1,46,-1
 252 322 l 2,47,48
 363 322 363 322 368 328 c 0,49,50
 373 335 373 335 372 397 c 0,51,52
 371 440 371 440 373 453 c 128,-1,53
 375 466 375 466 383 482 c 0,54,55
 397 504 397 504 403 504 c 0,56,57
 410 504 410 504 418 516 c 0,58,59
 427 530 427 530 434 537 c 0,0,1
EndSplineSet
MultipleSubs2: "Multiple Substitution lookup 2 subtable" H cartoucheMiddleTok
EndChar

StartChar: I
Encoding: 290 73 34
Width: 411
VWidth: 980
GlyphClass: 1
Flags: W
LayerCount: 2
Fore
SplineSet
116.922851562 524.5 m 132,-1,1
 116.922851562 529 116.922851562 529 240.922851562 529 c 4,2,3
 363.922851562 529 363.922851562 529 375.922851562 521 c 4,4,5
 382.922851562 516 382.922851562 516 379.922851562 502 c 4,6,7
 376.922851562 492 376.922851562 492 357.422851562 472 c 132,-1,8
 337.922851562 452 337.922851562 452 317.922851562 438 c 4,9,10
 301.922851562 429 301.922851562 429 275.922851562 426 c 6,11,-1
 249.922851562 423 l 5,12,-1
 247.922851562 265 l 6,13,14
 246.922851562 107 246.922851562 107 253.922851562 102 c 4,15,16
 260.922851562 98 260.922851562 98 310.922851562 98 c 4,17,18
 361.922851562 98 361.922851562 98 363.922851562 92 c 4,19,20
 367.922851562 87 367.922851562 87 355.422851562 68.5 c 132,-1,21
 342.922851562 50 342.922851562 50 320.922851562 28 c 6,22,-1
 293.922851562 4 l 5,23,-1
 166.922851562 3 l 6,24,25
 38.9228515625 3 38.9228515625 3 33.9228515625 7 c 4,26,27
 25.9228515625 11 25.9228515625 11 30.9228515625 21 c 132,-1,28
 35.9228515625 31 35.9228515625 31 55.9228515625 53 c 4,29,30
 110.922851562 114 110.922851562 114 135.922851562 103 c 4,31,32
 148.922851562 98 148.922851562 98 150.922851562 98 c 4,33,34
 153.922851562 98 153.922851562 98 153.922851562 259 c 260,35,36
 153.922851562 420 153.922851562 420 146.922851562 424 c 4,37,38
 141.922851562 428 141.922851562 428 91.9228515625 427 c 6,39,-1
 42.9228515625 425 l 5,40,-1
 45.9228515625 441 l 6,41,42
 48.9228515625 455 48.9228515625 455 72.9228515625 484.5 c 132,-1,43
 96.9228515625 514 96.9228515625 514 107.922851562 517 c 4,44,0
 116.922851562 520 116.922851562 520 116.922851562 524.5 c 132,-1,1
EndSplineSet
MultipleSubs2: "Multiple Substitution lookup 2 subtable" I cartoucheMiddleTok
EndChar

StartChar: J
Encoding: 291 74 35
Width: 465
VWidth: 980
GlyphClass: 1
Flags: W
LayerCount: 2
Fore
SplineSet
134 504 m 0,0,1
 147 512 147 512 287 512 c 0,2,3
 417 512 417 512 430 505 c 0,4,5
 442 500 442 500 422 477 c 0,6,7
 420 473 420 473 410 463 c 0,8,9
 363 409 363 409 331 411 c 2,10,11
 331 411 331 411 330 411 c 0,12,13
 308 413 308 413 304.5 399.5 c 128,-1,14
 301 386 301 386 304 302 c 0,15,16
 304 298 304 298 304 296 c 0,17,18
 308 193 308 193 308 177 c 0,19,20
 308 157 308 157 264 105 c 128,-1,21
 220 53 220 53 184 32 c 0,22,23
 128 -3 128 -3 94 9 c 0,24,25
 76 15 76 15 53.5 38.5 c 128,-1,26
 31 62 31 62 31 75 c 0,27,28
 31 84 31 84 51.5 106 c 128,-1,29
 72 128 72 128 93.5 143 c 128,-1,30
 115 158 115 158 118 151 c 0,31,32
 120 144 120 144 139.5 126 c 128,-1,33
 159 108 159 108 167 105 c 0,34,35
 176 102 176 102 191 109 c 2,36,-1
 205 116 l 1,37,-1
 205 263 l 1,38,-1
 205 410 l 1,39,-1
 176 411 l 2,40,41
 144 412 144 412 121 410 c 0,42,43
 93 409 93 409 79 413 c 0,44,45
 69 415 69 415 66.5 418 c 128,-1,46
 64 421 64 421 66 431 c 0,47,48
 68 442 68 442 91 467 c 128,-1,49
 114 492 114 492 134 504 c 0,0,1
EndSplineSet
MultipleSubs2: "Multiple Substitution lookup 2 subtable" J cartoucheMiddleTok
EndChar

StartChar: K
Encoding: 292 75 36
Width: 415
VWidth: 980
GlyphClass: 1
Flags: W
LayerCount: 2
Fore
SplineSet
77.5712890625 483 m 2,0,1
 114.571289062 520 114.571289062 520 116.571289062 520 c 2,2,3
 116.571289062 520 116.571289062 520 126.571289062 516 c 0,4,5
 131.571289062 515 131.571289062 515 133.071289062 500.5 c 128,-1,6
 134.571289062 486 134.571289062 486 134.571289062 438 c 0,7,8
 134.571289062 363 134.571289062 363 140.571289062 363 c 256,9,10
 146.571289062 363 146.571289062 363 179.571289062 387 c 0,11,12
 211.571289062 410 211.571289062 410 216.571289062 410 c 256,13,14
 221.571289062 410 221.571289062 410 231.571289062 421 c 0,15,16
 239.571289062 431 239.571289062 431 255.571289062 439 c 0,17,18
 268.571289062 446 268.571289062 446 276.071289062 453.5 c 128,-1,19
 283.571289062 461 283.571289062 461 326.571289062 487.5 c 128,-1,20
 369.571289062 514 369.571289062 514 374.571289062 514 c 0,21,22
 383.571289062 514 383.571289062 514 384.571289062 503 c 128,-1,23
 385.571289062 492 385.571289062 492 378.571289062 479 c 0,24,25
 369.571289062 464 369.571289062 464 340.071289062 437 c 128,-1,26
 310.571289062 410 310.571289062 410 302.571289062 410 c 0,27,28
 296.571289062 410 296.571289062 410 296.571289062 406.5 c 128,-1,29
 296.571289062 403 296.571289062 403 269.571289062 385 c 0,30,31
 243.571289062 367 243.571289062 367 243.571289062 366 c 2,32,33
 243.571289062 366 243.571289062 366 245.571289062 362.5 c 128,-1,34
 247.571289062 359 247.571289062 359 250.571289062 352 c 128,-1,35
 253.571289062 345 253.571289062 345 256.571289062 339 c 0,36,37
 296.571289062 257 296.571289062 257 296.571289062 248 c 0,38,39
 296.571289062 240 296.571289062 240 314.571289062 209 c 128,-1,40
 332.571289062 178 332.571289062 178 332.571289062 168 c 0,41,42
 332.571289062 156 332.571289062 156 337.571289062 152 c 0,43,44
 341.571289062 150 341.571289062 150 357.571289062 118 c 0,45,46
 368.571289062 96 368.571289062 96 370.071289062 89.5 c 128,-1,47
 371.571289062 83 371.571289062 83 365.571289062 75 c 0,48,49
 359.571289062 64 359.571289062 64 337.571289062 43.5 c 128,-1,50
 315.571289062 23 315.571289062 23 303.571289062 16 c 0,51,52
 297.571289062 12 297.571289062 12 289.571289062 10.5 c 128,-1,53
 281.571289062 9 281.571289062 9 275.571289062 10.5 c 128,-1,54
 269.571289062 12 269.571289062 12 269.571289062 15 c 0,55,56
 269.571289062 22 269.571289062 22 249.571289062 64 c 0,57,58
 243.571289062 76 243.571289062 76 228.571289062 107.5 c 128,-1,59
 213.571289062 139 213.571289062 139 207.571289062 151 c 0,60,61
 201.571289062 164 201.571289062 164 188.571289062 193 c 128,-1,62
 175.571289062 222 175.571289062 222 171.571289062 229 c 0,63,64
 155.571289062 264 155.571289062 264 150.571289062 278 c 0,65,66
 139.571289062 305 139.571289062 305 136.571289062 265 c 0,67,68
 134.571289062 240 134.571289062 240 134.571289062 183 c 2,69,-1
 134.571289062 82 l 1,70,-1
 107.571289062 52 l 2,71,72
 89.5712890625 33 89.5712890625 33 79.5712890625 23 c 128,-1,73
 69.5712890625 13 69.5712890625 13 62.0712890625 8 c 128,-1,74
 54.5712890625 3 54.5712890625 3 50.5712890625 3.5 c 128,-1,75
 46.5712890625 4 46.5712890625 4 43.5712890625 9 c 0,76,77
 38.5712890625 16 38.5712890625 16 40.5712890625 406 c 2,78,-1
 40.5712890625 446 l 1,79,-1
 77.5712890625 483 l 2,0,1
EndSplineSet
MultipleSubs2: "Multiple Substitution lookup 2 subtable" K cartoucheMiddleTok
EndChar

StartChar: L
Encoding: 293 76 37
Width: 456
VWidth: 980
GlyphClass: 1
Flags: W
LayerCount: 2
Fore
SplineSet
143.909179688 524 m 0,0,1
 155.909179688 536 155.909179688 536 169.909179688 534 c 0,2,3
 178.909179688 533 178.909179688 533 180.909179688 528 c 128,-1,4
 182.909179688 523 182.909179688 523 181.909179688 499 c 0,5,6
 179.909179688 429 179.909179688 429 179.909179688 286 c 128,-1,7
 179.909179688 143 179.909179688 143 182.909179688 136 c 0,8,9
 185.909179688 126 185.909179688 126 214.909179688 122.5 c 128,-1,10
 243.909179688 119 243.909179688 119 329.909179688 121 c 0,11,12
 365.909179688 121 365.909179688 121 383.409179688 120.5 c 128,-1,13
 400.909179688 120 400.909179688 120 412.409179688 118 c 128,-1,14
 423.909179688 116 423.909179688 116 423.909179688 111.5 c 128,-1,15
 423.909179688 107 423.909179688 107 422.909179688 99 c 0,16,17
 417.909179688 82 417.909179688 82 369.909179688 40 c 2,18,-1
 348.909179688 21 l 1,19,-1
 215.909179688 22 l 1,20,-1
 83.9091796875 22 l 1,21,-1
 82.9091796875 209 l 2,22,23
 81.9091796875 395 81.9091796875 395 77.9091796875 395 c 0,24,25
 74.9091796875 395 74.9091796875 395 61.9091796875 384 c 0,26,27
 41.9091796875 369 41.9091796875 369 33.9091796875 377 c 128,-1,28
 25.9091796875 385 25.9091796875 385 39.9091796875 406 c 0,29,30
 54.9091796875 428 54.9091796875 428 83.4091796875 463 c 128,-1,31
 111.909179688 498 111.909179688 498 120.909179688 504 c 0,32,33
 122.909179688 506 122.909179688 506 131.409179688 513.5 c 128,-1,34
 139.909179688 521 139.909179688 521 143.909179688 524 c 0,0,1
EndSplineSet
MultipleSubs2: "Multiple Substitution lookup 2 subtable" L cartoucheMiddleTok
EndChar

StartChar: M
Encoding: 294 77 38
Width: 492
VWidth: 980
GlyphClass: 1
Flags: W
LayerCount: 2
Fore
SplineSet
255.8203125 518.78515625 m 4,0,1
 276.46484375 536.614257812 276.46484375 536.614257812 283.970703125 528.168945312 c 132,-1,2
 291.477539062 519.723632812 291.477539062 519.723632812 290.540039062 478.436523438 c 4,3,4
 290.540039062 438.087890625 290.540039062 438.087890625 293.354492188 435.272460938 c 260,5,6
 296.169921875 432.45703125 296.169921875 432.45703125 321.505859375 452.163085938 c 4,7,8
 350.59375 471.868164062 350.59375 471.868164062 357.162109375 475.62109375 c 4,9,10
 359.0390625 476.559570312 359.0390625 476.559570312 373.114257812 484.53515625 c 132,-1,11
 387.189453125 492.51171875 387.189453125 492.51171875 396.573242188 497.203125 c 4,12,13
 426.599609375 513.155273438 426.599609375 513.155273438 431.291992188 516.909179688 c 4,14,15
 435.045898438 521.600585938 435.045898438 521.600585938 444.428710938 521.600585938 c 4,16,17
 450.05859375 521.600585938 450.05859375 521.600585938 451.466796875 490.635742188 c 132,-1,18
 452.874023438 459.669921875 452.874023438 459.669921875 452.874023438 308.594726562 c 6,19,-1
 452.874023438 96.5283203125 l 5,20,-1
 419.09375 61.80859375 l 6,21,22
 370.299804688 13.953125 370.299804688 13.953125 362.79296875 36.4736328125 c 4,23,24
 359.977539062 43.98046875 359.977539062 43.98046875 361.853515625 89.021484375 c 4,25,26
 364.669921875 131.247070312 364.669921875 131.247070312 360.916015625 151.890625 c 132,-1,27
 357.162109375 172.534179688 357.162109375 172.534179688 359.977539062 201.623046875 c 4,28,29
 362.79296875 232.588867188 362.79296875 232.588867188 359.977539062 250.41796875 c 4,30,31
 356.223632812 270.123046875 356.223632812 270.123046875 359.0390625 274.814453125 c 4,32,33
 362.79296875 280.444335938 362.79296875 280.444335938 360.916015625 345.190429688 c 4,34,35
 359.977539062 408.059570312 359.977539062 408.059570312 351.532226562 409.936523438 c 4,36,37
 347.779296875 410.875 347.779296875 410.875 337.45703125 401.4921875 c 4,38,39
 327.134765625 393.984375 327.134765625 393.984375 311.182617188 383.663085938 c 4,40,41
 301.799804688 378.033203125 301.799804688 378.033203125 298.515625 371.93359375 c 132,-1,42
 295.231445312 365.834960938 295.231445312 365.834960938 291.946289062 348.005859375 c 132,-1,43
 288.663085938 330.176757812 288.663085938 330.176757812 289.600585938 297.334960938 c 132,-1,44
 290.540039062 264.493164062 290.540039062 264.493164062 290.540039062 205.376953125 c 6,45,-1
 292.416015625 81.513671875 l 5,46,-1
 253.005859375 42.103515625 l 6,47,48
 218.287109375 9.2607421875 218.287109375 9.2607421875 211.717773438 7.8544921875 c 132,-1,49
 205.149414062 6.4462890625 205.149414062 6.4462890625 202.334960938 17.70703125 c 4,50,51
 196.705078125 36.4736328125 196.705078125 36.4736328125 195.765625 202.561523438 c 4,52,53
 195.765625 418.3828125 195.765625 418.3828125 191.07421875 423.07421875 c 4,54,55
 191.07421875 424.01171875 191.07421875 424.01171875 188.258789062 424.01171875 c 4,56,57
 182.629882812 424.01171875 182.629882812 424.01171875 156.35546875 398.676757812 c 6,58,-1
 130.08203125 373.341796875 l 5,59,-1
 130.08203125 228.8359375 l 5,60,-1
 130.08203125 84.330078125 l 5,61,-1
 116.005859375 67.439453125 l 6,62,63
 94.423828125 41.166015625 94.423828125 41.166015625 76.595703125 27.08984375 c 4,64,65
 61.58203125 13.0146484375 61.58203125 13.0146484375 51.259765625 13.0146484375 c 4,66,67
 45.6298828125 13.0146484375 45.6298828125 13.0146484375 44.69140625 17.70703125 c 4,68,69
 41.876953125 28.966796875 41.876953125 28.966796875 40 272 c 6,70,-1
 40 440.90234375 l 5,71,-1
 59.7060546875 463.422851562 l 6,72,73
 109.4375 517.846679688 109.4375 517.846679688 120.698242188 510.340820312 c 4,74,75
 128.205078125 505.6484375 128.205078125 505.6484375 129.143554688 480.3125 c 4,76,77
 130.08203125 451.223632812 130.08203125 451.223632812 132.896484375 444.655273438 c 4,78,79
 132.896484375 443.717773438 132.896484375 443.717773438 137.588867188 446.063476562 c 132,-1,80
 142.280273438 448.409179688 142.280273438 448.409179688 149.787109375 454.508789062 c 132,-1,81
 157.293945312 460.607421875 157.293945312 460.607421875 165.739257812 468.114257812 c 4,82,83
 196.705078125 497.203125 196.705078125 497.203125 204.211914062 497.203125 c 4,84,85
 212.65625 497.203125 212.65625 497.203125 215.470703125 501.89453125 c 260,86,87
 218.287109375 506.586914062 218.287109375 506.586914062 230.485351562 506.586914062 c 4,88,89
 241.745117188 506.586914062 241.745117188 506.586914062 255.8203125 518.78515625 c 4,0,1
EndSplineSet
MultipleSubs2: "Multiple Substitution lookup 2 subtable" M cartoucheMiddleTok
EndChar

StartChar: N
Encoding: 295 78 39
Width: 543
VWidth: 980
GlyphClass: 1
Flags: W
LayerCount: 2
Fore
SplineSet
85.7197265625 507.834960938 m 4,0,1
 113.559570312 528.69140625 113.559570312 528.69140625 127.959960938 528.69140625 c 4,2,3
 138.51953125 528.69140625 138.51953125 528.69140625 149.559570312 521.581054688 c 132,-1,4
 160.599609375 514.470703125 160.599609375 514.470703125 160.599609375 507.834960938 c 4,5,6
 160.599609375 502.147460938 160.599609375 502.147460938 179.799804688 476.55078125 c 132,-1,7
 199 450.955078125 199 450.955078125 221.080078125 428.202148438 c 4,8,9
 247.959960938 399.762695312 247.959960938 399.762695312 251.799804688 390.283203125 c 132,-1,10
 255.639648438 380.802734375 255.639648438 380.802734375 264.279296875 375.115234375 c 4,11,12
 272.919921875 367.53125 272.919921875 367.53125 292.120117188 342.8828125 c 4,13,14
 310.359375 317.287109375 310.359375 317.287109375 318.040039062 314.443359375 c 260,15,16
 325.719726562 311.599609375 325.719726562 311.599609375 325.719726562 304.962890625 c 260,17,18
 325.719726562 298.327148438 325.719726562 298.327148438 339.16015625 286.002929688 c 4,19,20
 357.399414062 268.939453125 357.399414062 268.939453125 391 227.2265625 c 4,21,22
 406.359375 208.266601562 406.359375 208.266601562 408.279296875 211.110351562 c 4,23,24
 410.19921875 213.006835938 410.19921875 213.006835938 411.16015625 217.747070312 c 4,25,26
 415.959960938 230.071289062 415.959960938 230.071289062 415 343.831054688 c 6,27,-1
 413.080078125 458.5390625 l 5,28,-1
 448.599609375 493.615234375 l 6,29,30
 482.19921875 529.639648438 482.19921875 529.639648438 492.759765625 527.743164062 c 4,31,32
 499.479492188 526.794921875 499.479492188 526.794921875 501.399414062 508.783203125 c 4,33,34
 503.319335938 485.083007812 503.319335938 485.083007812 504.279296875 317.287109375 c 6,35,-1
 505.239257812 106.831054688 l 5,36,-1
 493.719726562 89.7666015625 l 6,37,38
 477.399414062 66.06640625 477.399414062 66.06640625 451.959960938 43.314453125 c 132,-1,39
 426.51953125 20.5625 426.51953125 20.5625 415.959960938 20.5625 c 4,40,41
 410.19921875 20.5625 410.19921875 20.5625 395.799804688 35.7314453125 c 132,-1,42
 381.399414062 50.8994140625 381.399414062 50.8994140625 368.919921875 70.806640625 c 4,43,44
 361.239257812 82.18359375 361.239257812 82.18359375 341.080078125 103.0390625 c 4,45,46
 319.959960938 124.84375 319.959960938 124.84375 284.919921875 166.081054688 c 132,-1,47
 249.879882812 207.319335938 249.879882812 207.319335938 234.51953125 229.123046875 c 4,48,49
 216.279296875 250.926757812 216.279296875 250.926757812 199 269.887695312 c 4,50,51
 191.319335938 277.470703125 191.319335938 277.470703125 187 281.262695312 c 132,-1,52
 182.6796875 285.0546875 182.6796875 285.0546875 179.799804688 286.950195312 c 132,-1,53
 176.919921875 288.84765625 176.919921875 288.84765625 175.959960938 287.424804688 c 132,-1,54
 175 286.002929688 175 286.002929688 173.080078125 283.159179688 c 4,55,56
 171.16015625 277.470703125 171.16015625 277.470703125 167.799804688 234.336914062 c 132,-1,57
 164.439453125 191.202148438 164.439453125 191.202148438 165.399414062 176.03515625 c 4,58,59
 165.399414062 173.19140625 165.399414062 173.19140625 167.319335938 143.802734375 c 4,60,61
 169.239257812 115.362304688 169.239257812 115.362304688 164.439453125 107.779296875 c 4,62,63
 159.639648438 98.2998046875 159.639648438 98.2998046875 165.399414062 91.6630859375 c 4,64,65
 170.19921875 85.974609375 170.19921875 85.974609375 163.479492188 73.1767578125 c 132,-1,66
 156.759765625 60.37890625 156.759765625 60.37890625 145.239257812 53.7431640625 c 4,67,68
 135.639648438 49.9501953125 135.639648438 49.9501953125 135.639648438 43.314453125 c 4,69,70
 135.639648438 34.783203125 135.639648438 34.783203125 114.51953125 20.0888671875 c 132,-1,71
 93.3994140625 5.3955078125 93.3994140625 5.3955078125 80.919921875 5.3955078125 c 4,72,73
 75.16015625 5.3955078125 75.16015625 5.3955078125 73.2392578125 22.458984375 c 4,74,75
 71.3193359375 44.2626953125 71.3193359375 44.2626953125 71.3193359375 215.850585938 c 4,76,77
 70.359375 427.254882812 70.359375 427.254882812 68.439453125 430.099609375 c 4,78,79
 64.599609375 433.891601562 64.599609375 433.891601562 55.9599609375 431.047851562 c 4,80,81
 47.3193359375 429.150390625 47.3193359375 429.150390625 39.16015625 434.365234375 c 132,-1,82
 31 439.579101562 31 439.579101562 31 447.163085938 c 132,-1,83
 31 454.747070312 31 454.747070312 46.83984375 471.810546875 c 132,-1,84
 62.6796875 488.875 62.6796875 488.875 85.7197265625 507.834960938 c 4,0,1
EndSplineSet
MultipleSubs2: "Multiple Substitution lookup 2 subtable" N cartoucheMiddleTok
EndChar

StartChar: O
Encoding: 296 79 40
Width: 464
VWidth: 980
GlyphClass: 1
Flags: W
LayerCount: 2
Fore
SplineSet
261.529296875 432.66015625 m 4,0,1
 236.813476562 437.95703125 236.813476562 437.95703125 193.560546875 434.424804688 c 4,2,3
 171.493164062 432.66015625 171.493164062 432.66015625 160.901367188 423.391601562 c 132,-1,4
 150.30859375 414.123046875 150.30859375 414.123046875 140.598632812 387.642578125 c 4,5,6
 130.888671875 362.044921875 130.888671875 362.044921875 127.358398438 341.30078125 c 132,-1,7
 123.828125 320.557617188 123.828125 320.557617188 121.1796875 276.421875 c 4,8,9
 119.4140625 248.17578125 119.4140625 248.17578125 123.38671875 216.83984375 c 132,-1,10
 127.358398438 185.504882812 127.358398438 185.504882812 133.537109375 178.442382812 c 4,11,12
 137.951171875 173.146484375 137.951171875 173.146484375 137.951171875 166.084960938 c 4,13,14
 137.951171875 158.140625 137.951171875 158.140625 164.431640625 130.776367188 c 4,15,16
 181.203125 113.123046875 181.203125 113.123046875 190.470703125 107.385742188 c 132,-1,17
 199.740234375 101.6484375 199.740234375 101.6484375 216.51171875 98.1162109375 c 4,18,19
 296.836914062 82.228515625 296.836914062 82.228515625 318.021484375 132.541992188 c 4,20,21
 325.965820312 151.961914062 325.965820312 151.961914062 333.02734375 181.973632812 c 132,-1,22
 340.088867188 211.985351562 340.088867188 211.985351562 340.971679688 228.756835938 c 4,23,24
 340.971679688 245.528320312 340.971679688 245.528320312 345.384765625 252.588867188 c 4,25,26
 349.798828125 257.885742188 349.798828125 257.885742188 344.502929688 260.534179688 c 4,27,28
 340.088867188 263.181640625 340.088867188 263.181640625 340.088867188 281.71875 c 4,29,30
 340.088867188 294.958984375 340.088867188 294.958984375 334.3515625 321.881835938 c 132,-1,31
 328.61328125 348.803710938 328.61328125 348.803710938 322.435546875 363.809570312 c 4,32,33
 319.787109375 371.75390625 319.787109375 371.75390625 318.904296875 377.93359375 c 4,34,35
 313.607421875 421.185546875 313.607421875 421.185546875 261.529296875 432.66015625 c 4,0,1
102.642578125 494.450195312 m 6,36,-1
 135.301757812 528.874023438 l 5,37,-1
 216.51171875 529.756835938 l 6,38,39
 297.719726562 529.756835938 297.719726562 529.756835938 300.368164062 525.34375 c 132,-1,40
 303.015625 520.930664062 303.015625 520.930664062 325.083007812 518.282226562 c 4,41,42
 360.391601562 512.985351562 360.391601562 512.985351562 384.223632812 487.387695312 c 4,43,44
 392.16796875 478.560546875 392.16796875 478.560546875 400.553710938 458.258789062 c 132,-1,45
 408.939453125 437.95703125 408.939453125 437.95703125 408.939453125 427.364257812 c 4,46,47
 408.939453125 418.537109375 408.939453125 418.537109375 413.353515625 410.592773438 c 4,48,49
 417.766601562 404.4140625 417.766601562 404.4140625 424.828125 354.099609375 c 4,50,51
 430.124023438 319.674804688 430.124023438 319.674804688 429.682617188 306.434570312 c 132,-1,52
 429.241210938 293.193359375 429.241210938 293.193359375 423.0625 262.299804688 c 4,53,54
 411.586914062 206.689453125 411.586914062 206.689453125 400.553710938 177.559570312 c 132,-1,55
 389.51953125 148.430664062 389.51953125 148.430664062 370.983398438 122.833007812 c 4,56,57
 355.977539062 102.53125 355.977539062 102.53125 323.758789062 72.5185546875 c 132,-1,58
 291.540039062 42.5068359375 291.540039062 42.5068359375 278.30078125 35.4453125 c 4,59,60
 259.763671875 25.736328125 259.763671875 25.736328125 257.115234375 23.087890625 c 4,61,62
 250.053710938 13.3779296875 250.053710938 13.3779296875 206.80078125 7.640625 c 132,-1,63
 163.548828125 1.9033203125 163.548828125 1.9033203125 158.252929688 9.8466796875 c 4,64,65
 156.487304688 14.2607421875 156.487304688 14.2607421875 144.129882812 14.2607421875 c 4,66,67
 132.654296875 14.2607421875 132.654296875 14.2607421875 108.821289062 31.9140625 c 260,68,69
 84.9892578125 49.568359375 84.9892578125 49.568359375 75.2783203125 61.9267578125 c 132,-1,70
 65.5693359375 74.2841796875 65.5693359375 74.2841796875 49.6806640625 106.061523438 c 4,71,72
 40.8544921875 123.715820312 40.8544921875 123.715820312 36.880859375 171.380859375 c 132,-1,73
 32.9091796875 219.046875 32.9091796875 219.046875 37.322265625 251.70703125 c 4,74,75
 45.267578125 312.61328125 45.267578125 312.61328125 49.6806640625 324.970703125 c 4,76,77
 59.390625 347.920898438 59.390625 347.920898438 74.3955078125 375.284179688 c 132,-1,78
 89.40234375 402.6484375 89.40234375 402.6484375 96.462890625 411.475585938 c 4,79,80
 108.821289062 424.715820312 108.821289062 424.715820312 107.056640625 430.453125 c 132,-1,81
 105.291015625 436.19140625 105.291015625 436.19140625 88.51953125 439.721679688 c 4,82,83
 69.099609375 444.135742188 69.099609375 444.135742188 69.099609375 452.079101562 c 260,84,85
 69.099609375 460.024414062 69.099609375 460.024414062 102.642578125 494.450195312 c 6,36,-1
EndSplineSet
MultipleSubs2: "Multiple Substitution lookup 2 subtable" O cartoucheMiddleTok
EndChar

StartChar: P
Encoding: 297 80 41
Width: 345
VWidth: 980
GlyphClass: 1
Flags: W
LayerCount: 2
Fore
SplineSet
186.500976562 413.01953125 m 4,0,1
 165.743164062 432.833007812 165.743164062 432.833007812 149.704101562 432.833007812 c 4,2,3
 136.495117188 432.833007812 136.495117188 432.833007812 134.608398438 428.587890625 c 132,-1,4
 132.720703125 424.341796875 132.720703125 424.341796875 132.720703125 398.8671875 c 4,5,6
 132.720703125 396.98046875 132.720703125 396.98046875 132.720703125 369.147460938 c 132,-1,7
 132.720703125 341.314453125 132.720703125 341.314453125 132.720703125 321.500976562 c 4,8,9
 133.6640625 261.1171875 133.6640625 261.1171875 138.381835938 261.1171875 c 260,10,11
 143.098632812 261.1171875 143.098632812 261.1171875 174.234375 282.81640625 c 132,-1,12
 205.37109375 304.517578125 205.37109375 304.517578125 211.974609375 312.065429688 c 4,13,14
 217.635742188 320.556640625 217.635742188 320.556640625 220.466796875 339.426757812 c 4,15,16
 225.18359375 375.280273438 225.18359375 375.280273438 186.500976562 413.01953125 c 4,0,1
162.913085938 521.522460938 m 4,17,18
 195.935546875 538.505859375 195.935546875 538.505859375 235.5625 520.579101562 c 4,19,20
 270.471679688 504.5390625 270.471679688 504.5390625 297.833007812 465.85546875 c 4,21,22
 307.268554688 453.590820312 307.268554688 453.590820312 309.626953125 444.626953125 c 132,-1,23
 311.985351562 435.6640625 311.985351562 435.6640625 311.041992188 412.077148438 c 4,24,25
 311.041992188 378.111328125 311.041992188 378.111328125 305.381835938 372.44921875 c 4,26,27
 300.6640625 366.788085938 300.6640625 366.788085938 300.6640625 361.127929688 c 4,28,29
 300.6640625 352.635742188 300.6640625 352.635742188 281.322265625 323.859375 c 132,-1,30
 261.98046875 295.08203125 261.98046875 295.08203125 243.110351562 275.26953125 c 4,31,32
 228.013671875 258.286132812 228.013671875 258.286132812 203.955078125 239.887695312 c 132,-1,33
 179.895507812 221.489257812 179.895507812 221.489257812 174.234375 221.489257812 c 4,34,35
 170.4609375 221.489257812 170.4609375 221.489257812 152.534179688 207.336914062 c 6,36,-1
 133.6640625 192.241210938 l 5,37,-1
 133.6640625 129.969726562 l 6,38,39
 133.6640625 68.642578125 133.6640625 68.642578125 128.002929688 62.9814453125 c 4,40,41
 84.6025390625 16.75 84.6025390625 16.75 74.6953125 8.73046875 c 132,-1,42
 64.7890625 0.7109375 64.7890625 0.7109375 53.466796875 1.654296875 c 260,43,44
 42.14453125 2.59765625 42.14453125 2.59765625 40.2578125 5.4287109375 c 132,-1,45
 38.37109375 8.2587890625 38.37109375 8.2587890625 39.3134765625 20.5244140625 c 4,46,47
 40.2578125 39.39453125 40.2578125 39.39453125 40.2578125 45.0546875 c 4,48,49
 40.2578125 135.630859375 40.2578125 135.630859375 41.201171875 236.5859375 c 4,50,51
 41.201171875 421.51171875 41.201171875 421.51171875 41.201171875 435.6640625 c 4,52,53
 41.201171875 445.099609375 41.201171875 445.099609375 47.3349609375 455.004882812 c 132,-1,54
 53.466796875 464.912109375 53.466796875 464.912109375 73.2802734375 485.668945312 c 4,55,56
 94.037109375 508.313476562 94.037109375 508.313476562 103 514.91796875 c 132,-1,57
 111.963867188 521.522460938 111.963867188 521.522460938 121.399414062 521.522460938 c 4,58,59
 136.495117188 521.522460938 136.495117188 521.522460938 141.211914062 516.8046875 c 260,60,61
 145.9296875 512.087890625 145.9296875 512.087890625 162.913085938 521.522460938 c 4,17,18
EndSplineSet
MultipleSubs2: "Multiple Substitution lookup 2 subtable" P cartoucheMiddleTok
EndChar

StartChar: Q
Encoding: 298 81 42
Width: 598
VWidth: 980
GlyphClass: 1
Flags: W
LayerCount: 2
Fore
SplineSet
326.454101562 429 m 0,0,1
 269.454101562 440 269.454101562 440 256.454101562 431 c 0,2,3
 247.454101562 426 247.454101562 426 232.454101562 426 c 0,4,5
 212.454101562 426 212.454101562 426 186.954101562 404.5 c 128,-1,6
 161.454101562 383 161.454101562 383 146.454101562 352 c 0,7,8
 134.454101562 329 134.454101562 329 134.454101562 287 c 0,9,10
 134.454101562 244 134.454101562 244 142.454101562 232 c 0,11,12
 151.454101562 218 151.454101562 218 153.454101562 207 c 0,13,14
 157.454101562 194 157.454101562 194 169.454101562 179 c 0,15,16
 181.454101562 166 181.454101562 166 184.454101562 161 c 0,17,18
 186.454101562 157 186.454101562 157 208.454101562 141 c 128,-1,19
 230.454101562 125 230.454101562 125 242.454101562 119 c 0,20,21
 259.454101562 110 259.454101562 110 309.454101562 110.5 c 128,-1,22
 359.454101562 111 359.454101562 111 368.454101562 120 c 0,23,24
 374.454101562 126 374.454101562 126 373.954101562 129 c 128,-1,25
 373.454101562 132 373.454101562 132 364.454101562 140 c 0,26,27
 349.454101562 155 349.454101562 155 341.454101562 169 c 0,28,29
 334.454101562 181 334.454101562 181 334.954101562 186 c 128,-1,30
 335.454101562 191 335.454101562 191 342.454101562 205 c 0,31,32
 352.454101562 224 352.454101562 224 360.454101562 226 c 0,33,34
 367.454101562 228 367.454101562 228 381.454101562 246 c 0,35,36
 395.454101562 266 395.454101562 266 408.454101562 267.5 c 128,-1,37
 421.454101562 269 421.454101562 269 436.454101562 252 c 0,38,39
 451.454101562 234 451.454101562 234 456.454101562 242 c 0,40,41
 459.454101562 249 459.454101562 249 462.454101562 289 c 0,42,43
 465.454101562 319 465.454101562 319 458.954101562 336.5 c 128,-1,44
 452.454101562 354 452.454101562 354 430.454101562 374 c 0,45,46
 416.454101562 387 416.454101562 387 411.454101562 399 c 0,47,48
 407.454101562 410 407.454101562 410 396.454101562 410 c 0,49,50
 384.454101562 410 384.454101562 410 374.454101562 416 c 0,51,52
 363.454101562 422 363.454101562 422 326.454101562 429 c 0,0,1
269.454101562 517 m 0,53,54
 283.454101562 525 283.454101562 525 296.454101562 527 c 128,-1,55
 309.454101562 529 309.454101562 529 356.454101562 529 c 0,56,57
 423.454101562 528 423.454101562 528 425.454101562 524 c 0,58,59
 428.454101562 520 428.454101562 520 437.454101562 520 c 0,60,61
 450.454101562 520 450.454101562 520 480.954101562 501.5 c 128,-1,62
 511.454101562 483 511.454101562 483 520.454101562 470 c 0,63,64
 531.454101562 452 531.454101562 452 538.454101562 452 c 256,65,66
 545.454101562 452 545.454101562 452 554.454101562 437 c 0,67,68
 570.454101562 409 570.454101562 409 558.954101562 327.5 c 128,-1,69
 547.454101562 246 547.454101562 246 520.454101562 198 c 0,70,71
 511.454101562 181 511.454101562 181 511.454101562 174 c 0,72,73
 511.454101562 168 511.454101562 168 537.454101562 140 c 0,74,75
 563.454101562 113 563.454101562 113 563.454101562 102 c 0,76,77
 563.454101562 92 563.454101562 92 537.954101562 63.5 c 128,-1,78
 512.454101562 35 512.454101562 35 491.454101562 21 c 0,79,80
 483.454101562 15 483.454101562 15 479.454101562 16 c 128,-1,81
 475.454101562 17 475.454101562 17 466.454101562 25 c 0,82,83
 453.454101562 37 453.454101562 37 453.454101562 43 c 128,-1,84
 453.454101562 49 453.454101562 49 438.454101562 63 c 2,85,-1
 423.454101562 78 l 1,86,-1
 395.454101562 60 l 2,87,88
 312.454101562 5 312.454101562 5 222.454101562 12 c 0,89,90
 198.454101562 14 198.454101562 14 170.454101562 22 c 128,-1,91
 142.454101562 30 142.454101562 30 131.454101562 38 c 0,92,93
 114.454101562 50 114.454101562 50 91.4541015625 78 c 128,-1,94
 68.4541015625 106 68.4541015625 106 58.4541015625 126 c 0,95,96
 44.4541015625 156 44.4541015625 156 37.4541015625 183.5 c 128,-1,97
 30.4541015625 211 30.4541015625 211 34.4541015625 221 c 0,98,99
 39.4541015625 233 39.4541015625 233 39.4541015625 251 c 0,100,101
 40.4541015625 273 40.4541015625 273 46.4541015625 283 c 0,102,103
 50.4541015625 289 50.4541015625 289 66.4541015625 324 c 0,104,105
 102.454101562 400 102.454101562 400 198.454101562 477 c 0,106,107
 231.454101562 503 231.454101562 503 239.454101562 504 c 0,108,109
 247.454101562 504 247.454101562 504 269.454101562 517 c 0,53,54
EndSplineSet
MultipleSubs2: "Multiple Substitution lookup 2 subtable" Q cartoucheMiddleTok
EndChar

StartChar: R
Encoding: 299 82 43
Width: 476
VWidth: 980
GlyphClass: 1
Flags: W
LayerCount: 2
Fore
SplineSet
264.693359375 410.982421875 m 4,0,1
 232.23046875 435.09765625 232.23046875 435.09765625 186.783203125 428.60546875 c 4,2,3
 176.581054688 427.677734375 176.581054688 427.677734375 174.725585938 422.576171875 c 132,-1,4
 172.87109375 417.474609375 172.87109375 417.474609375 172.87109375 390.577148438 c 4,5,6
 171.015625 254.235351562 171.015625 254.235351562 175.653320312 250.525390625 c 4,7,8
 177.5078125 247.7421875 177.5078125 247.7421875 206.260742188 260.727539062 c 260,9,10
 235.012695312 273.712890625 235.012695312 273.712890625 244.288085938 273.712890625 c 4,11,12
 269.331054688 273.712890625 269.331054688 273.712890625 306.430664062 297.827148438 c 4,13,14
 319.416015625 306.174804688 319.416015625 306.174804688 322.198242188 310.8125 c 132,-1,15
 324.98046875 315.450195312 324.98046875 315.450195312 324.052734375 326.580078125 c 4,16,17
 318.48828125 371.099609375 318.48828125 371.099609375 264.693359375 410.982421875 c 4,0,1
94.033203125 522.282226562 m 4,18,19
 107.018554688 527.84765625 107.018554688 527.84765625 169.161132812 528.775390625 c 4,20,21
 243.360351562 529.702148438 243.360351562 529.702148438 285.561523438 519.963867188 c 132,-1,22
 327.762695312 510.224609375 327.762695312 510.224609375 356.979492188 485.182617188 c 132,-1,23
 386.1953125 460.139648438 386.1953125 460.139648438 414.020507812 410.0546875 c 4,24,25
 425.150390625 388.72265625 425.150390625 388.72265625 416.802734375 359.505859375 c 132,-1,26
 408.456054688 330.290039062 408.456054688 330.290039062 383.413085938 300.610351562 c 4,27,28
 364.86328125 280.205078125 364.86328125 280.205078125 360.225585938 269.5390625 c 132,-1,29
 355.587890625 258.872070312 355.587890625 258.872070312 362.081054688 250.525390625 c 4,30,31
 369.500976562 241.25 369.500976562 241.25 412.166015625 159.629882812 c 4,32,33
 435.353515625 116.037109375 435.353515625 116.037109375 439.063476562 111.400390625 c 4,34,35
 443.700195312 106.762695312 443.700195312 106.762695312 443.700195312 87.28515625 c 4,36,37
 443.700195312 74.2998046875 443.700195312 74.2998046875 439.52734375 67.8076171875 c 132,-1,38
 435.353515625 61.3154296875 435.353515625 61.3154296875 418.658203125 46.474609375 c 4,39,40
 388.05078125 18.650390625 388.05078125 18.650390625 385.268554688 15.8671875 c 4,41,42
 375.065429688 6.5927734375 375.065429688 6.5927734375 367.645507812 8.9111328125 c 132,-1,43
 360.225585938 11.23046875 360.225585938 11.23046875 351.877929688 28.8525390625 c 4,44,45
 340.748046875 52.9677734375 340.748046875 52.9677734375 311.068359375 106.762695312 c 4,46,47
 285.098632812 154.065429688 285.098632812 154.065429688 272.11328125 180.962890625 c 4,48,49
 266.547851562 192.092773438 266.547851562 192.092773438 262.374023438 194.411132812 c 132,-1,50
 258.200195312 196.73046875 258.200195312 196.73046875 241.505859375 194.875 c 4,51,52
 188.637695312 189.309570312 188.637695312 189.309570312 176.581054688 177.252929688 c 4,53,54
 171.943359375 172.615234375 171.943359375 172.615234375 171.015625 132.732421875 c 4,55,56
 170.087890625 90.0673828125 170.087890625 90.0673828125 168.233398438 81.7197265625 c 132,-1,57
 166.377929688 73.3720703125 166.377929688 73.3720703125 156.17578125 62.2421875 c 4,58,59
 103.30859375 2.8828125 103.30859375 2.8828125 91.2509765625 2.8828125 c 4,60,61
 85.685546875 2.8828125 85.685546875 2.8828125 83.3671875 9.8388671875 c 132,-1,62
 81.0478515625 16.794921875 81.0478515625 16.794921875 79.193359375 40.91015625 c 132,-1,63
 77.337890625 65.025390625 77.337890625 65.025390625 77.337890625 111.400390625 c 132,-1,64
 77.337890625 157.775390625 77.337890625 157.775390625 77.337890625 237.540039062 c 4,65,66
 78.265625 425.822265625 78.265625 425.822265625 74.5556640625 431.387695312 c 4,67,68
 71.7734375 437.879882812 71.7734375 437.879882812 52.2958984375 437.879882812 c 4,69,70
 29.1083984375 437.879882812 29.1083984375 437.879882812 30.0361328125 447.155273438 c 4,71,72
 30.962890625 459.212890625 30.962890625 459.212890625 68.0634765625 500.022460938 c 4,73,74
 81.0478515625 514.862304688 81.0478515625 514.862304688 94.033203125 522.282226562 c 4,18,19
EndSplineSet
MultipleSubs2: "Multiple Substitution lookup 2 subtable" R cartoucheMiddleTok
EndChar

StartChar: S
Encoding: 300 83 44
Width: 436
VWidth: 980
GlyphClass: 1
Flags: W
LayerCount: 2
Fore
SplineSet
252.373046875 512.5546875 m 4,0,1
 281.58984375 526.692382812 281.58984375 526.692382812 302.796875 528.577148438 c 132,-1,2
 324.002929688 530.462890625 324.002929688 530.462890625 350.392578125 520.094726562 c 4,3,4
 373.955078125 511.612304688 373.955078125 511.612304688 383.8515625 499.360351562 c 132,-1,5
 393.748046875 487.107421875 393.748046875 487.107421875 387.150390625 474.85546875 c 4,6,7
 380.552734375 461.66015625 380.552734375 461.66015625 355.576171875 436.68359375 c 132,-1,8
 330.600585938 411.70703125 330.600585938 411.70703125 323.060546875 411.70703125 c 260,9,10
 315.520507812 411.70703125 315.520507812 411.70703125 307.038085938 421.1328125 c 4,11,12
 298.555664062 429.615234375 298.555664062 429.615234375 274.049804688 435.741210938 c 132,-1,13
 249.544921875 441.8671875 249.544921875 441.8671875 234.46484375 439.040039062 c 4,14,15
 200.53515625 432.442382812 200.53515625 432.442382812 200.53515625 402.282226562 c 4,16,17
 200.53515625 380.60546875 200.53515625 380.60546875 214.672851562 367.41015625 c 132,-1,18
 228.810546875 354.21484375 228.810546875 354.21484375 264.625 339.134765625 c 4,19,20
 291.958007812 328.767578125 291.958007812 328.767578125 324.473632812 311.802734375 c 132,-1,21
 356.990234375 294.837890625 356.990234375 294.837890625 367.357421875 286.35546875 c 4,22,23
 394.690429688 263.735351562 394.690429688 263.735351562 400.81640625 226.505859375 c 132,-1,24
 406.942382812 189.27734375 406.942382812 189.27734375 389.03515625 155.34765625 c 4,25,26
 367.357421875 111.9921875 367.357421875 111.9921875 329.186523438 69.1083984375 c 132,-1,27
 291.015625 26.224609375 291.015625 26.224609375 263.682617188 13.97265625 c 4,28,29
 231.637695312 -0.1650390625 231.637695312 -0.1650390625 193.9375 6.9033203125 c 132,-1,30
 156.237304688 13.97265625 156.237304688 13.97265625 121.365234375 41.3046875 c 4,31,32
 93.08984375 62.982421875 93.08984375 62.982421875 87.435546875 62.982421875 c 4,33,34
 82.72265625 62.982421875 82.72265625 62.982421875 63.873046875 47.90234375 c 4,35,36
 53.5048828125 40.3623046875 53.5048828125 40.3623046875 45.494140625 37.0634765625 c 132,-1,37
 37.482421875 33.7646484375 37.482421875 33.7646484375 33.2412109375 36.5927734375 c 132,-1,38
 29 39.419921875 29 39.419921875 29 47.90234375 c 4,39,40
 29 64.8671875 29 64.8671875 81.7802734375 115.762695312 c 132,-1,41
 134.560546875 166.657226562 134.560546875 166.657226562 153.41015625 166.657226562 c 4,42,43
 161.892578125 166.657226562 161.892578125 166.657226562 167.547851562 153.462890625 c 4,44,45
 174.145507812 135.5546875 174.145507812 135.5546875 199.12109375 118.119140625 c 132,-1,46
 224.09765625 100.682617188 224.09765625 100.682617188 258.969726562 90.3154296875 c 4,47,48
 278.762695312 84.66015625 278.762695312 84.66015625 284.41796875 87.0166015625 c 132,-1,49
 290.072265625 89.3720703125 290.072265625 89.3720703125 304.209960938 108.22265625 c 4,50,51
 333.427734375 149.692382812 333.427734375 149.692382812 305.15234375 189.27734375 c 4,52,53
 290.072265625 209.0703125 290.072265625 209.0703125 283.475585938 214.724609375 c 4,54,55
 274.049804688 222.264648438 274.049804688 222.264648438 233.522460938 241.115234375 c 132,-1,56
 192.995117188 259.96484375 192.995117188 259.96484375 176.030273438 264.677734375 c 4,57,58
 157.180664062 269.389648438 157.180664062 269.389648438 140.21484375 286.826171875 c 132,-1,59
 123.25 304.262695312 123.25 304.262695312 119.48046875 321.227539062 c 4,60,61
 115.709960938 340.077148438 115.709960938 340.077148438 122.779296875 368.352539062 c 132,-1,62
 129.84765625 396.627929688 129.84765625 396.627929688 141.157226562 413.592773438 c 4,63,64
 161.892578125 442.809570312 161.892578125 442.809570312 193.466796875 471.084960938 c 132,-1,65
 225.040039062 499.360351562 225.040039062 499.360351562 252.373046875 512.5546875 c 4,0,1
EndSplineSet
MultipleSubs2: "Multiple Substitution lookup 2 subtable" S cartoucheMiddleTok
EndChar

StartChar: T
Encoding: 301 84 45
Width: 440
VWidth: 980
GlyphClass: 1
Flags: W
LayerCount: 2
Fore
SplineSet
104.530273438 522.419921875 m 260,0,1
 116.139648438 528.224609375 116.139648438 528.224609375 262.232421875 528.224609375 c 6,2,-1
 408.325195312 527.2578125 l 5,3,-1
 410.259765625 516.615234375 l 6,4,5
 411.227539062 505.97265625 411.227539062 505.97265625 387.040039062 478.8828125 c 4,6,7
 352.209960938 442.1171875 352.209960938 442.1171875 342.53515625 435.829101562 c 132,-1,8
 332.860351562 429.540039062 332.860351562 429.540039062 306.737304688 429.540039062 c 4,9,10
 275.77734375 429.540039062 275.77734375 429.540039062 272.875 425.669921875 c 4,11,12
 269.97265625 420.83203125 269.97265625 420.83203125 269.97265625 259.259765625 c 4,13,14
 269.97265625 257.325195312 269.97265625 257.325195312 269.97265625 253.455078125 c 4,15,16
 269.004882812 119.940429688 269.004882812 119.940429688 264.16796875 92.849609375 c 132,-1,17
 259.330078125 65.759765625 259.330078125 65.759765625 228.370117188 35.767578125 c 4,18,19
 226.435546875 34.7998046875 226.435546875 34.7998046875 225.467773438 33.83203125 c 4,20,21
 183.865234375 -6.802734375 183.865234375 -6.802734375 174.190429688 11.580078125 c 4,22,23
 173.22265625 12.5478515625 173.22265625 12.5478515625 173.22265625 13.5146484375 c 4,24,25
 171.288085938 18.3525390625 171.288085938 18.3525390625 174.190429688 325.049804688 c 4,26,27
 174.190429688 380.197265625 174.190429688 380.197265625 171.288085938 391.807617188 c 4,28,29
 170.3203125 395.677734375 170.3203125 395.677734375 168.869140625 404.869140625 c 132,-1,30
 167.41796875 414.059570312 167.41796875 414.059570312 166.450195312 417.9296875 c 6,31,-1
 163.547851562 430.5078125 l 5,32,-1
 104.530273438 429.540039062 l 6,33,34
 42.6103515625 428.572265625 42.6103515625 428.572265625 39.7080078125 429.540039062 c 4,35,36
 31 430.5078125 31 430.5078125 31 439.69921875 c 132,-1,37
 31 448.889648438 31 448.889648438 40.6748046875 459.532226562 c 4,38,39
 53.2529296875 474.044921875 53.2529296875 474.044921875 53.2529296875 478.3984375 c 132,-1,40
 53.2529296875 482.752929688 53.2529296875 482.752929688 73.0859375 499.68359375 c 132,-1,41
 92.919921875 516.615234375 92.919921875 516.615234375 104.530273438 522.419921875 c 260,0,1
EndSplineSet
MultipleSubs2: "Multiple Substitution lookup 2 subtable" T cartoucheMiddleTok
EndChar

StartChar: U
Encoding: 302 85 46
Width: 535
VWidth: 980
GlyphClass: 1
Flags: W
LayerCount: 2
Fore
SplineSet
459.797851562 526.647460938 m 260,0,1
 471.153320312 534.216796875 471.153320312 534.216796875 481.5625 533.271484375 c 4,2,3
 488.185546875 533.271484375 488.185546875 533.271484375 489.60546875 526.174804688 c 132,-1,4
 491.024414062 519.077148438 491.024414062 519.077148438 491.024414062 490.689453125 c 4,5,6
 491.024414062 451.891601562 491.024414062 451.891601562 488.185546875 419.71875 c 4,7,8
 485.346679688 388.491210938 485.346679688 388.491210938 489.1328125 364.833984375 c 4,9,10
 494.810546875 342.123046875 494.810546875 342.123046875 496.702148438 214.375976562 c 6,11,-1
 498.595703125 88.5224609375 l 5,12,-1
 464.529296875 55.40234375 l 6,13,14
 427.625 20.390625 427.625 20.390625 419.108398438 23.2294921875 c 132,-1,15
 410.591796875 26.068359375 410.591796875 26.068359375 407.752929688 74.328125 c 4,16,17
 403.967773438 126.372070312 403.967773438 126.372070312 399.709960938 126.372070312 c 132,-1,18
 395.451171875 126.372070312 395.451171875 126.372070312 389.7734375 116.91015625 c 4,19,20
 379.365234375 102.715820312 379.365234375 102.715820312 350.9765625 73.3818359375 c 132,-1,21
 322.587890625 44.0478515625 322.587890625 44.0478515625 306.500976562 31.7451171875 c 4,22,23
 289.467773438 18.498046875 289.467773438 18.498046875 276.220703125 13.29296875 c 132,-1,24
 262.97265625 8.087890625 262.97265625 8.087890625 236.4765625 4.3037109375 c 4,25,26
 214.712890625 1.46484375 214.712890625 1.46484375 175.442382812 18.498046875 c 132,-1,27
 136.171875 35.53125 136.171875 35.53125 121.978515625 54.4560546875 c 4,28,29
 113.461914062 66.7568359375 113.461914062 66.7568359375 98.7939453125 114.543945312 c 132,-1,30
 84.126953125 162.33203125 84.126953125 162.33203125 79.3955078125 200.181640625 c 4,31,32
 74.6640625 231.409179688 74.6640625 231.409179688 73.7177734375 302.853515625 c 132,-1,33
 72.771484375 374.296875 72.771484375 374.296875 76.556640625 386.59765625 c 6,34,-1
 81.2880859375 397.953125 l 5,35,-1
 62.3623046875 385.65234375 l 6,36,37
 43.4365234375 372.404296875 43.4365234375 372.404296875 36.8134765625 372.404296875 c 4,38,39
 33.0283203125 372.404296875 33.0283203125 372.404296875 31.6083984375 379.500976562 c 132,-1,40
 30.189453125 386.59765625 30.189453125 386.59765625 32.0810546875 395.114257812 c 132,-1,41
 33.974609375 403.630859375 33.974609375 403.630859375 37.7587890625 407.416015625 c 4,42,43
 45.330078125 413.09375 45.330078125 413.09375 45.330078125 418.771484375 c 132,-1,44
 45.330078125 424.44921875 45.330078125 424.44921875 70.4052734375 449.999023438 c 132,-1,45
 95.482421875 475.548828125 95.482421875 475.548828125 114.407226562 489.7421875 c 4,46,47
 131.440429688 502.990234375 131.440429688 502.990234375 134.279296875 505.829101562 c 4,48,49
 139.95703125 511.506835938 139.95703125 511.506835938 151.3125 515.764648438 c 132,-1,50
 162.666992188 520.0234375 162.666992188 520.0234375 171.18359375 520.0234375 c 4,51,52
 192.001953125 520.0234375 192.001953125 520.0234375 175.916015625 475.548828125 c 4,53,54
 167.399414062 454.729492188 167.399414062 454.729492188 167.399414062 364.361328125 c 132,-1,55
 167.399414062 273.991210938 167.399414062 273.991210938 175.916015625 243.7109375 c 4,56,57
 182.5390625 217.21484375 182.5390625 217.21484375 185.377929688 197.342773438 c 4,58,59
 189.163085938 179.364257812 189.163085938 179.364257812 201.46484375 151.921875 c 4,60,61
 229.853515625 96.091796875 229.853515625 96.091796875 305.555664062 100.823242188 c 4,62,63
 315.963867188 101.76953125 315.963867188 101.76953125 330.158203125 125.426757812 c 4,64,65
 349.083007812 157.599609375 349.083007812 157.599609375 360.912109375 207.752929688 c 132,-1,66
 372.740234375 257.905273438 372.740234375 257.905273438 383.149414062 355.372070312 c 4,67,68
 389.7734375 421.610351562 389.7734375 421.610351562 394.978515625 443.848632812 c 132,-1,69
 400.182617188 466.084960938 400.182617188 466.084960938 410.591796875 476.495117188 c 260,70,71
 421.000976562 486.903320312 421.000976562 486.903320312 435.1953125 503.936523438 c 4,72,73
 448.442382812 519.077148438 448.442382812 519.077148438 459.797851562 526.647460938 c 260,0,1
EndSplineSet
MultipleSubs2: "Multiple Substitution lookup 2 subtable" U cartoucheMiddleTok
EndChar

StartChar: V
Encoding: 303 86 47
Width: 420
VWidth: 980
GlyphClass: 1
Flags: W
LayerCount: 2
Fore
SplineSet
128 507 m 0,0,1
 162 530 162 530 181 528 c 2,2,-1
 199 527 l 1,3,-1
 198 501 l 2,4,5
 198 486 198 486 195 439 c 0,6,7
 191 403 191 403 197 396 c 0,8,9
 202 390 202 390 199 384 c 0,10,11
 195 377 195 377 196 257 c 128,-1,12
 197 137 197 137 201 133 c 0,13,14
 206 128 206 128 223 144 c 0,15,16
 236 155 236 155 263 179 c 2,17,-1
 286 200 l 1,18,-1
 285 310 l 2,19,20
 285 420 285 420 282 426 c 0,21,22
 276 436 276 436 312.5 475.5 c 128,-1,23
 349 515 349 515 367 516 c 0,24,25
 377 517 377 517 378 514 c 0,26,27
 383 507 383 507 384 339 c 0,28,29
 385.716796875 306.375 385.716796875 306.375 385 304 c 0,30,31
 345 207 345 207 279 134 c 0,32,33
 253.15234375 106.321289062 253.15234375 106.321289062 238 95 c 0,34,35
 221 75 221 75 188.5 48 c 128,-1,36
 156 21 156 21 140 13 c 256,37,38
 124 5 124 5 110.5 4.5 c 128,-1,39
 97 4 97 4 97 11 c 0,40,41
 96 35 96 35 97.5 216.5 c 128,-1,42
 99 398 99 398 100 402 c 0,43,44
 105 414 105 414 92 413 c 0,45,46
 84 412 84 412 69 404 c 0,47,48
 51 395 51 395 40.5 396 c 128,-1,49
 30 397 30 397 30 407 c 0,50,51
 30 416 30 416 64.5 451.5 c 128,-1,52
 99 487 99 487 128 507 c 0,0,1
EndSplineSet
MultipleSubs2: "Multiple Substitution lookup 2 subtable" V cartoucheMiddleTok
EndChar

StartChar: W
Encoding: 304 87 48
Width: 599
VWidth: 980
GlyphClass: 1
Flags: W
LayerCount: 2
Fore
SplineSet
128 507 m 0,0,1
 162 530 162 530 181 528 c 2,2,-1
 199 527 l 1,3,-1
 198 501 l 2,4,5
 198 486 198 486 195 439 c 0,6,7
 191 403 191 403 197 396 c 0,8,9
 202 390 202 390 199 384 c 0,10,11
 195 377 195 377 196 257 c 128,-1,12
 197 137 197 137 201 133 c 0,13,14
 206 128 206 128 223 144 c 0,15,16
 236 155 236 155 263 179 c 2,17,-1
 286 200 l 1,18,-1
 285 310 l 2,19,20
 285 420 285 420 282 426 c 0,21,22
 276 436 276 436 312.5 475.5 c 128,-1,23
 349 515 349 515 367 516 c 0,24,25
 377 517 377 517 378 514 c 0,26,27
 383 507 383 507 384 339 c 0,28,29
 385 320 385 320 385 304 c 0,30,31
 386 133 386 133 392 131 c 256,32,33
 398 129 398 129 413 141 c 0,34,35
 417 145 417 145 428.5 154.5 c 128,-1,36
 440 164 440 164 444 167 c 2,37,-1
 459 180 l 1,38,-1
 460 313 l 2,39,40
 460 403 460 403 462 427 c 128,-1,41
 464 451 464 451 470 461 c 0,42,43
 490 492 490 492 515 512.5 c 128,-1,44
 540 533 540 533 552 528 c 0,45,46
 558 526 558 526 559 499 c 128,-1,47
 560 472 560 472 560 369 c 2,48,-1
 560 213 l 1,49,-1
 546 196 l 2,50,51
 529 176 529 176 506.5 155 c 128,-1,52
 484 134 484 134 478 134 c 0,53,54
 471 134 471 134 442 107 c 0,55,56
 406 73 406 73 366.5 45 c 128,-1,57
 327 17 327 17 309 12 c 0,58,59
 294 9 294 9 289.5 19.5 c 128,-1,60
 285 30 285 30 286 65 c 0,61,62
 291 134 291 134 279 134 c 0,63,64
 272 134 272 134 238 95 c 0,65,66
 221 75 221 75 188.5 48 c 128,-1,67
 156 21 156 21 140 13 c 256,68,69
 124 5 124 5 110.5 4.5 c 128,-1,70
 97 4 97 4 97 11 c 0,71,72
 96 35 96 35 97.5 216.5 c 128,-1,73
 99 398 99 398 100 402 c 0,74,75
 105 414 105 414 92 413 c 0,76,77
 84 412 84 412 69 404 c 0,78,79
 51 395 51 395 40.5 396 c 128,-1,80
 30 397 30 397 30 407 c 0,81,82
 30 416 30 416 64.5 451.5 c 128,-1,83
 99 487 99 487 128 507 c 0,0,1
EndSplineSet
MultipleSubs2: "Multiple Substitution lookup 2 subtable" W cartoucheMiddleTok
EndChar

StartChar: X
Encoding: 305 88 49
Width: 508
VWidth: 980
GlyphClass: 1
Flags: W
LayerCount: 2
Fore
SplineSet
141.993164062 518.9921875 m 4,0,1
 158.958984375 529.360351562 158.958984375 529.360351562 164.61328125 529.360351562 c 260,2,3
 170.268554688 529.360351562 170.268554688 529.360351562 192.888671875 496.372070312 c 4,4,5
 256.036132812 404.0078125 256.036132812 404.0078125 264.518554688 397.41015625 c 4,6,7
 268.288085938 394.58203125 268.288085938 394.58203125 277.713867188 377.6171875 c 4,8,9
 298.448242188 338.032226562 298.448242188 338.032226562 306.930664062 338.032226562 c 4,10,11
 311.643554688 338.032226562 311.643554688 338.032226562 334.734375 367.25 c 132,-1,12
 357.826171875 396.467773438 357.826171875 396.467773438 384.215820312 436.052734375 c 4,13,14
 395.526367188 453.017578125 395.526367188 453.017578125 427.099609375 481.29296875 c 132,-1,15
 458.673828125 509.567382812 458.673828125 509.567382812 466.213867188 509.567382812 c 4,16,17
 470.92578125 509.567382812 470.92578125 509.567382812 470.92578125 492.602539062 c 260,18,19
 470.92578125 475.637695312 470.92578125 475.637695312 428.513671875 416.259765625 c 4,20,21
 342.74609375 299.389648438 342.74609375 299.389648438 342.74609375 292.79296875 c 260,22,23
 342.74609375 286.1953125 342.74609375 286.1953125 386.100585938 223.990234375 c 4,24,25
 431.340820312 157.072265625 431.340820312 157.072265625 434.168945312 152.360351562 c 4,26,27
 440.765625 141.9921875 440.765625 141.9921875 441.708984375 141.9921875 c 4,28,29
 448.305664062 135.39453125 448.305664062 135.39453125 461.97265625 114.188476562 c 132,-1,30
 475.638671875 92.982421875 475.638671875 92.982421875 475.638671875 90.1552734375 c 4,31,32
 475.638671875 83.5576171875 475.638671875 83.5576171875 443.122070312 51.5126953125 c 132,-1,33
 410.606445312 19.4677734375 410.606445312 19.4677734375 401.180664062 15.697265625 c 4,34,35
 390.813476562 12.8701171875 390.813476562 12.8701171875 382.331054688 24.1796875 c 4,36,37
 372.90625 36.4326171875 372.90625 36.4326171875 372.90625 42.087890625 c 260,38,39
 372.90625 47.7421875 372.90625 47.7421875 364.423828125 54.33984375 c 4,40,41
 356.883789062 60.9375 356.883789062 60.9375 346.515625 76.017578125 c 4,42,43
 325.78125 106.177734375 325.78125 106.177734375 296.091796875 146.233398438 c 132,-1,44
 266.403320312 186.290039062 266.403320312 186.290039062 264.518554688 186.290039062 c 4,45,46
 261.69140625 186.290039062 261.69140625 186.290039062 240.013671875 158.014648438 c 4,47,48
 222.106445312 133.509765625 222.106445312 133.509765625 215.508789062 126.912109375 c 4,49,50
 210.795898438 124.084960938 210.795898438 124.084960938 198.543945312 102.407226562 c 4,51,52
 185.348632812 81.6728515625 185.348632812 81.6728515625 145.291992188 43.0302734375 c 132,-1,53
 105.236328125 4.3876953125 105.236328125 4.3876953125 96.75390625 4.3876953125 c 4,54,55
 89.2138671875 4.3876953125 89.2138671875 4.3876953125 88.271484375 13.8125 c 132,-1,56
 87.328125 23.2373046875 87.328125 23.2373046875 93.92578125 35.490234375 c 4,57,58
 100.5234375 46.7998046875 100.5234375 46.7998046875 140.108398438 99.580078125 c 4,59,60
 183.463867188 159.900390625 183.463867188 159.900390625 191.00390625 172.15234375 c 4,61,62
 201.37109375 190.059570312 201.37109375 190.059570312 205.140625 191.9453125 c 260,63,64
 208.911132812 193.830078125 208.911132812 193.830078125 222.106445312 212.208984375 c 132,-1,65
 235.30078125 230.587890625 235.30078125 230.587890625 235.30078125 234.357421875 c 4,66,67
 235.30078125 239.0703125 235.30078125 239.0703125 227.760742188 245.66796875 c 4,68,69
 214.56640625 256.03515625 214.56640625 256.03515625 188.17578125 298.447265625 c 4,70,71
 184.40625 305.044921875 184.40625 305.044921875 166.498046875 328.607421875 c 4,72,73
 150.475585938 348.400390625 150.475585938 348.400390625 141.993164062 365.365234375 c 4,74,75
 134.453125 380.4453125 134.453125 380.4453125 114.661132812 401.1796875 c 6,76,-1
 93.92578125 422.857421875 l 5,77,-1
 71.3056640625 404.950195312 l 6,78,79
 48.685546875 387.04296875 48.685546875 387.04296875 41.146484375 387.04296875 c 4,80,81
 32.6630859375 387.04296875 32.6630859375 387.04296875 31.25 395.525390625 c 132,-1,82
 29.8359375 404.0078125 29.8359375 404.0078125 36.43359375 414.375 c 4,83,84
 45.8583984375 429.455078125 45.8583984375 429.455078125 86.857421875 469.51171875 c 132,-1,85
 127.856445312 509.567382812 127.856445312 509.567382812 141.993164062 518.9921875 c 4,0,1
EndSplineSet
MultipleSubs2: "Multiple Substitution lookup 2 subtable" X cartoucheMiddleTok
EndChar

StartChar: Y
Encoding: 306 89 50
Width: 458
VWidth: 980
GlyphClass: 1
Flags: W
LayerCount: 2
Fore
SplineSet
78.0830078125 509.923828125 m 4,0,1
 93.4052734375 526.204101562 93.4052734375 526.204101562 106.333984375 527.162109375 c 132,-1,2
 119.263671875 528.120117188 119.263671875 528.120117188 125.966796875 514.712890625 c 4,3,4
 131.712890625 503.219726562 131.712890625 503.219726562 154.697265625 479.755859375 c 132,-1,5
 177.681640625 456.29296875 177.681640625 456.29296875 177.681640625 452.94140625 c 132,-1,6
 177.681640625 449.58984375 177.681640625 449.58984375 186.30078125 440.012695312 c 4,7,8
 199.708984375 425.647460938 199.708984375 425.647460938 215.032226562 406.493164062 c 4,9,10
 239.931640625 376.805664062 239.931640625 376.805664062 246.635742188 370.1015625 c 6,11,-1
 258.126953125 357.651367188 l 5,12,-1
 272.493164062 374.889648438 l 6,13,14
 283.02734375 388.296875 283.02734375 388.296875 302.181640625 409.366210938 c 4,15,16
 317.504882812 426.60546875 317.504882812 426.60546875 317.504882812 432.350585938 c 260,17,18
 317.504882812 438.096679688 317.504882812 438.096679688 321.334960938 440.012695312 c 260,19,20
 325.166015625 441.927734375 325.166015625 441.927734375 344.3203125 462.997070312 c 4,21,22
 364.430664062 486.939453125 364.430664062 486.939453125 390.2890625 508.0078125 c 4,23,24
 409.442382812 524.2890625 409.442382812 524.2890625 414.708984375 526.204101562 c 132,-1,25
 419.9765625 528.120117188 419.9765625 528.120117188 424.765625 522.374023438 c 4,26,27
 431.469726562 513.754882812 431.469726562 513.754882812 422.850585938 497.473632812 c 4,28,29
 413.2734375 481.193359375 413.2734375 481.193359375 412.315429688 479.27734375 c 4,30,31
 408.485351562 476.404296875 408.485351562 476.404296875 387.415039062 446.715820312 c 4,32,33
 364.430664062 416.0703125 364.430664062 416.0703125 362.515625 414.154296875 c 4,34,35
 357.727539062 410.32421875 357.727539062 410.32421875 344.3203125 392.127929688 c 4,36,37
 335.701171875 379.677734375 335.701171875 379.677734375 311.758789062 349.032226562 c 6,38,-1
 292.604492188 327.004882812 l 5,39,-1
 292.604492188 200.590820312 l 5,40,-1
 292.604492188 76.0908203125 l 5,41,-1
 261.000976562 43.5302734375 l 6,42,43
 222.693359375 4.263671875 222.693359375 4.263671875 213.116210938 7.1376953125 c 4,44,45
 200.666992188 10.96875 200.666992188 10.96875 199.708984375 86.6259765625 c 4,46,47
 198.750976562 100.033203125 198.750976562 100.033203125 198.750976562 123.018554688 c 4,48,49
 197.793945312 193.88671875 197.793945312 193.88671875 195.877929688 212.561523438 c 132,-1,50
 193.961914062 231.236328125 193.961914062 231.236328125 187.258789062 240.813476562 c 4,51,52
 177.681640625 254.220703125 177.681640625 254.220703125 177.681640625 257.094726562 c 260,53,54
 177.681640625 259.966796875 177.681640625 259.966796875 163.31640625 279.12109375 c 132,-1,55
 148.951171875 298.275390625 148.951171875 298.275390625 136.501953125 311.682617188 c 260,56,57
 124.051757812 325.08984375 124.051757812 325.08984375 109.686523438 345.201171875 c 4,58,59
 94.36328125 366.270507812 94.36328125 366.270507812 67.5478515625 395.001953125 c 4,60,61
 34.986328125 430.435546875 34.986328125 430.435546875 31.634765625 440.970703125 c 132,-1,62
 28.2822265625 451.50390625 28.2822265625 451.50390625 42.6474609375 470.658203125 c 4,63,64
 57.970703125 489.8125 57.970703125 489.8125 78.0830078125 509.923828125 c 4,0,1
EndSplineSet
MultipleSubs2: "Multiple Substitution lookup 2 subtable" Y cartoucheMiddleTok
EndChar

StartChar: Z
Encoding: 307 90 51
Width: 545
VWidth: 980
GlyphClass: 1
Flags: W
LayerCount: 2
Fore
SplineSet
108.774414062 526.186523438 m 4,0,1
 122.165039062 535.45703125 122.165039062 535.45703125 133.494140625 531.336914062 c 4,2,3
 143.794921875 528.247070312 143.794921875 528.247070312 155.125 529.276367188 c 4,4,5
 176.754882812 530.306640625 176.754882812 530.306640625 317.349609375 530.306640625 c 132,-1,6
 457.944335938 530.306640625 457.944335938 530.306640625 461.034179688 529.276367188 c 4,7,8
 466.184570312 526.186523438 466.184570312 526.186523438 476.484375 530.306640625 c 4,9,10
 487.814453125 533.396484375 487.814453125 533.396484375 502.234375 526.186523438 c 4,11,12
 511.504882812 522.06640625 511.504882812 522.06640625 513.564453125 517.946289062 c 132,-1,13
 515.625 513.827148438 515.625 513.827148438 513.564453125 504.556640625 c 4,14,15
 507.384765625 479.836914062 507.384765625 479.836914062 402.32421875 366.537109375 c 4,16,17
 372.454101562 334.606445312 372.454101562 334.606445312 372.454101562 327.396484375 c 4,18,19
 372.454101562 321.216796875 372.454101562 321.216796875 386.875 320.186523438 c 4,20,21
 415.71484375 316.06640625 415.71484375 316.06640625 390.994140625 286.196289062 c 4,22,23
 382.754882812 275.896484375 382.754882812 275.896484375 367.3046875 261.4765625 c 4,24,25
 339.494140625 233.666992188 339.494140625 233.666992188 330.224609375 229.03125 c 132,-1,26
 320.954101562 224.396484375 320.954101562 224.396484375 300.354492188 224.396484375 c 6,27,-1
 271.514648438 224.396484375 l 5,28,-1
 222.07421875 173.926757812 l 6,29,30
 181.904296875 133.756835938 181.904296875 133.756835938 172.634765625 121.912109375 c 132,-1,31
 163.364257812 110.06640625 163.364257812 110.06640625 166.454101562 104.916992188 c 4,32,33
 169.544921875 100.796875 169.544921875 100.796875 332.284179688 100.796875 c 4,34,35
 453.82421875 100.796875 453.82421875 100.796875 474.424804688 99.251953125 c 132,-1,36
 495.024414062 97.70703125 495.024414062 97.70703125 495.024414062 89.466796875 c 4,37,38
 495.024414062 78.13671875 495.024414062 78.13671875 479.57421875 62.6865234375 c 260,39,40
 464.125 47.236328125 464.125 47.236328125 462.064453125 43.1171875 c 4,41,42
 461.034179688 40.0263671875 461.034179688 40.0263671875 438.375 22.5166015625 c 6,43,-1
 416.744140625 3.9765625 l 5,44,-1
 225.165039062 2.9462890625 l 6,45,46
 93.32421875 1.9169921875 93.32421875 1.9169921875 62.939453125 2.9462890625 c 132,-1,47
 32.5546875 3.9765625 32.5546875 3.9765625 30.494140625 11.1865234375 c 4,48,49
 24.314453125 30.7568359375 24.314453125 30.7568359375 95.384765625 105.946289062 c 4,50,51
 189.114257812 205.856445312 189.114257812 205.856445312 193.234375 216.15625 c 4,52,53
 196.32421875 223.3671875 196.32421875 223.3671875 187.0546875 224.396484375 c 4,54,55
 184.994140625 224.396484375 184.994140625 224.396484375 171.604492188 224.396484375 c 4,56,57
 146.884765625 224.396484375 146.884765625 224.396484375 143.794921875 229.546875 c 4,58,59
 139.674804688 236.756835938 139.674804688 236.756835938 168.514648438 270.747070312 c 132,-1,60
 197.354492188 304.736328125 197.354492188 304.736328125 207.654296875 304.736328125 c 4,61,62
 210.744140625 304.736328125 210.744140625 304.736328125 225.165039062 315.037109375 c 4,63,64
 238.5546875 326.3671875 238.5546875 326.3671875 263.274414062 322.247070312 c 4,65,66
 280.784179688 320.186523438 280.784179688 320.186523438 287.479492188 322.247070312 c 132,-1,67
 294.174804688 324.306640625 294.174804688 324.306640625 304.474609375 335.63671875 c 4,68,69
 332.284179688 362.416992188 332.284179688 362.416992188 357.51953125 390.2265625 c 132,-1,70
 382.754882812 418.037109375 382.754882812 418.037109375 382.754882812 422.15625 c 4,71,72
 382.754882812 428.336914062 382.754882812 428.336914062 208.684570312 428.336914062 c 4,73,74
 52.125 428.336914062 52.125 428.336914062 38.734375 433.486328125 c 4,75,76
 29.46484375 437.606445312 29.46484375 437.606445312 38.734375 455.1171875 c 4,77,78
 40.794921875 458.20703125 40.794921875 458.20703125 41.82421875 459.236328125 c 4,79,80
 48.0048828125 470.56640625 48.0048828125 470.56640625 70.1494140625 493.2265625 c 132,-1,81
 92.294921875 515.88671875 92.294921875 515.88671875 108.774414062 526.186523438 c 4,0,1
EndSplineSet
MultipleSubs2: "Multiple Substitution lookup 2 subtable" Z cartoucheMiddleTok
EndChar

StartChar: bracketleft
Encoding: 308 91 52
Width: 772
GlyphClass: 1
Flags: W
LayerCount: 2
Fore
SplineSet
159.727539062 898 m 0,0,1
 164.727539062 902 164.727539062 902 444.727539062 903 c 2,2,-1
 723.727539062 904 l 1,3,-1
 726.727539062 888 l 2,4,5
 730.727539062 871 730.727539062 871 730.227539062 842 c 128,-1,6
 729.727539062 813 729.727539062 813 725.727539062 807 c 0,7,8
 721.727539062 800 721.727539062 800 463.227539062 801.5 c 128,-1,9
 204.727539062 803 204.727539062 803 201.727539062 796 c 0,10,11
 198.727539062 788 198.727539062 788 199.227539062 278 c 128,-1,12
 199.727539062 -232 199.727539062 -232 202.727539062 -246 c 2,13,-1
 205.727539062 -262 l 1,14,-1
 463.727539062 -262 l 2,15,16
 720.727539062 -261 720.727539062 -261 725.727539062 -269 c 256,17,18
 730.727539062 -277 730.727539062 -277 730.227539062 -314 c 128,-1,19
 729.727539062 -351 729.727539062 -351 724.727539062 -354 c 0,20,21
 718.727539062 -358 718.727539062 -358 389.227539062 -358 c 128,-1,22
 59.7275390625 -358 59.7275390625 -358 53.7275390625 -354 c 0,23,24
 40.7275390625 -346 40.7275390625 -346 59.7275390625 -328 c 0,25,26
 71.7275390625 -316 71.7275390625 -316 87.7275390625 -297 c 2,27,-1
 103.727539062 -277 l 1,28,-1
 103.727539062 243 l 2,29,30
 103.727539062 763 103.727539062 763 98.7275390625 766 c 0,31,32
 95.7275390625 770 95.7275390625 770 73.7275390625 761 c 0,33,34
 48.7275390625 751 48.7275390625 751 44.2275390625 755.5 c 128,-1,35
 39.7275390625 760 39.7275390625 760 51.7275390625 785 c 0,36,37
 56.7275390625 795 56.7275390625 795 97.7275390625 838 c 128,-1,38
 138.727539062 881 138.727539062 881 159.727539062 898 c 0,0,1
EndSplineSet
Validated: 33
Substitution2: "'liga' Standard Ligatures in Latin lookup 1 subtable" cartoucheStartTok
EndChar

StartChar: bracketright
Encoding: 309 93 53
Width: 786
GlyphClass: 1
Flags: W
LayerCount: 2
Fore
SplineSet
46 901 m 0,0,1
 50 905 50 905 260.5 902.5 c 128,-1,2
 471 900 471 900 492 895 c 0,3,4
 516 890 516 890 529 882 c 0,5,6
 538 876 538 876 569 832 c 128,-1,7
 600 788 600 788 600 781 c 0,8,9
 600 776 600 776 626 723 c 0,10,11
 652 671 652 671 652 668 c 0,12,13
 652 666 652 666 664 638 c 256,14,15
 676 610 676 610 686 579 c 0,16,17
 695 550 695 550 705 526 c 0,18,19
 716 504 716 504 712 498 c 0,20,21
 708 493 708 493 713 486 c 0,22,23
 719 479 719 479 734 396 c 0,24,25
 741 357 741 357 743 302.5 c 128,-1,26
 745 248 745 248 740 245 c 0,27,28
 736 242 736 242 737 239 c 0,29,30
 740 234 740 234 732 176.5 c 128,-1,31
 724 119 724 119 717 92 c 0,32,33
 715 81 715 81 711 64.5 c 128,-1,34
 707 48 707 48 706 45 c 0,35,36
 703 32 703 32 698 19 c 0,37,38
 681 -22 681 -22 665 -54 c 0,39,40
 652 -83 652 -83 652 -89.5 c 128,-1,41
 652 -96 652 -96 647 -96 c 128,-1,42
 642 -96 642 -96 642 -106 c 0,43,44
 642 -115 642 -115 634 -122 c 128,-1,45
 626 -129 626 -129 626 -132.5 c 128,-1,46
 626 -136 626 -136 603.5 -175 c 128,-1,47
 581 -214 581 -214 569 -231 c 0,48,49
 556 -250 556 -250 529.5 -281 c 128,-1,50
 503 -312 503 -312 499 -314 c 0,51,52
 494 -316 494 -316 473 -335 c 0,53,54
 451 -355 451 -355 433 -358 c 0,55,56
 414 -362 414 -362 287 -360 c 0,57,58
 146 -359 146 -359 102 -359 c 2,59,-1
 45 -359 l 1,60,-1
 44 -315 l 2,61,62
 42 -272 42 -272 46 -267 c 0,63,64
 51 -262 51 -262 233 -256 c 0,65,66
 244 -255 244 -255 358 -259 c 2,67,-1
 473 -263 l 1,68,-1
 490 -249 l 2,69,70
 506 -235 506 -235 506 -231 c 0,71,72
 506 -226 506 -226 526 -194 c 0,73,74
 546 -160 546 -160 592 -65 c 0,75,76
 600 -48 600 -48 600 -35 c 0,77,78
 600 -24 600 -24 605 -21 c 0,79,80
 609 -18 609 -18 613 2 c 0,81,82
 617 23 617 23 621 27 c 0,83,84
 625 33 625 33 627 53 c 0,85,86
 635 91 635 91 636 99 c 0,87,88
 644 136 644 136 642 239 c 128,-1,89
 640 342 640 342 632 355 c 0,90,91
 628 360 628 360 627 378 c 256,92,93
 626 396 626 396 621 407 c 0,94,95
 617 417 617 417 605 456 c 0,96,97
 591 507 591 507 579 530 c 0,98,99
 574 540 574 540 574 545 c 0,100,101
 574 549 574 549 561 577 c 0,102,103
 548 607 548 607 539 628 c 0,104,105
 530 651 530 651 527 654 c 256,106,107
 524 657 524 657 513 680 c 0,108,109
 489 727 489 727 476.5 745.5 c 128,-1,110
 464 764 464 764 450 769 c 0,111,112
 438 774 438 774 438 784 c 256,113,114
 438 794 438 794 430 797 c 256,115,116
 422 800 422 800 232 800 c 2,117,-1
 43 801 l 1,118,-1
 43 849 l 2,119,120
 43 898 43 898 46 901 c 0,0,1
EndSplineSet
Validated: 33
Substitution2: "'liga' Standard Ligatures in Latin lookup 1 subtable" cartoucheEndTok
EndChar

StartChar: underscore
Encoding: 311 95 55
Width: 0
GlyphClass: 1
Flags: W
LayerCount: 2
Fore
SplineSet
-919.33984375 -222 m 0,0,1
 -919 -219 -919 -219 -909.69140625 -217.5 c 0,2,3
 -901 -216 -901 -216 -862.107421875 -215 c 0,4,5
 -547 -206 -547 -206 -74 -215 c 0,6,7
 -16 -216 -16 -216 -2.5 -217.5 c 128,-1,8
 11 -219 11 -219 12 -222 c 0,9,10
 16 -232 16 -232 15.5 -267 c 0,11,12
 15 -303 15 -303 11 -305 c 0,13,14
 6 -307 6 -307 -395.375 -307 c 0,15,16
 -916 -307 -916 -307 -918.674804688 -305 c 0,17,18
 -922 -302 -922 -302 -921.668945312 -267 c 0,19,20
 -921 -232 -921 -232 -919.33984375 -222 c 0,0,1
-919.33984375 888 m 2,21,-1
 -917.344726562 904 l 1,22,-1
 -500 904 l 1,23,-1
 9 904 l 1,24,-1
 12 888 l 2,25,26
 16 867 16 867 16 852 c 0,27,28
 16 837.333333333 16 837.333333333 12 816 c 2,29,-1
 9 800 l 1,30,-1
 -500 800 l 1,31,-1
 -917.344726562 800 l 1,32,-1
 -919.33984375 816 l 2,33,34
 -922 835 -922 835 -922.002929688 852 c 128,-1,35
 -922 869 -922 869 -919.33984375 888 c 2,21,-1
EndSplineSet
MultipleSubs2: "Multiple Substitution lookup 2 subtable" underscore cartoucheMiddleTok
EndChar

StartChar: a
Encoding: 312 97 56
Width: 538
VWidth: 980
GlyphClass: 1
Flags: W
LayerCount: 2
Fore
SplineSet
288 356.224609375 m 4,0,1
 269.5 394.150390625 269.5 394.150390625 263.025390625 371.950195312 c 4,2,3
 260.25 362.700195312 260.25 362.700195312 240.825195312 325.700195312 c 4,4,5
 222.325195312 287.775390625 222.325195312 287.775390625 222.325195312 281.299804688 c 260,6,7
 222.325195312 274.825195312 222.325195312 274.825195312 267.650390625 274.825195312 c 260,8,9
 312.975585938 274.825195312 312.975585938 274.825195312 315.75 278.525390625 c 4,10,11
 317.600585938 281.299804688 317.600585938 281.299804688 309.275390625 301.650390625 c 4,12,13
 300.025390625 319.224609375 300.025390625 319.224609375 299.100585938 327.549804688 c 4,14,15
 299.100585938 334.950195312 299.100585938 334.950195312 288 356.224609375 c 4,0,1
241.75 526.424804688 m 4,16,17
 249.150390625 529.200195312 249.150390625 529.200195312 285.225585938 529.200195312 c 132,-1,18
 321.299804688 529.200195312 321.299804688 529.200195312 326.850585938 525.5 c 4,19,20
 332.400390625 522.724609375 332.400390625 522.724609375 342.575195312 500.525390625 c 6,21,22
 342.575195312 500.525390625 342.575195312 500.525390625 369.400390625 447.799804688 c 4,23,24
 385.125 417.275390625 385.125 417.275390625 385.125 407.099609375 c 4,25,26
 386.049804688 396 386.049804688 396 395.299804688 381.200195312 c 4,27,28
 405.475585938 365.474609375 405.475585938 365.474609375 405.475585938 358.075195312 c 4,29,30
 405.475585938 349.75 405.475585938 349.75 412.875 335.875 c 4,31,32
 426.75 309.049804688 426.75 309.049804688 438.775390625 278.525390625 c 4,33,34
 448.950195312 252.625 448.950195312 252.625 448.950195312 244.299804688 c 260,35,36
 448.950195312 235.974609375 448.950195312 235.974609375 452.650390625 235.974609375 c 260,37,38
 456.350585938 235.974609375 456.350585938 235.974609375 464.674804688 211 c 4,39,40
 476.700195312 176.775390625 476.700195312 176.775390625 491.5 142.549804688 c 4,41,42
 501.674804688 121.275390625 501.674804688 121.275390625 505.375 98.150390625 c 4,43,44
 506.299804688 84.275390625 506.299804688 84.275390625 503.987304688 76.875 c 132,-1,45
 501.674804688 69.474609375 501.674804688 69.474609375 489.650390625 53.75 c 4,46,47
 476.700195312 36.1748046875 476.700195312 36.1748046875 459.125 20.4501953125 c 132,-1,48
 441.549804688 4.724609375 441.549804688 4.724609375 434.150390625 4.724609375 c 4,49,50
 430.450195312 4.724609375 430.450195312 4.724609375 412.875 40.337890625 c 132,-1,51
 395.299804688 75.9501953125 395.299804688 75.9501953125 395.299804688 83.349609375 c 4,52,53
 395.299804688 89.8251953125 395.299804688 89.8251953125 383.275390625 112.487304688 c 132,-1,54
 371.25 135.150390625 371.25 135.150390625 371.25 146.25 c 4,55,56
 371.25 155.5 371.25 155.5 362 172.150390625 c 6,57,-1
 352.75 186.950195312 l 5,58,-1
 265.799804688 186.950195312 l 5,59,-1
 178.850585938 186.950195312 l 5,60,-1
 166.825195312 171.224609375 l 6,61,62
 154.799804688 155.5 154.799804688 155.5 154.799804688 151.799804688 c 4,63,64
 154.799804688 149.025390625 154.799804688 149.025390625 147.400390625 131.450195312 c 132,-1,65
 140 113.875 140 113.875 135.375 105.549804688 c 4,66,67
 131.674804688 100 131.674804688 100 122.424804688 81.5 c 4,68,69
 112.25 62.0751953125 112.25 62.0751953125 82.1875 33.400390625 c 132,-1,70
 52.125 4.724609375 52.125 4.724609375 41.025390625 4.724609375 c 4,71,72
 29 4.724609375 29 4.724609375 29 13.0498046875 c 4,73,74
 29 23.224609375 29 23.224609375 65.0751953125 94.4501953125 c 4,75,76
 164.049804688 295.174804688 164.049804688 295.174804688 164.049804688 302.575195312 c 4,77,78
 164.049804688 308.125 164.049804688 308.125 169.137695312 308.125 c 132,-1,79
 174.225585938 308.125 174.225585938 308.125 174.225585938 317.375 c 4,80,81
 174.225585938 325.700195312 174.225585938 325.700195312 181.163085938 332.174804688 c 132,-1,82
 188.100585938 338.650390625 188.100585938 338.650390625 188.100585938 344.200195312 c 4,83,84
 188.100585938 350.674804688 188.100585938 350.674804688 210.299804688 393.224609375 c 4,85,86
 226.025390625 423.75 226.025390625 423.75 227.875 430.224609375 c 132,-1,87
 229.725585938 436.700195312 229.725585938 436.700195312 221.400390625 439.474609375 c 4,88,89
 211.225585938 443.174804688 211.225585938 443.174804688 202.900390625 440.400390625 c 4,90,91
 193.650390625 437.625 193.650390625 437.625 181.625 443.174804688 c 4,92,93
 172.375 446.875 172.375 446.875 171.450195312 449.1875 c 132,-1,94
 170.525390625 451.5 170.525390625 451.5 175.150390625 458.900390625 c 4,95,96
 183.475585938 470.924804688 183.475585938 470.924804688 209.375 497.287109375 c 132,-1,97
 235.275390625 523.650390625 235.275390625 523.650390625 241.75 526.424804688 c 4,16,17
EndSplineSet
MultipleSubs2: "Multiple Substitution lookup 2 subtable" a cartoucheMiddleTok
Substitution2: "'liga' Standard Ligatures in Latin lookup 1 subtable" aTok
EndChar

StartChar: b
Encoding: 313 98 57
Width: 519
VWidth: 980
GlyphClass: 1
Flags: W
LayerCount: 2
Fore
SplineSet
318.184570312 192.58203125 m 260,0,1
 308.643554688 198.306640625 308.643554688 198.306640625 291.946289062 198.784179688 c 132,-1,2
 275.25 199.260742188 275.25 199.260742188 231.361328125 197.352539062 c 4,3,4
 190.3359375 194.490234375 190.3359375 194.490234375 186.518554688 189.719726562 c 4,5,6
 181.749023438 184.948242188 181.749023438 184.948242188 178.885742188 146.30859375 c 132,-1,7
 176.0234375 107.666992188 176.0234375 107.666992188 179.83984375 104.8046875 c 4,8,9
 186.518554688 100.98828125 186.518554688 100.98828125 265.708984375 102.418945312 c 132,-1,10
 344.899414062 103.850585938 344.899414062 103.850585938 363.981445312 108.62109375 c 260,11,12
 383.063476562 113.390625 383.063476562 113.390625 387.356445312 116.73046875 c 132,-1,13
 391.650390625 120.0703125 391.650390625 120.0703125 392.603515625 130.564453125 c 4,14,15
 394.51171875 140.106445312 394.51171875 140.106445312 390.696289062 147.26171875 c 132,-1,16
 386.879882812 154.416992188 386.879882812 154.416992188 374.4765625 166.821289062 c 4,17,18
 354.440429688 186.857421875 354.440429688 186.857421875 341.083007812 186.857421875 c 260,19,20
 327.725585938 186.857421875 327.725585938 186.857421875 318.184570312 192.58203125 c 260,0,1
243.764648438 426.3359375 m 4,21,22
 219.912109375 429.19921875 219.912109375 429.19921875 201.784179688 433.969726562 c 4,23,24
 186.518554688 435.877929688 186.518554688 435.877929688 183.65625 431.106445312 c 4,25,26
 180.793945312 427.291015625 180.793945312 427.291015625 179.83984375 363.365234375 c 4,27,28
 178.885742188 291.807617188 178.885742188 291.807617188 189.380859375 291.807617188 c 4,29,30
 192.243164062 290.854492188 192.243164062 290.854492188 196.059570312 295.624023438 c 4,31,32
 201.784179688 301.349609375 201.784179688 301.349609375 212.279296875 301.349609375 c 4,33,34
 230.407226562 301.349609375 230.407226562 301.349609375 277.158203125 315.18359375 c 132,-1,35
 323.909179688 329.018554688 323.909179688 329.018554688 329.633789062 335.697265625 c 4,36,37
 347.76171875 357.641601562 347.76171875 357.641601562 319.138671875 387.6953125 c 132,-1,38
 290.515625 417.749023438 290.515625 417.749023438 243.764648438 426.3359375 c 4,21,22
98.7412109375 524.608398438 m 4,39,40
 109.236328125 529.379882812 109.236328125 529.379882812 187.47265625 529.379882812 c 4,41,42
 238.994140625 529.379882812 238.994140625 529.379882812 261.892578125 526.994140625 c 132,-1,43
 284.791015625 524.608398438 284.791015625 524.608398438 312.459960938 517.9296875 c 4,44,45
 353.485351562 507.435546875 353.485351562 507.435546875 370.659179688 498.848632812 c 132,-1,46
 387.833984375 490.26171875 387.833984375 490.26171875 403.098632812 472.1328125 c 4,47,48
 426.951171875 445.41796875 426.951171875 445.41796875 428.3828125 421.565429688 c 132,-1,49
 429.814453125 397.712890625 429.814453125 397.712890625 408.82421875 357.641601562 c 4,50,51
 388.788085938 320.431640625 388.788085938 320.431640625 376.384765625 310.413085938 c 132,-1,52
 363.981445312 300.39453125 363.981445312 300.39453125 363.981445312 297.532226562 c 4,53,54
 363.981445312 290.854492188 363.981445312 290.854492188 425.998046875 278.450195312 c 4,55,56
 439.35546875 275.588867188 439.35546875 275.588867188 462.252929688 253.64453125 c 6,57,-1
 485.15234375 231.700195312 l 5,58,-1
 482.290039062 195.444335938 l 6,59,60
 479.426757812 160.142578125 479.426757812 160.142578125 467.500976562 135.813476562 c 132,-1,61
 455.57421875 111.483398438 455.57421875 111.483398438 425.998046875 81.90625 c 4,62,63
 392.603515625 49.466796875 392.603515625 49.466796875 362.072265625 33.2470703125 c 132,-1,64
 331.541015625 17.02734375 331.541015625 17.02734375 289.561523438 10.3486328125 c 4,65,66
 259.983398438 6.5322265625 259.983398438 6.5322265625 157.41796875 5.1015625 c 132,-1,67
 54.8525390625 3.669921875 54.8525390625 3.669921875 44.357421875 8.4404296875 c 4,68,69
 15.734375 17.9814453125 15.734375 17.9814453125 54.8525390625 57.099609375 c 4,70,71
 78.705078125 81.90625 78.705078125 81.90625 83.4755859375 92.4013671875 c 260,72,73
 88.2470703125 102.896484375 88.2470703125 102.896484375 87.7685546875 263.184570312 c 132,-1,74
 87.2919921875 423.473632812 87.2919921875 423.473632812 83.4755859375 430.15234375 c 4,75,76
 79.66015625 435.877929688 79.66015625 435.877929688 55.8076171875 435.877929688 c 4,77,78
 38.6337890625 435.877929688 38.6337890625 435.877929688 34.81640625 437.786132812 c 132,-1,79
 31 439.693359375 31 439.693359375 31 447.326171875 c 4,80,81
 31 457.822265625 31 457.822265625 58.1923828125 488.830078125 c 132,-1,82
 85.3837890625 519.837890625 85.3837890625 519.837890625 98.7412109375 524.608398438 c 4,39,40
EndSplineSet
EndChar

StartChar: c
Encoding: 314 99 58
Width: 490
VWidth: 980
GlyphClass: 1
Flags: W
LayerCount: 2
Fore
SplineSet
260 514.900390625 m 4,0,1
 274.399414062 523 274.399414062 523 287.44921875 525.25 c 132,-1,2
 300.5 527.5 300.5 527.5 332.899414062 527.5 c 4,3,4
 402.19921875 527.5 402.19921875 527.5 413.899414062 508.599609375 c 4,5,6
 417.5 504.099609375 417.5 504.099609375 424.69921875 504.099609375 c 4,7,8
 432.799804688 504.099609375 432.799804688 504.099609375 445.399414062 489.700195312 c 4,9,10
 454.399414062 480.700195312 454.399414062 480.700195312 455.75 476.650390625 c 132,-1,11
 457.099609375 472.599609375 457.099609375 472.599609375 453.5 463.599609375 c 4,12,13
 442.69921875 439.299804688 442.69921875 439.299804688 404.899414062 397.450195312 c 132,-1,14
 367.099609375 355.599609375 367.099609375 355.599609375 347.299804688 345.700195312 c 4,15,16
 336.5 341.200195312 336.5 341.200195312 332.899414062 341.200195312 c 132,-1,17
 329.299804688 341.200195312 329.299804688 341.200195312 324.349609375 346.150390625 c 132,-1,18
 319.399414062 351.099609375 319.399414062 351.099609375 320.75 355.150390625 c 132,-1,19
 322.099609375 359.200195312 322.099609375 359.200195312 332.899414062 373.599609375 c 4,20,21
 350.899414062 394.299804688 350.899414062 394.299804688 355.399414062 405.099609375 c 4,22,23
 359 411.400390625 359 411.400390625 357.649414062 414.099609375 c 132,-1,24
 356.299804688 416.799804688 356.299804688 416.799804688 348.19921875 419.5 c 4,25,26
 336.5 424 336.5 424 336.5 429.400390625 c 4,27,28
 336.5 433.900390625 336.5 433.900390625 325.69921875 433.900390625 c 4,29,30
 314 433.900390625 314 433.900390625 311.299804688 438.400390625 c 4,31,32
 308.599609375 443.799804688 308.599609375 443.799804688 281.149414062 443.349609375 c 132,-1,33
 253.69921875 442.900390625 253.69921875 442.900390625 239.299804688 437.5 c 4,34,35
 196.099609375 424 196.099609375 424 174.5 405.099609375 c 4,36,37
 147.5 382.599609375 147.5 382.599609375 130.849609375 350.200195312 c 132,-1,38
 114.19921875 317.799804688 114.19921875 317.799804688 117.799804688 296.200195312 c 4,39,40
 126.799804688 243.099609375 126.799804688 243.099609375 134.899414062 235.900390625 c 4,41,42
 140.299804688 230.5 140.299804688 230.5 140.299804688 223.299804688 c 4,43,44
 140.299804688 211.599609375 140.299804688 211.599609375 152.899414062 190.900390625 c 132,-1,45
 165.5 170.200195312 165.5 170.200195312 184.399414062 151.299804688 c 4,46,47
 208.69921875 127 208.69921875 127 216.349609375 121.150390625 c 132,-1,48
 224 115.299804688 224 115.299804688 240.19921875 108.099609375 c 4,49,50
 253.69921875 101.799804688 253.69921875 101.799804688 289.25 100 c 132,-1,51
 324.799804688 98.2001953125 324.799804688 98.2001953125 340.099609375 102.700195312 c 4,52,53
 350.899414062 106.299804688 350.899414062 106.299804688 377 138.700195312 c 4,54,55
 404 171.099609375 404 171.099609375 407.599609375 171.099609375 c 4,56,57
 410.299804688 171.099609375 410.299804688 171.099609375 425.599609375 185.5 c 4,58,59
 437.299804688 197.200195312 437.299804688 197.200195312 446.75 198.099609375 c 132,-1,60
 456.19921875 199 456.19921875 199 458 189.099609375 c 4,61,62
 460.69921875 174.700195312 460.69921875 174.700195312 412.099609375 116.650390625 c 132,-1,63
 363.5 58.599609375 363.5 58.599609375 328.399414062 34.2998046875 c 4,64,65
 301.399414062 16.2998046875 301.399414062 16.2998046875 256.849609375 10 c 132,-1,66
 212.299804688 3.7001953125 212.299804688 3.7001953125 185.299804688 14.5 c 4,67,68
 103.399414062 46.900390625 103.399414062 46.900390625 62.8994140625 130.599609375 c 4,69,70
 46.69921875 165.700195312 46.69921875 165.700195312 40.849609375 188.650390625 c 132,-1,71
 35 211.599609375 35 211.599609375 35 244 c 4,72,73
 35 274.599609375 35 274.599609375 42.19921875 294.849609375 c 132,-1,74
 49.3994140625 315.099609375 49.3994140625 315.099609375 76.3994140625 356.5 c 4,75,76
 98.8994140625 390.700195312 98.8994140625 390.700195312 158.75 447.400390625 c 132,-1,77
 218.599609375 504.099609375 218.599609375 504.099609375 233 504.099609375 c 4,78,79
 235.69921875 504.099609375 235.69921875 504.099609375 260 514.900390625 c 4,0,1
EndSplineSet
EndChar

StartChar: d
Encoding: 315 100 59
Width: 572
VWidth: 980
GlyphClass: 1
Flags: W
LayerCount: 2
Fore
SplineSet
318.41015625 420.240234375 m 4,0,1
 293.625 433.5859375 293.625 433.5859375 265.979492188 438.3515625 c 132,-1,2
 238.333007812 443.119140625 238.333007812 443.119140625 234.51953125 433.5859375 c 4,3,4
 232.614257812 426.913085938 232.614257812 426.913085938 232.614257812 258.178710938 c 4,5,6
 232.614257812 147.596679688 232.614257812 147.596679688 233.567382812 118.044921875 c 132,-1,7
 234.51953125 88.4931640625 234.51953125 88.4931640625 239.287109375 86.5859375 c 4,8,9
 247.866210938 83.7265625 247.866210938 83.7265625 276.465820312 91.353515625 c 4,10,11
 304.111328125 99.931640625 304.111328125 99.931640625 324.129882812 99.931640625 c 4,12,13
 342.2421875 99.931640625 342.2421875 99.931640625 369.412109375 108.03515625 c 132,-1,14
 396.580078125 116.138671875 396.580078125 116.138671875 411.833984375 125.671875 c 4,15,16
 431.8515625 139.971679688 431.8515625 139.971679688 439.001953125 158.560546875 c 132,-1,17
 446.15234375 177.149414062 446.15234375 177.149414062 446.15234375 216.234375 c 4,18,19
 447.104492188 266.758789062 447.104492188 266.758789062 435.666015625 297.265625 c 132,-1,20
 424.2265625 327.76953125 424.2265625 327.76953125 391.814453125 364.947265625 c 4,21,22
 363.215820312 395.454101562 363.215820312 395.454101562 355.588867188 400.220703125 c 4,23,24
 351.775390625 403.080078125 351.775390625 403.080078125 318.41015625 420.240234375 c 4,0,1
90.5732421875 519.3828125 m 4,25,26
 102.01171875 527.961914062 102.01171875 527.961914062 231.18359375 527.485351562 c 132,-1,27
 360.354492188 527.008789062 360.354492188 527.008789062 384.186523438 518.4296875 c 4,28,29
 404.208007812 511.755859375 404.208007812 511.755859375 413.262695312 505.560546875 c 132,-1,30
 422.319335938 499.362304688 422.319335938 499.362304688 458.543945312 466.950195312 c 260,31,32
 494.76953125 434.540039062 494.76953125 434.540039062 515.7421875 395.454101562 c 6,33,-1
 536.715820312 355.416015625 l 5,34,-1
 536.715820312 284.872070312 l 6,35,36
 536.715820312 235.30078125 536.715820312 235.30078125 534.80859375 222.4296875 c 132,-1,37
 532.90234375 209.560546875 532.90234375 209.560546875 523.370117188 195.26171875 c 4,38,39
 510.0234375 173.3359375 510.0234375 173.3359375 510.0234375 171.4296875 c 4,40,41
 510.0234375 159.990234375 510.0234375 159.990234375 456.638671875 106.60546875 c 132,-1,42
 403.252929688 53.2216796875 403.252929688 53.2216796875 386.09375 45.5947265625 c 4,43,44
 379.420898438 43.6884765625 379.420898438 43.6884765625 366.075195312 35.107421875 c 4,45,46
 345.1015625 20.8095703125 345.1015625 20.8095703125 312.689453125 15.0888671875 c 132,-1,47
 280.278320312 9.3681640625 280.278320312 9.3681640625 208.78125 7.462890625 c 4,48,49
 114.405273438 5.556640625 114.405273438 5.556640625 75.3203125 2.6953125 c 4,50,51
 33.3759765625 0.7890625 33.3759765625 0.7890625 33.3759765625 7.462890625 c 132,-1,52
 33.3759765625 14.134765625 33.3759765625 14.134765625 66.740234375 50.3603515625 c 4,53,54
 87.7138671875 72.2861328125 87.7138671875 72.2861328125 96.7685546875 78.484375 c 132,-1,55
 105.826171875 84.6796875 105.826171875 84.6796875 116.3125 84.6796875 c 4,56,57
 133.471679688 84.6796875 133.471679688 84.6796875 137.283203125 96.1181640625 c 4,58,59
 142.05078125 109.463867188 142.05078125 109.463867188 141.096679688 267.711914062 c 4,60,61
 141.096679688 286.778320312 141.096679688 286.778320312 141.096679688 318.237304688 c 4,62,63
 141.096679688 404.987304688 141.096679688 404.987304688 135.377929688 419.762695312 c 132,-1,64
 129.658203125 434.540039062 129.658203125 434.540039062 96.29296875 435.4921875 c 4,65,66
 83.8994140625 435.4921875 83.8994140625 435.4921875 77.2265625 435.4921875 c 4,67,68
 40.048828125 437.399414062 40.048828125 437.399414062 32.8994140625 443.119140625 c 132,-1,69
 25.748046875 448.837890625 25.748046875 448.837890625 36.2353515625 465.998046875 c 4,70,71
 42.908203125 476.484375 42.908203125 476.484375 60.5439453125 493.643554688 c 132,-1,72
 78.1796875 510.803710938 78.1796875 510.803710938 90.5732421875 519.3828125 c 4,25,26
EndSplineSet
EndChar

StartChar: e
Encoding: 316 101 60
Width: 443
VWidth: 980
GlyphClass: 1
Flags: W
LayerCount: 2
Fore
SplineSet
133.927734375 530.794921875 m 4,0,1
 144.9375 535.3828125 144.9375 535.3828125 172.462890625 531.712890625 c 4,2,3
 204.575195312 528.959960938 204.575195312 528.959960938 214.66796875 528.959960938 c 4,4,5
 231.182617188 529.877929688 231.182617188 529.877929688 287.150390625 529.877929688 c 132,-1,6
 343.118164062 529.877929688 343.118164062 529.877929688 372.477539062 528.959960938 c 4,7,8
 400.002929688 528.04296875 400.002929688 528.04296875 405.5078125 526.666015625 c 132,-1,9
 411.012695312 525.290039062 411.012695312 525.290039062 412.84765625 517.032226562 c 4,10,11
 414.682617188 506.940429688 414.682617188 506.940429688 380.735351562 472.9921875 c 6,12,-1
 346.788085938 439.962890625 l 5,13,-1
 263.294921875 439.962890625 l 6,14,15
 179.802734375 439.962890625 179.802734375 439.962890625 177.05078125 435.375 c 260,16,17
 174.297851562 430.787109375 174.297851562 430.787109375 172.462890625 381.2421875 c 4,18,19
 172.462890625 379.407226562 172.462890625 379.407226562 172.462890625 374.8203125 c 4,20,21
 172.462890625 363.809570312 172.462890625 363.809570312 172.00390625 359.22265625 c 132,-1,22
 171.544921875 354.634765625 171.544921875 354.634765625 172.462890625 347.294921875 c 132,-1,23
 173.379882812 339.955078125 173.379882812 339.955078125 173.379882812 337.202148438 c 132,-1,24
 173.379882812 334.450195312 173.379882812 334.450195312 176.591796875 329.862304688 c 132,-1,25
 179.802734375 325.275390625 179.802734375 325.275390625 181.178710938 324.357421875 c 132,-1,26
 182.555664062 323.440429688 182.555664062 323.440429688 188.51953125 321.146484375 c 132,-1,27
 194.482421875 318.852539062 194.482421875 318.852539062 198.15234375 318.852539062 c 132,-1,28
 201.823242188 318.852539062 201.823242188 318.852539062 212.374023438 317.934570312 c 132,-1,29
 222.92578125 317.017578125 222.92578125 317.017578125 229.34765625 317.017578125 c 132,-1,30
 235.770507812 317.017578125 235.770507812 317.017578125 251.368164062 317.017578125 c 4,31,32
 256.873046875 317.017578125 256.873046875 317.017578125 260.54296875 317.017578125 c 4,33,34
 333.025390625 316.099609375 333.025390625 316.099609375 337.61328125 312.4296875 c 4,35,36
 353.209960938 303.254882812 353.209960938 303.254882812 309.169921875 256.462890625 c 4,37,38
 284.397460938 231.690429688 284.397460938 231.690429688 277.057617188 227.561523438 c 132,-1,39
 269.717773438 223.432617188 269.717773438 223.432617188 252.28515625 224.349609375 c 4,40,41
 229.34765625 226.184570312 229.34765625 226.184570312 220.172851562 225.267578125 c 4,42,43
 217.419921875 225.267578125 217.419921875 225.267578125 208.704101562 225.267578125 c 132,-1,44
 199.98828125 225.267578125 199.98828125 225.267578125 195.400390625 225.267578125 c 4,45,46
 179.802734375 225.267578125 179.802734375 225.267578125 176.1328125 218.844726562 c 4,47,48
 172.462890625 213.33984375 172.462890625 213.33984375 173.379882812 161.500976562 c 132,-1,49
 174.297851562 109.662109375 174.297851562 109.662109375 177.967773438 103.240234375 c 4,50,51
 181.637695312 97.7353515625 181.637695312 97.7353515625 190.354492188 96.3583984375 c 132,-1,52
 199.0703125 94.982421875 199.0703125 94.982421875 230.265625 94.982421875 c 4,53,54
 255.955078125 95.900390625 255.955078125 95.900390625 284.397460938 95.900390625 c 4,55,56
 314.67578125 95.900390625 314.67578125 95.900390625 342.200195312 95.900390625 c 4,57,58
 407.342773438 94.982421875 407.342773438 94.982421875 407.342773438 83.0546875 c 4,59,60
 407.342773438 79.384765625 407.342773438 79.384765625 402.754882812 74.7978515625 c 4,61,62
 394.498046875 65.6220703125 394.498046875 65.6220703125 394.498046875 62.4111328125 c 132,-1,63
 394.498046875 59.2001953125 394.498046875 59.2001953125 366.97265625 31.6748046875 c 6,64,-1
 339.448242188 5.0673828125 l 5,65,-1
 192.647460938 5.0673828125 l 6,66,67
 46.765625 5.0673828125 46.765625 5.0673828125 43.095703125 9.6552734375 c 4,68,69
 41.2607421875 13.3251953125 41.2607421875 13.3251953125 47.6826171875 27.5458984375 c 132,-1,70
 54.10546875 41.767578125 54.10546875 41.767578125 58.6923828125 44.51953125 c 4,71,72
 61.4453125 44.51953125 61.4453125 44.51953125 71.5380859375 60.1171875 c 4,73,74
 78.8779296875 70.2099609375 78.8779296875 70.2099609375 80.25390625 95.900390625 c 132,-1,75
 81.6298828125 121.58984375 81.6298828125 121.58984375 80.712890625 241.782226562 c 4,76,77
 79.794921875 415.190429688 79.794921875 415.190429688 79.794921875 424.365234375 c 4,78,79
 78.8779296875 435.375 78.8779296875 435.375 76.125 437.668945312 c 132,-1,80
 73.373046875 439.962890625 73.373046875 439.962890625 57.775390625 439.962890625 c 4,81,82
 35.7548828125 439.962890625 35.7548828125 439.962890625 32.0849609375 448.219726562 c 4,83,84
 27.498046875 457.39453125 27.498046875 457.39453125 33.0029296875 467.028320312 c 132,-1,85
 38.5078125 476.662109375 38.5078125 476.662109375 64.1982421875 501.434570312 c 4,86,87
 84.3828125 520.702148438 84.3828125 520.702148438 92.640625 525.749023438 c 132,-1,88
 100.897460938 530.794921875 100.897460938 530.794921875 110.073242188 528.959960938 c 4,89,90
 125.669921875 527.125 125.669921875 527.125 133.927734375 530.794921875 c 4,0,1
EndSplineSet
MultipleSubs2: "Multiple Substitution lookup 2 subtable" e cartoucheMiddleTok
Substitution2: "'liga' Standard Ligatures in Latin lookup 1 subtable" eTok
EndChar

StartChar: f
Encoding: 317 102 61
Width: 508
VWidth: 980
GlyphClass: 1
Flags: W
LayerCount: 2
Fore
SplineSet
103 516 m 2,0,-1
 127 529 l 1,1,-1
 293 527 l 2,2,3
 461 525 461 525 469 522 c 0,4,5
 476 520 476 520 477.5 515.5 c 128,-1,6
 479 511 479 511 476 503.5 c 128,-1,7
 473 496 473 496 465 486 c 128,-1,8
 457 476 457 476 444 462 c 2,9,-1
 409 425 l 1,10,-1
 313 426 l 2,11,12
 217 427 217 427 211 421 c 0,13,14
 207 417 207 417 206.5 373 c 128,-1,15
 206 329 206 329 210 322 c 0,16,17
 213 316 213 316 258 316 c 0,18,19
 334 317 334 317 337 300 c 0,20,21
 338 293 338 293 302 255 c 0,22,23
 275 228 275 228 266 223 c 128,-1,24
 257 218 257 218 238 216 c 2,25,-1
 210 215 l 1,26,-1
 206 191 l 2,27,28
 203 161 203 161 203 122 c 0,29,30
 202 79 202 79 189 57 c 128,-1,31
 176 35 176 35 135 8 c 2,32,-1
 113 -7 l 1,33,-1
 81 4 l 2,34,35
 30 22 30 22 30 30 c 0,36,37
 30 35 30 35 69 75 c 2,38,-1
 108 115 l 1,39,-1
 108 268 l 2,40,41
 108 420 108 420 102 424 c 0,42,43
 97 427 97 427 63 426 c 0,44,45
 36 426 36 426 32.5 430 c 128,-1,46
 29 434 29 434 39 453 c 0,47,48
 59 492 59 492 103 516 c 2,0,-1
EndSplineSet
EndChar

StartChar: g
Encoding: 318 103 62
Width: 590
VWidth: 980
GlyphClass: 1
Flags: W
LayerCount: 2
Fore
SplineSet
238.881835938 525.451171875 m 4,0,1
 261.10546875 532.21484375 261.10546875 532.21484375 305.0703125 532.21484375 c 132,-1,2
 349.03515625 532.21484375 349.03515625 532.21484375 377.056640625 524.484375 c 4,3,4
 397.348632812 518.686523438 397.348632812 518.686523438 418.123046875 504.676757812 c 132,-1,5
 438.8984375 490.665039062 438.8984375 490.665039062 445.661132812 478.103515625 c 4,6,7
 450.493164062 468.44140625 450.493164062 468.44140625 447.111328125 461.677734375 c 132,-1,8
 443.729492188 454.913085938 443.729492188 454.913085938 418.606445312 428.82421875 c 4,9,10
 384.788085938 393.073242188 384.788085938 393.073242188 378.0234375 393.073242188 c 4,11,12
 372.2265625 393.073242188 372.2265625 393.073242188 358.698242188 406.600585938 c 4,13,14
 336.474609375 430.756835938 336.474609375 430.756835938 319.564453125 435.588867188 c 132,-1,15
 302.655273438 440.419921875 302.655273438 440.419921875 249.509765625 440.419921875 c 4,16,17
 190.568359375 440.419921875 190.568359375 440.419921875 173.17578125 432.689453125 c 132,-1,18
 155.782226562 424.958984375 155.782226562 424.958984375 142.255859375 392.106445312 c 4,19,20
 130.66015625 363.119140625 130.66015625 363.119140625 125.829101562 328.333007812 c 132,-1,21
 120.998046875 293.547851562 120.998046875 293.547851562 125.829101562 280.986328125 c 4,22,23
 130.66015625 265.526367188 130.66015625 265.526367188 130.66015625 252.481445312 c 132,-1,24
 130.66015625 239.436523438 130.66015625 239.436523438 138.390625 224.942382812 c 260,25,26
 146.12109375 210.44921875 146.12109375 210.44921875 146.12109375 203.684570312 c 4,27,28
 146.12109375 194.98828125 146.12109375 194.98828125 168.344726562 168.900390625 c 132,-1,29
 190.568359375 142.810546875 190.568359375 142.810546875 208.927734375 130.25 c 4,30,31
 235.016601562 111.890625 235.016601562 111.890625 261.10546875 104.16015625 c 260,32,33
 287.1953125 96.4306640625 287.1953125 96.4306640625 322.946289062 96.4306640625 c 132,-1,34
 358.698242188 96.4306640625 358.698242188 96.4306640625 372.2265625 104.16015625 c 4,35,36
 384.788085938 110.923828125 384.788085938 110.923828125 401.213867188 141.844726562 c 132,-1,37
 417.640625 172.765625 417.640625 172.765625 417.640625 187.258789062 c 6,38,-1
 417.640625 200.786132812 l 5,39,-1
 366.428710938 202.719726562 l 6,40,41
 329.7109375 203.684570312 329.7109375 203.684570312 322.462890625 205.618164062 c 132,-1,42
 315.216796875 207.55078125 315.216796875 207.55078125 316.182617188 214.314453125 c 4,43,44
 318.115234375 223.977539062 318.115234375 223.977539062 332.125976562 241.852539062 c 132,-1,45
 346.13671875 259.728515625 346.13671875 259.728515625 364.495117188 273.255859375 c 6,46,-1
 382.854492188 288.715820312 l 5,47,-1
 464.020507812 290.649414062 l 6,48,49
 546.153320312 291.615234375 546.153320312 291.615234375 551.950195312 288.715820312 c 4,50,51
 570.309570312 281.952148438 570.309570312 281.952148438 528.760742188 236.538085938 c 4,52,53
 526.827148438 235.572265625 526.827148438 235.572265625 524.895507812 233.638671875 c 4,54,55
 491.076171875 197.887695312 491.076171875 197.887695312 478.514648438 172.765625 c 4,56,57
 447.594726562 112.856445312 447.594726562 112.856445312 395.899414062 65.9931640625 c 132,-1,58
 344.204101562 19.12890625 344.204101562 19.12890625 297.823242188 9.466796875 c 4,59,60
 278.499023438 4.634765625 278.499023438 4.634765625 254.341796875 4.634765625 c 4,61,62
 235.016601562 5.6015625 235.016601562 5.6015625 204.095703125 13.3310546875 c 132,-1,63
 173.17578125 21.0615234375 173.17578125 21.0615234375 162.546875 28.30859375 c 132,-1,64
 151.91796875 35.5556640625 151.91796875 35.5556640625 144.1875 35.5556640625 c 4,65,66
 133.559570312 35.5556640625 133.559570312 35.5556640625 88.14453125 88.69921875 c 4,67,68
 65.9208984375 112.856445312 65.9208984375 112.856445312 50.4599609375 157.788085938 c 132,-1,69
 35 202.719726562 35 202.719726562 35 239.436523438 c 4,70,71
 35 327.366210938 35 327.366210938 96.357421875 412.880859375 c 132,-1,72
 157.715820312 498.395507812 157.715820312 498.395507812 238.881835938 525.451171875 c 4,0,1
EndSplineSet
EndChar

StartChar: h
Encoding: 319 104 63
Width: 508
VWidth: 980
GlyphClass: 1
Flags: W
LayerCount: 2
Fore
SplineSet
434 537 m 0,0,1
 443 546 443 546 450 546 c 0,2,3
 463 546 463 546 465.5 511.5 c 128,-1,4
 468 477 468 477 468 298 c 2,5,-1
 468 62 l 1,6,-1
 429 25 l 2,7,8
 388 -12 388 -12 384 -12 c 0,9,10
 377 -12 377 -12 374.5 14.5 c 128,-1,11
 372 41 372 41 372 116 c 0,12,13
 374 237 374 237 365 243 c 0,14,15
 361 245 361 245 352 236 c 0,16,17
 344 228 344 228 245 228 c 0,18,19
 175 228 175 228 159.5 226.5 c 128,-1,20
 144 225 144 225 140 218 c 0,21,22
 135 207 135 207 136 141 c 0,23,24
 136 83 136 83 130.5 67 c 128,-1,25
 125 51 125 51 91 19 c 0,26,27
 69 -4 69 -4 58.5 -9 c 128,-1,28
 48 -14 48 -14 43 -5 c 0,29,30
 40 0 40 0 40 231 c 0,31,32
 40 241 40 241 40 260 c 0,33,34
 40 415 40 415 42.5 443.5 c 128,-1,35
 45 472 45 472 60 490 c 0,36,37
 62 492 62 492 63 494 c 0,38,39
 75 507 75 507 97 523.5 c 128,-1,40
 119 540 119 540 125.5 540 c 128,-1,41
 132 540 132 540 133.5 528.5 c 128,-1,42
 135 517 135 517 135 463 c 0,43,44
 135 389 135 389 138 354 c 2,45,-1
 142 323 l 1,46,-1
 252 322 l 2,47,48
 363 322 363 322 368 328 c 0,49,50
 373 335 373 335 372 397 c 0,51,52
 371 440 371 440 373 453 c 128,-1,53
 375 466 375 466 383 482 c 0,54,55
 397 504 397 504 403 504 c 0,56,57
 410 504 410 504 418 516 c 0,58,59
 427 530 427 530 434 537 c 0,0,1
EndSplineSet
EndChar

StartChar: i
Encoding: 320 105 64
Width: 411
VWidth: 980
GlyphClass: 1
Flags: W
LayerCount: 2
Fore
SplineSet
116.922851562 524.5 m 132,-1,1
 116.922851562 529 116.922851562 529 240.922851562 529 c 4,2,3
 363.922851562 529 363.922851562 529 375.922851562 521 c 4,4,5
 382.922851562 516 382.922851562 516 379.922851562 502 c 4,6,7
 376.922851562 492 376.922851562 492 357.422851562 472 c 132,-1,8
 337.922851562 452 337.922851562 452 317.922851562 438 c 4,9,10
 301.922851562 429 301.922851562 429 275.922851562 426 c 6,11,-1
 249.922851562 423 l 5,12,-1
 247.922851562 265 l 6,13,14
 246.922851562 107 246.922851562 107 253.922851562 102 c 4,15,16
 260.922851562 98 260.922851562 98 310.922851562 98 c 4,17,18
 361.922851562 98 361.922851562 98 363.922851562 92 c 4,19,20
 367.922851562 87 367.922851562 87 355.422851562 68.5 c 132,-1,21
 342.922851562 50 342.922851562 50 320.922851562 28 c 6,22,-1
 293.922851562 4 l 5,23,-1
 166.922851562 3 l 6,24,25
 38.9228515625 3 38.9228515625 3 33.9228515625 7 c 4,26,27
 25.9228515625 11 25.9228515625 11 30.9228515625 21 c 132,-1,28
 35.9228515625 31 35.9228515625 31 55.9228515625 53 c 4,29,30
 110.922851562 114 110.922851562 114 135.922851562 103 c 4,31,32
 148.922851562 98 148.922851562 98 150.922851562 98 c 4,33,34
 153.922851562 98 153.922851562 98 153.922851562 259 c 260,35,36
 153.922851562 420 153.922851562 420 146.922851562 424 c 4,37,38
 141.922851562 428 141.922851562 428 91.9228515625 427 c 6,39,-1
 42.9228515625 425 l 5,40,-1
 45.9228515625 441 l 6,41,42
 48.9228515625 455 48.9228515625 455 72.9228515625 484.5 c 132,-1,43
 96.9228515625 514 96.9228515625 514 107.922851562 517 c 4,44,0
 116.922851562 520 116.922851562 520 116.922851562 524.5 c 132,-1,1
EndSplineSet
MultipleSubs2: "Multiple Substitution lookup 2 subtable" i cartoucheMiddleTok
EndChar

StartChar: j
Encoding: 321 106 65
Width: 465
VWidth: 980
GlyphClass: 1
Flags: W
LayerCount: 2
Fore
SplineSet
134 504 m 0,0,1
 147 512 147 512 287 512 c 0,2,3
 417 512 417 512 430 505 c 0,4,5
 442 500 442 500 422 477 c 0,6,7
 420 473 420 473 410 463 c 0,8,9
 363 409 363 409 331 411 c 2,10,11
 331 411 331 411 330 411 c 0,12,13
 308 413 308 413 304.5 399.5 c 128,-1,14
 301 386 301 386 304 302 c 0,15,16
 304 298 304 298 304 296 c 0,17,18
 308 193 308 193 308 177 c 0,19,20
 308 157 308 157 264 105 c 128,-1,21
 220 53 220 53 184 32 c 0,22,23
 128 -3 128 -3 94 9 c 0,24,25
 76 15 76 15 53.5 38.5 c 128,-1,26
 31 62 31 62 31 75 c 0,27,28
 31 84 31 84 51.5 106 c 128,-1,29
 72 128 72 128 93.5 143 c 128,-1,30
 115 158 115 158 118 151 c 0,31,32
 120 144 120 144 139.5 126 c 128,-1,33
 159 108 159 108 167 105 c 0,34,35
 176 102 176 102 191 109 c 2,36,-1
 205 116 l 1,37,-1
 205 263 l 1,38,-1
 205 410 l 1,39,-1
 176 411 l 2,40,41
 144 412 144 412 121 410 c 0,42,43
 93 409 93 409 79 413 c 0,44,45
 69 415 69 415 66.5 418 c 128,-1,46
 64 421 64 421 66 431 c 0,47,48
 68 442 68 442 91 467 c 128,-1,49
 114 492 114 492 134 504 c 0,0,1
EndSplineSet
MultipleSubs2: "Multiple Substitution lookup 2 subtable" j cartoucheMiddleTok
EndChar

StartChar: k
Encoding: 322 107 66
Width: 415
VWidth: 980
GlyphClass: 1
Flags: W
LayerCount: 2
Fore
SplineSet
77.5712890625 483 m 6,0,1
 114.571289062 520 114.571289062 520 116.571289062 520 c 6,2,3
 116.571289062 520 116.571289062 520 126.571289062 516 c 4,4,5
 131.571289062 515 131.571289062 515 133.071289062 500.5 c 132,-1,6
 134.571289062 486 134.571289062 486 134.571289062 438 c 4,7,8
 134.571289062 363 134.571289062 363 140.571289062 363 c 260,9,10
 146.571289062 363 146.571289062 363 179.571289062 387 c 4,11,12
 211.571289062 410 211.571289062 410 216.571289062 410 c 260,13,14
 221.571289062 410 221.571289062 410 231.571289062 421 c 4,15,16
 239.571289062 431 239.571289062 431 255.571289062 439 c 4,17,18
 268.571289062 446 268.571289062 446 276.071289062 453.5 c 132,-1,19
 283.571289062 461 283.571289062 461 326.571289062 487.5 c 132,-1,20
 369.571289062 514 369.571289062 514 374.571289062 514 c 4,21,22
 383.571289062 514 383.571289062 514 384.571289062 503 c 132,-1,23
 385.571289062 492 385.571289062 492 378.571289062 479 c 4,24,25
 369.571289062 464 369.571289062 464 340.071289062 437 c 132,-1,26
 310.571289062 410 310.571289062 410 302.571289062 410 c 4,27,28
 296.571289062 410 296.571289062 410 296.571289062 406.5 c 132,-1,29
 296.571289062 403 296.571289062 403 269.571289062 385 c 4,30,31
 243.571289062 367 243.571289062 367 243.571289062 366 c 6,32,33
 243.571289062 366 243.571289062 366 245.571289062 362.5 c 132,-1,34
 247.571289062 359 247.571289062 359 250.571289062 352 c 132,-1,35
 253.571289062 345 253.571289062 345 256.571289062 339 c 4,36,37
 296.571289062 257 296.571289062 257 296.571289062 248 c 4,38,39
 296.571289062 240 296.571289062 240 314.571289062 209 c 132,-1,40
 332.571289062 178 332.571289062 178 332.571289062 168 c 4,41,42
 332.571289062 156 332.571289062 156 337.571289062 152 c 4,43,44
 341.571289062 150 341.571289062 150 357.571289062 118 c 4,45,46
 368.571289062 96 368.571289062 96 370.071289062 89.5 c 132,-1,47
 371.571289062 83 371.571289062 83 365.571289062 75 c 4,48,49
 359.571289062 64 359.571289062 64 337.571289062 43.5 c 132,-1,50
 315.571289062 23 315.571289062 23 303.571289062 16 c 4,51,52
 297.571289062 12 297.571289062 12 289.571289062 10.5 c 132,-1,53
 281.571289062 9 281.571289062 9 275.571289062 10.5 c 132,-1,54
 269.571289062 12 269.571289062 12 269.571289062 15 c 4,55,56
 269.571289062 22 269.571289062 22 249.571289062 64 c 4,57,58
 243.571289062 76 243.571289062 76 228.571289062 107.5 c 132,-1,59
 213.571289062 139 213.571289062 139 207.571289062 151 c 4,60,61
 201.571289062 164 201.571289062 164 188.571289062 193 c 132,-1,62
 175.571289062 222 175.571289062 222 171.571289062 229 c 4,63,64
 155.571289062 264 155.571289062 264 150.571289062 278 c 4,65,66
 139.571289062 305 139.571289062 305 136.571289062 265 c 4,67,68
 134.571289062 240 134.571289062 240 134.571289062 183 c 6,69,-1
 134.571289062 82 l 5,70,-1
 107.571289062 52 l 6,71,72
 89.5712890625 33 89.5712890625 33 79.5712890625 23 c 132,-1,73
 69.5712890625 13 69.5712890625 13 62.0712890625 8 c 132,-1,74
 54.5712890625 3 54.5712890625 3 50.5712890625 3.5 c 132,-1,75
 46.5712890625 4 46.5712890625 4 43.5712890625 9 c 4,76,77
 38.5712890625 16 38.5712890625 16 40.5712890625 406 c 6,78,-1
 40.5712890625 446 l 5,79,-1
 77.5712890625 483 l 6,0,1
EndSplineSet
MultipleSubs2: "Multiple Substitution lookup 2 subtable" k cartoucheMiddleTok
EndChar

StartChar: l
Encoding: 323 108 67
Width: 456
VWidth: 980
GlyphClass: 1
Flags: W
LayerCount: 2
Fore
SplineSet
143.909179688 524 m 0,0,1
 155.909179688 536 155.909179688 536 169.909179688 534 c 0,2,3
 178.909179688 533 178.909179688 533 180.909179688 528 c 128,-1,4
 182.909179688 523 182.909179688 523 181.909179688 499 c 0,5,6
 179.909179688 429 179.909179688 429 179.909179688 286 c 128,-1,7
 179.909179688 143 179.909179688 143 182.909179688 136 c 0,8,9
 185.909179688 126 185.909179688 126 214.909179688 122.5 c 128,-1,10
 243.909179688 119 243.909179688 119 329.909179688 121 c 0,11,12
 365.909179688 121 365.909179688 121 383.409179688 120.5 c 128,-1,13
 400.909179688 120 400.909179688 120 412.409179688 118 c 128,-1,14
 423.909179688 116 423.909179688 116 423.909179688 111.5 c 128,-1,15
 423.909179688 107 423.909179688 107 422.909179688 99 c 0,16,17
 417.909179688 82 417.909179688 82 369.909179688 40 c 2,18,-1
 348.909179688 21 l 1,19,-1
 215.909179688 22 l 1,20,-1
 83.9091796875 22 l 1,21,-1
 82.9091796875 209 l 2,22,23
 81.9091796875 395 81.9091796875 395 77.9091796875 395 c 0,24,25
 74.9091796875 395 74.9091796875 395 61.9091796875 384 c 0,26,27
 41.9091796875 369 41.9091796875 369 33.9091796875 377 c 128,-1,28
 25.9091796875 385 25.9091796875 385 39.9091796875 406 c 0,29,30
 54.9091796875 428 54.9091796875 428 83.4091796875 463 c 128,-1,31
 111.909179688 498 111.909179688 498 120.909179688 504 c 0,32,33
 122.909179688 506 122.909179688 506 131.409179688 513.5 c 128,-1,34
 139.909179688 521 139.909179688 521 143.909179688 524 c 0,0,1
EndSplineSet
MultipleSubs2: "Multiple Substitution lookup 2 subtable" l cartoucheMiddleTok
EndChar

StartChar: m
Encoding: 324 109 68
Width: 492
VWidth: 980
GlyphClass: 1
Flags: W
LayerCount: 2
Fore
SplineSet
255.8203125 518.78515625 m 4,0,1
 276.46484375 536.614257812 276.46484375 536.614257812 283.970703125 528.168945312 c 132,-1,2
 291.477539062 519.723632812 291.477539062 519.723632812 290.540039062 478.436523438 c 4,3,4
 290.540039062 438.087890625 290.540039062 438.087890625 293.354492188 435.272460938 c 260,5,6
 296.169921875 432.45703125 296.169921875 432.45703125 321.505859375 452.163085938 c 4,7,8
 350.59375 471.868164062 350.59375 471.868164062 357.162109375 475.62109375 c 4,9,10
 359.0390625 476.559570312 359.0390625 476.559570312 373.114257812 484.53515625 c 132,-1,11
 387.189453125 492.51171875 387.189453125 492.51171875 396.573242188 497.203125 c 4,12,13
 426.599609375 513.155273438 426.599609375 513.155273438 431.291992188 516.909179688 c 4,14,15
 435.045898438 521.600585938 435.045898438 521.600585938 444.428710938 521.600585938 c 4,16,17
 450.05859375 521.600585938 450.05859375 521.600585938 451.466796875 490.635742188 c 132,-1,18
 452.874023438 459.669921875 452.874023438 459.669921875 452.874023438 308.594726562 c 6,19,-1
 452.874023438 96.5283203125 l 5,20,-1
 419.09375 61.80859375 l 6,21,22
 370.299804688 13.953125 370.299804688 13.953125 362.79296875 36.4736328125 c 4,23,24
 359.977539062 43.98046875 359.977539062 43.98046875 361.853515625 89.021484375 c 4,25,26
 364.669921875 131.247070312 364.669921875 131.247070312 360.916015625 151.890625 c 132,-1,27
 357.162109375 172.534179688 357.162109375 172.534179688 359.977539062 201.623046875 c 4,28,29
 362.79296875 232.588867188 362.79296875 232.588867188 359.977539062 250.41796875 c 4,30,31
 356.223632812 270.123046875 356.223632812 270.123046875 359.0390625 274.814453125 c 4,32,33
 362.79296875 280.444335938 362.79296875 280.444335938 360.916015625 345.190429688 c 4,34,35
 359.977539062 408.059570312 359.977539062 408.059570312 351.532226562 409.936523438 c 4,36,37
 347.779296875 410.875 347.779296875 410.875 337.45703125 401.4921875 c 4,38,39
 327.134765625 393.984375 327.134765625 393.984375 311.182617188 383.663085938 c 4,40,41
 301.799804688 378.033203125 301.799804688 378.033203125 298.515625 371.93359375 c 132,-1,42
 295.231445312 365.834960938 295.231445312 365.834960938 291.946289062 348.005859375 c 132,-1,43
 288.663085938 330.176757812 288.663085938 330.176757812 289.600585938 297.334960938 c 132,-1,44
 290.540039062 264.493164062 290.540039062 264.493164062 290.540039062 205.376953125 c 6,45,-1
 292.416015625 81.513671875 l 5,46,-1
 253.005859375 42.103515625 l 6,47,48
 218.287109375 9.2607421875 218.287109375 9.2607421875 211.717773438 7.8544921875 c 132,-1,49
 205.149414062 6.4462890625 205.149414062 6.4462890625 202.334960938 17.70703125 c 4,50,51
 196.705078125 36.4736328125 196.705078125 36.4736328125 195.765625 202.561523438 c 4,52,53
 195.765625 418.3828125 195.765625 418.3828125 191.07421875 423.07421875 c 4,54,55
 191.07421875 424.01171875 191.07421875 424.01171875 188.258789062 424.01171875 c 4,56,57
 182.629882812 424.01171875 182.629882812 424.01171875 156.35546875 398.676757812 c 6,58,-1
 130.08203125 373.341796875 l 5,59,-1
 130.08203125 228.8359375 l 5,60,-1
 130.08203125 84.330078125 l 5,61,-1
 116.005859375 67.439453125 l 6,62,63
 94.423828125 41.166015625 94.423828125 41.166015625 76.595703125 27.08984375 c 4,64,65
 61.58203125 13.0146484375 61.58203125 13.0146484375 51.259765625 13.0146484375 c 4,66,67
 45.6298828125 13.0146484375 45.6298828125 13.0146484375 44.69140625 17.70703125 c 4,68,69
 41.876953125 28.966796875 41.876953125 28.966796875 40 272 c 6,70,-1
 40 440.90234375 l 5,71,-1
 59.7060546875 463.422851562 l 6,72,73
 109.4375 517.846679688 109.4375 517.846679688 120.698242188 510.340820312 c 4,74,75
 128.205078125 505.6484375 128.205078125 505.6484375 129.143554688 480.3125 c 4,76,77
 130.08203125 451.223632812 130.08203125 451.223632812 132.896484375 444.655273438 c 4,78,79
 132.896484375 443.717773438 132.896484375 443.717773438 137.588867188 446.063476562 c 132,-1,80
 142.280273438 448.409179688 142.280273438 448.409179688 149.787109375 454.508789062 c 132,-1,81
 157.293945312 460.607421875 157.293945312 460.607421875 165.739257812 468.114257812 c 4,82,83
 196.705078125 497.203125 196.705078125 497.203125 204.211914062 497.203125 c 4,84,85
 212.65625 497.203125 212.65625 497.203125 215.470703125 501.89453125 c 260,86,87
 218.287109375 506.586914062 218.287109375 506.586914062 230.485351562 506.586914062 c 4,88,89
 241.745117188 506.586914062 241.745117188 506.586914062 255.8203125 518.78515625 c 4,0,1
EndSplineSet
MultipleSubs2: "Multiple Substitution lookup 2 subtable" m cartoucheMiddleTok
EndChar

StartChar: n
Encoding: 325 110 69
Width: 543
VWidth: 980
GlyphClass: 1
Flags: W
LayerCount: 2
Fore
SplineSet
85.7197265625 507.834960938 m 4,0,1
 113.559570312 528.69140625 113.559570312 528.69140625 127.959960938 528.69140625 c 4,2,3
 138.51953125 528.69140625 138.51953125 528.69140625 149.559570312 521.581054688 c 132,-1,4
 160.599609375 514.470703125 160.599609375 514.470703125 160.599609375 507.834960938 c 4,5,6
 160.599609375 502.147460938 160.599609375 502.147460938 179.799804688 476.55078125 c 132,-1,7
 199 450.955078125 199 450.955078125 221.080078125 428.202148438 c 4,8,9
 247.959960938 399.762695312 247.959960938 399.762695312 251.799804688 390.283203125 c 132,-1,10
 255.639648438 380.802734375 255.639648438 380.802734375 264.279296875 375.115234375 c 4,11,12
 272.919921875 367.53125 272.919921875 367.53125 292.120117188 342.8828125 c 4,13,14
 310.359375 317.287109375 310.359375 317.287109375 318.040039062 314.443359375 c 260,15,16
 325.719726562 311.599609375 325.719726562 311.599609375 325.719726562 304.962890625 c 260,17,18
 325.719726562 298.327148438 325.719726562 298.327148438 339.16015625 286.002929688 c 4,19,20
 357.399414062 268.939453125 357.399414062 268.939453125 391 227.2265625 c 4,21,22
 406.359375 208.266601562 406.359375 208.266601562 408.279296875 211.110351562 c 4,23,24
 410.19921875 213.006835938 410.19921875 213.006835938 411.16015625 217.747070312 c 4,25,26
 415.959960938 230.071289062 415.959960938 230.071289062 415 343.831054688 c 6,27,-1
 413.080078125 458.5390625 l 5,28,-1
 448.599609375 493.615234375 l 6,29,30
 482.19921875 529.639648438 482.19921875 529.639648438 492.759765625 527.743164062 c 4,31,32
 499.479492188 526.794921875 499.479492188 526.794921875 501.399414062 508.783203125 c 4,33,34
 503.319335938 485.083007812 503.319335938 485.083007812 504.279296875 317.287109375 c 6,35,-1
 505.239257812 106.831054688 l 5,36,-1
 493.719726562 89.7666015625 l 6,37,38
 477.399414062 66.06640625 477.399414062 66.06640625 451.959960938 43.314453125 c 132,-1,39
 426.51953125 20.5625 426.51953125 20.5625 415.959960938 20.5625 c 4,40,41
 410.19921875 20.5625 410.19921875 20.5625 395.799804688 35.7314453125 c 132,-1,42
 381.399414062 50.8994140625 381.399414062 50.8994140625 368.919921875 70.806640625 c 4,43,44
 361.239257812 82.18359375 361.239257812 82.18359375 341.080078125 103.0390625 c 4,45,46
 319.959960938 124.84375 319.959960938 124.84375 284.919921875 166.081054688 c 132,-1,47
 249.879882812 207.319335938 249.879882812 207.319335938 234.51953125 229.123046875 c 4,48,49
 216.279296875 250.926757812 216.279296875 250.926757812 199 269.887695312 c 4,50,51
 191.319335938 277.470703125 191.319335938 277.470703125 187 281.262695312 c 132,-1,52
 182.6796875 285.0546875 182.6796875 285.0546875 179.799804688 286.950195312 c 132,-1,53
 176.919921875 288.84765625 176.919921875 288.84765625 175.959960938 287.424804688 c 132,-1,54
 175 286.002929688 175 286.002929688 173.080078125 283.159179688 c 4,55,56
 171.16015625 277.470703125 171.16015625 277.470703125 167.799804688 234.336914062 c 132,-1,57
 164.439453125 191.202148438 164.439453125 191.202148438 165.399414062 176.03515625 c 4,58,59
 165.399414062 173.19140625 165.399414062 173.19140625 167.319335938 143.802734375 c 4,60,61
 169.239257812 115.362304688 169.239257812 115.362304688 164.439453125 107.779296875 c 4,62,63
 159.639648438 98.2998046875 159.639648438 98.2998046875 165.399414062 91.6630859375 c 4,64,65
 170.19921875 85.974609375 170.19921875 85.974609375 163.479492188 73.1767578125 c 132,-1,66
 156.759765625 60.37890625 156.759765625 60.37890625 145.239257812 53.7431640625 c 4,67,68
 135.639648438 49.9501953125 135.639648438 49.9501953125 135.639648438 43.314453125 c 4,69,70
 135.639648438 34.783203125 135.639648438 34.783203125 114.51953125 20.0888671875 c 132,-1,71
 93.3994140625 5.3955078125 93.3994140625 5.3955078125 80.919921875 5.3955078125 c 4,72,73
 75.16015625 5.3955078125 75.16015625 5.3955078125 73.2392578125 22.458984375 c 4,74,75
 71.3193359375 44.2626953125 71.3193359375 44.2626953125 71.3193359375 215.850585938 c 4,76,77
 70.359375 427.254882812 70.359375 427.254882812 68.439453125 430.099609375 c 4,78,79
 64.599609375 433.891601562 64.599609375 433.891601562 55.9599609375 431.047851562 c 4,80,81
 47.3193359375 429.150390625 47.3193359375 429.150390625 39.16015625 434.365234375 c 132,-1,82
 31 439.579101562 31 439.579101562 31 447.163085938 c 132,-1,83
 31 454.747070312 31 454.747070312 46.83984375 471.810546875 c 132,-1,84
 62.6796875 488.875 62.6796875 488.875 85.7197265625 507.834960938 c 4,0,1
EndSplineSet
MultipleSubs2: "Multiple Substitution lookup 2 subtable" n cartoucheMiddleTok
Substitution2: "'liga' Standard Ligatures in Latin lookup 1 subtable" nTok
EndChar

StartChar: o
Encoding: 326 111 70
Width: 464
VWidth: 980
GlyphClass: 1
Flags: W
LayerCount: 2
Fore
SplineSet
261.529296875 432.66015625 m 4,0,1
 236.813476562 437.95703125 236.813476562 437.95703125 193.560546875 434.424804688 c 4,2,3
 171.493164062 432.66015625 171.493164062 432.66015625 160.901367188 423.391601562 c 132,-1,4
 150.30859375 414.123046875 150.30859375 414.123046875 140.598632812 387.642578125 c 4,5,6
 130.888671875 362.044921875 130.888671875 362.044921875 127.358398438 341.30078125 c 132,-1,7
 123.828125 320.557617188 123.828125 320.557617188 121.1796875 276.421875 c 4,8,9
 119.4140625 248.17578125 119.4140625 248.17578125 123.38671875 216.83984375 c 132,-1,10
 127.358398438 185.504882812 127.358398438 185.504882812 133.537109375 178.442382812 c 4,11,12
 137.951171875 173.146484375 137.951171875 173.146484375 137.951171875 166.084960938 c 4,13,14
 137.951171875 158.140625 137.951171875 158.140625 164.431640625 130.776367188 c 4,15,16
 181.203125 113.123046875 181.203125 113.123046875 190.470703125 107.385742188 c 132,-1,17
 199.740234375 101.6484375 199.740234375 101.6484375 216.51171875 98.1162109375 c 4,18,19
 296.836914062 82.228515625 296.836914062 82.228515625 318.021484375 132.541992188 c 4,20,21
 325.965820312 151.961914062 325.965820312 151.961914062 333.02734375 181.973632812 c 132,-1,22
 340.088867188 211.985351562 340.088867188 211.985351562 340.971679688 228.756835938 c 4,23,24
 340.971679688 245.528320312 340.971679688 245.528320312 345.384765625 252.588867188 c 4,25,26
 349.798828125 257.885742188 349.798828125 257.885742188 344.502929688 260.534179688 c 4,27,28
 340.088867188 263.181640625 340.088867188 263.181640625 340.088867188 281.71875 c 4,29,30
 340.088867188 294.958984375 340.088867188 294.958984375 334.3515625 321.881835938 c 132,-1,31
 328.61328125 348.803710938 328.61328125 348.803710938 322.435546875 363.809570312 c 4,32,33
 319.787109375 371.75390625 319.787109375 371.75390625 318.904296875 377.93359375 c 4,34,35
 313.607421875 421.185546875 313.607421875 421.185546875 261.529296875 432.66015625 c 4,0,1
102.642578125 494.450195312 m 6,36,-1
 135.301757812 528.874023438 l 5,37,-1
 216.51171875 529.756835938 l 6,38,39
 297.719726562 529.756835938 297.719726562 529.756835938 300.368164062 525.34375 c 132,-1,40
 303.015625 520.930664062 303.015625 520.930664062 325.083007812 518.282226562 c 4,41,42
 360.391601562 512.985351562 360.391601562 512.985351562 384.223632812 487.387695312 c 4,43,44
 392.16796875 478.560546875 392.16796875 478.560546875 400.553710938 458.258789062 c 132,-1,45
 408.939453125 437.95703125 408.939453125 437.95703125 408.939453125 427.364257812 c 4,46,47
 408.939453125 418.537109375 408.939453125 418.537109375 413.353515625 410.592773438 c 4,48,49
 417.766601562 404.4140625 417.766601562 404.4140625 424.828125 354.099609375 c 4,50,51
 430.124023438 319.674804688 430.124023438 319.674804688 429.682617188 306.434570312 c 132,-1,52
 429.241210938 293.193359375 429.241210938 293.193359375 423.0625 262.299804688 c 4,53,54
 411.586914062 206.689453125 411.586914062 206.689453125 400.553710938 177.559570312 c 132,-1,55
 389.51953125 148.430664062 389.51953125 148.430664062 370.983398438 122.833007812 c 4,56,57
 355.977539062 102.53125 355.977539062 102.53125 323.758789062 72.5185546875 c 132,-1,58
 291.540039062 42.5068359375 291.540039062 42.5068359375 278.30078125 35.4453125 c 4,59,60
 259.763671875 25.736328125 259.763671875 25.736328125 257.115234375 23.087890625 c 4,61,62
 250.053710938 13.3779296875 250.053710938 13.3779296875 206.80078125 7.640625 c 132,-1,63
 163.548828125 1.9033203125 163.548828125 1.9033203125 158.252929688 9.8466796875 c 4,64,65
 156.487304688 14.2607421875 156.487304688 14.2607421875 144.129882812 14.2607421875 c 4,66,67
 132.654296875 14.2607421875 132.654296875 14.2607421875 108.821289062 31.9140625 c 260,68,69
 84.9892578125 49.568359375 84.9892578125 49.568359375 75.2783203125 61.9267578125 c 132,-1,70
 65.5693359375 74.2841796875 65.5693359375 74.2841796875 49.6806640625 106.061523438 c 4,71,72
 40.8544921875 123.715820312 40.8544921875 123.715820312 36.880859375 171.380859375 c 132,-1,73
 32.9091796875 219.046875 32.9091796875 219.046875 37.322265625 251.70703125 c 4,74,75
 45.267578125 312.61328125 45.267578125 312.61328125 49.6806640625 324.970703125 c 4,76,77
 59.390625 347.920898438 59.390625 347.920898438 74.3955078125 375.284179688 c 132,-1,78
 89.40234375 402.6484375 89.40234375 402.6484375 96.462890625 411.475585938 c 4,79,80
 108.821289062 424.715820312 108.821289062 424.715820312 107.056640625 430.453125 c 132,-1,81
 105.291015625 436.19140625 105.291015625 436.19140625 88.51953125 439.721679688 c 4,82,83
 69.099609375 444.135742188 69.099609375 444.135742188 69.099609375 452.079101562 c 260,84,85
 69.099609375 460.024414062 69.099609375 460.024414062 102.642578125 494.450195312 c 6,36,-1
EndSplineSet
MultipleSubs2: "Multiple Substitution lookup 2 subtable" o cartoucheMiddleTok
Substitution2: "'liga' Standard Ligatures in Latin lookup 1 subtable" oTok
EndChar

StartChar: p
Encoding: 327 112 71
Width: 345
VWidth: 980
GlyphClass: 1
Flags: W
LayerCount: 2
Fore
SplineSet
186.500976562 413.01953125 m 4,0,1
 165.743164062 432.833007812 165.743164062 432.833007812 149.704101562 432.833007812 c 4,2,3
 136.495117188 432.833007812 136.495117188 432.833007812 134.608398438 428.587890625 c 132,-1,4
 132.720703125 424.341796875 132.720703125 424.341796875 132.720703125 398.8671875 c 4,5,6
 132.720703125 396.98046875 132.720703125 396.98046875 132.720703125 369.147460938 c 132,-1,7
 132.720703125 341.314453125 132.720703125 341.314453125 132.720703125 321.500976562 c 4,8,9
 133.6640625 261.1171875 133.6640625 261.1171875 138.381835938 261.1171875 c 260,10,11
 143.098632812 261.1171875 143.098632812 261.1171875 174.234375 282.81640625 c 132,-1,12
 205.37109375 304.517578125 205.37109375 304.517578125 211.974609375 312.065429688 c 4,13,14
 217.635742188 320.556640625 217.635742188 320.556640625 220.466796875 339.426757812 c 4,15,16
 225.18359375 375.280273438 225.18359375 375.280273438 186.500976562 413.01953125 c 4,0,1
162.913085938 521.522460938 m 4,17,18
 195.935546875 538.505859375 195.935546875 538.505859375 235.5625 520.579101562 c 4,19,20
 270.471679688 504.5390625 270.471679688 504.5390625 297.833007812 465.85546875 c 4,21,22
 307.268554688 453.590820312 307.268554688 453.590820312 309.626953125 444.626953125 c 132,-1,23
 311.985351562 435.6640625 311.985351562 435.6640625 311.041992188 412.077148438 c 4,24,25
 311.041992188 378.111328125 311.041992188 378.111328125 305.381835938 372.44921875 c 4,26,27
 300.6640625 366.788085938 300.6640625 366.788085938 300.6640625 361.127929688 c 4,28,29
 300.6640625 352.635742188 300.6640625 352.635742188 281.322265625 323.859375 c 132,-1,30
 261.98046875 295.08203125 261.98046875 295.08203125 243.110351562 275.26953125 c 4,31,32
 228.013671875 258.286132812 228.013671875 258.286132812 203.955078125 239.887695312 c 132,-1,33
 179.895507812 221.489257812 179.895507812 221.489257812 174.234375 221.489257812 c 4,34,35
 170.4609375 221.489257812 170.4609375 221.489257812 152.534179688 207.336914062 c 6,36,-1
 133.6640625 192.241210938 l 5,37,-1
 133.6640625 129.969726562 l 6,38,39
 133.6640625 68.642578125 133.6640625 68.642578125 128.002929688 62.9814453125 c 4,40,41
 84.6025390625 16.75 84.6025390625 16.75 74.6953125 8.73046875 c 132,-1,42
 64.7890625 0.7109375 64.7890625 0.7109375 53.466796875 1.654296875 c 260,43,44
 42.14453125 2.59765625 42.14453125 2.59765625 40.2578125 5.4287109375 c 132,-1,45
 38.37109375 8.2587890625 38.37109375 8.2587890625 39.3134765625 20.5244140625 c 4,46,47
 40.2578125 39.39453125 40.2578125 39.39453125 40.2578125 45.0546875 c 4,48,49
 40.2578125 135.630859375 40.2578125 135.630859375 41.201171875 236.5859375 c 4,50,51
 41.201171875 421.51171875 41.201171875 421.51171875 41.201171875 435.6640625 c 4,52,53
 41.201171875 445.099609375 41.201171875 445.099609375 47.3349609375 455.004882812 c 132,-1,54
 53.466796875 464.912109375 53.466796875 464.912109375 73.2802734375 485.668945312 c 4,55,56
 94.037109375 508.313476562 94.037109375 508.313476562 103 514.91796875 c 132,-1,57
 111.963867188 521.522460938 111.963867188 521.522460938 121.399414062 521.522460938 c 4,58,59
 136.495117188 521.522460938 136.495117188 521.522460938 141.211914062 516.8046875 c 260,60,61
 145.9296875 512.087890625 145.9296875 512.087890625 162.913085938 521.522460938 c 4,17,18
EndSplineSet
MultipleSubs2: "Multiple Substitution lookup 2 subtable" p cartoucheMiddleTok
EndChar

StartChar: q
Encoding: 328 113 72
Width: 598
VWidth: 980
GlyphClass: 1
Flags: W
LayerCount: 2
Fore
SplineSet
326.454101562 429 m 0,0,1
 269.454101562 440 269.454101562 440 256.454101562 431 c 0,2,3
 247.454101562 426 247.454101562 426 232.454101562 426 c 0,4,5
 212.454101562 426 212.454101562 426 186.954101562 404.5 c 128,-1,6
 161.454101562 383 161.454101562 383 146.454101562 352 c 0,7,8
 134.454101562 329 134.454101562 329 134.454101562 287 c 0,9,10
 134.454101562 244 134.454101562 244 142.454101562 232 c 0,11,12
 151.454101562 218 151.454101562 218 153.454101562 207 c 0,13,14
 157.454101562 194 157.454101562 194 169.454101562 179 c 0,15,16
 181.454101562 166 181.454101562 166 184.454101562 161 c 0,17,18
 186.454101562 157 186.454101562 157 208.454101562 141 c 128,-1,19
 230.454101562 125 230.454101562 125 242.454101562 119 c 0,20,21
 259.454101562 110 259.454101562 110 309.454101562 110.5 c 128,-1,22
 359.454101562 111 359.454101562 111 368.454101562 120 c 0,23,24
 374.454101562 126 374.454101562 126 373.954101562 129 c 128,-1,25
 373.454101562 132 373.454101562 132 364.454101562 140 c 0,26,27
 349.454101562 155 349.454101562 155 341.454101562 169 c 0,28,29
 334.454101562 181 334.454101562 181 334.954101562 186 c 128,-1,30
 335.454101562 191 335.454101562 191 342.454101562 205 c 0,31,32
 352.454101562 224 352.454101562 224 360.454101562 226 c 0,33,34
 367.454101562 228 367.454101562 228 381.454101562 246 c 0,35,36
 395.454101562 266 395.454101562 266 408.454101562 267.5 c 128,-1,37
 421.454101562 269 421.454101562 269 436.454101562 252 c 0,38,39
 451.454101562 234 451.454101562 234 456.454101562 242 c 0,40,41
 459.454101562 249 459.454101562 249 462.454101562 289 c 0,42,43
 465.454101562 319 465.454101562 319 458.954101562 336.5 c 128,-1,44
 452.454101562 354 452.454101562 354 430.454101562 374 c 0,45,46
 416.454101562 387 416.454101562 387 411.454101562 399 c 0,47,48
 407.454101562 410 407.454101562 410 396.454101562 410 c 0,49,50
 384.454101562 410 384.454101562 410 374.454101562 416 c 0,51,52
 363.454101562 422 363.454101562 422 326.454101562 429 c 0,0,1
269.454101562 517 m 0,53,54
 283.454101562 525 283.454101562 525 296.454101562 527 c 128,-1,55
 309.454101562 529 309.454101562 529 356.454101562 529 c 0,56,57
 423.454101562 528 423.454101562 528 425.454101562 524 c 0,58,59
 428.454101562 520 428.454101562 520 437.454101562 520 c 0,60,61
 450.454101562 520 450.454101562 520 480.954101562 501.5 c 128,-1,62
 511.454101562 483 511.454101562 483 520.454101562 470 c 0,63,64
 531.454101562 452 531.454101562 452 538.454101562 452 c 256,65,66
 545.454101562 452 545.454101562 452 554.454101562 437 c 0,67,68
 570.454101562 409 570.454101562 409 558.954101562 327.5 c 128,-1,69
 547.454101562 246 547.454101562 246 520.454101562 198 c 0,70,71
 511.454101562 181 511.454101562 181 511.454101562 174 c 0,72,73
 511.454101562 168 511.454101562 168 537.454101562 140 c 0,74,75
 563.454101562 113 563.454101562 113 563.454101562 102 c 0,76,77
 563.454101562 92 563.454101562 92 537.954101562 63.5 c 128,-1,78
 512.454101562 35 512.454101562 35 491.454101562 21 c 0,79,80
 483.454101562 15 483.454101562 15 479.454101562 16 c 128,-1,81
 475.454101562 17 475.454101562 17 466.454101562 25 c 0,82,83
 453.454101562 37 453.454101562 37 453.454101562 43 c 128,-1,84
 453.454101562 49 453.454101562 49 438.454101562 63 c 2,85,-1
 423.454101562 78 l 1,86,-1
 395.454101562 60 l 2,87,88
 312.454101562 5 312.454101562 5 222.454101562 12 c 0,89,90
 198.454101562 14 198.454101562 14 170.454101562 22 c 128,-1,91
 142.454101562 30 142.454101562 30 131.454101562 38 c 0,92,93
 114.454101562 50 114.454101562 50 91.4541015625 78 c 128,-1,94
 68.4541015625 106 68.4541015625 106 58.4541015625 126 c 0,95,96
 44.4541015625 156 44.4541015625 156 37.4541015625 183.5 c 128,-1,97
 30.4541015625 211 30.4541015625 211 34.4541015625 221 c 0,98,99
 39.4541015625 233 39.4541015625 233 39.4541015625 251 c 0,100,101
 40.4541015625 273 40.4541015625 273 46.4541015625 283 c 0,102,103
 50.4541015625 289 50.4541015625 289 66.4541015625 324 c 0,104,105
 102.454101562 400 102.454101562 400 198.454101562 477 c 0,106,107
 231.454101562 503 231.454101562 503 239.454101562 504 c 0,108,109
 247.454101562 504 247.454101562 504 269.454101562 517 c 0,53,54
EndSplineSet
EndChar

StartChar: r
Encoding: 329 114 73
Width: 476
VWidth: 980
GlyphClass: 1
Flags: W
LayerCount: 2
Fore
SplineSet
264.693359375 410.982421875 m 4,0,1
 232.23046875 435.09765625 232.23046875 435.09765625 186.783203125 428.60546875 c 4,2,3
 176.581054688 427.677734375 176.581054688 427.677734375 174.725585938 422.576171875 c 132,-1,4
 172.87109375 417.474609375 172.87109375 417.474609375 172.87109375 390.577148438 c 4,5,6
 171.015625 254.235351562 171.015625 254.235351562 175.653320312 250.525390625 c 4,7,8
 177.5078125 247.7421875 177.5078125 247.7421875 206.260742188 260.727539062 c 260,9,10
 235.012695312 273.712890625 235.012695312 273.712890625 244.288085938 273.712890625 c 4,11,12
 269.331054688 273.712890625 269.331054688 273.712890625 306.430664062 297.827148438 c 4,13,14
 319.416015625 306.174804688 319.416015625 306.174804688 322.198242188 310.8125 c 132,-1,15
 324.98046875 315.450195312 324.98046875 315.450195312 324.052734375 326.580078125 c 4,16,17
 318.48828125 371.099609375 318.48828125 371.099609375 264.693359375 410.982421875 c 4,0,1
94.033203125 522.282226562 m 4,18,19
 107.018554688 527.84765625 107.018554688 527.84765625 169.161132812 528.775390625 c 4,20,21
 243.360351562 529.702148438 243.360351562 529.702148438 285.561523438 519.963867188 c 132,-1,22
 327.762695312 510.224609375 327.762695312 510.224609375 356.979492188 485.182617188 c 132,-1,23
 386.1953125 460.139648438 386.1953125 460.139648438 414.020507812 410.0546875 c 4,24,25
 425.150390625 388.72265625 425.150390625 388.72265625 416.802734375 359.505859375 c 132,-1,26
 408.456054688 330.290039062 408.456054688 330.290039062 383.413085938 300.610351562 c 4,27,28
 364.86328125 280.205078125 364.86328125 280.205078125 360.225585938 269.5390625 c 132,-1,29
 355.587890625 258.872070312 355.587890625 258.872070312 362.081054688 250.525390625 c 4,30,31
 369.500976562 241.25 369.500976562 241.25 412.166015625 159.629882812 c 4,32,33
 435.353515625 116.037109375 435.353515625 116.037109375 439.063476562 111.400390625 c 4,34,35
 443.700195312 106.762695312 443.700195312 106.762695312 443.700195312 87.28515625 c 4,36,37
 443.700195312 74.2998046875 443.700195312 74.2998046875 439.52734375 67.8076171875 c 132,-1,38
 435.353515625 61.3154296875 435.353515625 61.3154296875 418.658203125 46.474609375 c 4,39,40
 388.05078125 18.650390625 388.05078125 18.650390625 385.268554688 15.8671875 c 4,41,42
 375.065429688 6.5927734375 375.065429688 6.5927734375 367.645507812 8.9111328125 c 132,-1,43
 360.225585938 11.23046875 360.225585938 11.23046875 351.877929688 28.8525390625 c 4,44,45
 340.748046875 52.9677734375 340.748046875 52.9677734375 311.068359375 106.762695312 c 4,46,47
 285.098632812 154.065429688 285.098632812 154.065429688 272.11328125 180.962890625 c 4,48,49
 266.547851562 192.092773438 266.547851562 192.092773438 262.374023438 194.411132812 c 132,-1,50
 258.200195312 196.73046875 258.200195312 196.73046875 241.505859375 194.875 c 4,51,52
 188.637695312 189.309570312 188.637695312 189.309570312 176.581054688 177.252929688 c 4,53,54
 171.943359375 172.615234375 171.943359375 172.615234375 171.015625 132.732421875 c 4,55,56
 170.087890625 90.0673828125 170.087890625 90.0673828125 168.233398438 81.7197265625 c 132,-1,57
 166.377929688 73.3720703125 166.377929688 73.3720703125 156.17578125 62.2421875 c 4,58,59
 103.30859375 2.8828125 103.30859375 2.8828125 91.2509765625 2.8828125 c 4,60,61
 85.685546875 2.8828125 85.685546875 2.8828125 83.3671875 9.8388671875 c 132,-1,62
 81.0478515625 16.794921875 81.0478515625 16.794921875 79.193359375 40.91015625 c 132,-1,63
 77.337890625 65.025390625 77.337890625 65.025390625 77.337890625 111.400390625 c 132,-1,64
 77.337890625 157.775390625 77.337890625 157.775390625 77.337890625 237.540039062 c 4,65,66
 78.265625 425.822265625 78.265625 425.822265625 74.5556640625 431.387695312 c 4,67,68
 71.7734375 437.879882812 71.7734375 437.879882812 52.2958984375 437.879882812 c 4,69,70
 29.1083984375 437.879882812 29.1083984375 437.879882812 30.0361328125 447.155273438 c 4,71,72
 30.962890625 459.212890625 30.962890625 459.212890625 68.0634765625 500.022460938 c 4,73,74
 81.0478515625 514.862304688 81.0478515625 514.862304688 94.033203125 522.282226562 c 4,18,19
EndSplineSet
EndChar

StartChar: s
Encoding: 330 115 74
Width: 436
VWidth: 980
GlyphClass: 1
Flags: W
LayerCount: 2
Fore
SplineSet
252.373046875 512.5546875 m 4,0,1
 281.58984375 526.692382812 281.58984375 526.692382812 302.796875 528.577148438 c 132,-1,2
 324.002929688 530.462890625 324.002929688 530.462890625 350.392578125 520.094726562 c 4,3,4
 373.955078125 511.612304688 373.955078125 511.612304688 383.8515625 499.360351562 c 132,-1,5
 393.748046875 487.107421875 393.748046875 487.107421875 387.150390625 474.85546875 c 4,6,7
 380.552734375 461.66015625 380.552734375 461.66015625 355.576171875 436.68359375 c 132,-1,8
 330.600585938 411.70703125 330.600585938 411.70703125 323.060546875 411.70703125 c 260,9,10
 315.520507812 411.70703125 315.520507812 411.70703125 307.038085938 421.1328125 c 4,11,12
 298.555664062 429.615234375 298.555664062 429.615234375 274.049804688 435.741210938 c 132,-1,13
 249.544921875 441.8671875 249.544921875 441.8671875 234.46484375 439.040039062 c 4,14,15
 200.53515625 432.442382812 200.53515625 432.442382812 200.53515625 402.282226562 c 4,16,17
 200.53515625 380.60546875 200.53515625 380.60546875 214.672851562 367.41015625 c 132,-1,18
 228.810546875 354.21484375 228.810546875 354.21484375 264.625 339.134765625 c 4,19,20
 291.958007812 328.767578125 291.958007812 328.767578125 324.473632812 311.802734375 c 132,-1,21
 356.990234375 294.837890625 356.990234375 294.837890625 367.357421875 286.35546875 c 4,22,23
 394.690429688 263.735351562 394.690429688 263.735351562 400.81640625 226.505859375 c 132,-1,24
 406.942382812 189.27734375 406.942382812 189.27734375 389.03515625 155.34765625 c 4,25,26
 367.357421875 111.9921875 367.357421875 111.9921875 329.186523438 69.1083984375 c 132,-1,27
 291.015625 26.224609375 291.015625 26.224609375 263.682617188 13.97265625 c 4,28,29
 231.637695312 -0.1650390625 231.637695312 -0.1650390625 193.9375 6.9033203125 c 132,-1,30
 156.237304688 13.97265625 156.237304688 13.97265625 121.365234375 41.3046875 c 4,31,32
 93.08984375 62.982421875 93.08984375 62.982421875 87.435546875 62.982421875 c 4,33,34
 82.72265625 62.982421875 82.72265625 62.982421875 63.873046875 47.90234375 c 4,35,36
 53.5048828125 40.3623046875 53.5048828125 40.3623046875 45.494140625 37.0634765625 c 132,-1,37
 37.482421875 33.7646484375 37.482421875 33.7646484375 33.2412109375 36.5927734375 c 132,-1,38
 29 39.419921875 29 39.419921875 29 47.90234375 c 4,39,40
 29 64.8671875 29 64.8671875 81.7802734375 115.762695312 c 132,-1,41
 134.560546875 166.657226562 134.560546875 166.657226562 153.41015625 166.657226562 c 4,42,43
 161.892578125 166.657226562 161.892578125 166.657226562 167.547851562 153.462890625 c 4,44,45
 174.145507812 135.5546875 174.145507812 135.5546875 199.12109375 118.119140625 c 132,-1,46
 224.09765625 100.682617188 224.09765625 100.682617188 258.969726562 90.3154296875 c 4,47,48
 278.762695312 84.66015625 278.762695312 84.66015625 284.41796875 87.0166015625 c 132,-1,49
 290.072265625 89.3720703125 290.072265625 89.3720703125 304.209960938 108.22265625 c 4,50,51
 333.427734375 149.692382812 333.427734375 149.692382812 305.15234375 189.27734375 c 4,52,53
 290.072265625 209.0703125 290.072265625 209.0703125 283.475585938 214.724609375 c 4,54,55
 274.049804688 222.264648438 274.049804688 222.264648438 233.522460938 241.115234375 c 132,-1,56
 192.995117188 259.96484375 192.995117188 259.96484375 176.030273438 264.677734375 c 4,57,58
 157.180664062 269.389648438 157.180664062 269.389648438 140.21484375 286.826171875 c 132,-1,59
 123.25 304.262695312 123.25 304.262695312 119.48046875 321.227539062 c 4,60,61
 115.709960938 340.077148438 115.709960938 340.077148438 122.779296875 368.352539062 c 132,-1,62
 129.84765625 396.627929688 129.84765625 396.627929688 141.157226562 413.592773438 c 4,63,64
 161.892578125 442.809570312 161.892578125 442.809570312 193.466796875 471.084960938 c 132,-1,65
 225.040039062 499.360351562 225.040039062 499.360351562 252.373046875 512.5546875 c 4,0,1
EndSplineSet
MultipleSubs2: "Multiple Substitution lookup 2 subtable" s cartoucheMiddleTok
EndChar

StartChar: t
Encoding: 331 116 75
Width: 440
VWidth: 980
GlyphClass: 1
Flags: W
LayerCount: 2
Fore
SplineSet
104.530273438 522.419921875 m 260,0,1
 116.139648438 528.224609375 116.139648438 528.224609375 262.232421875 528.224609375 c 6,2,-1
 408.325195312 527.2578125 l 5,3,-1
 410.259765625 516.615234375 l 6,4,5
 411.227539062 505.97265625 411.227539062 505.97265625 387.040039062 478.8828125 c 4,6,7
 352.209960938 442.1171875 352.209960938 442.1171875 342.53515625 435.829101562 c 132,-1,8
 332.860351562 429.540039062 332.860351562 429.540039062 306.737304688 429.540039062 c 4,9,10
 275.77734375 429.540039062 275.77734375 429.540039062 272.875 425.669921875 c 4,11,12
 269.97265625 420.83203125 269.97265625 420.83203125 269.97265625 259.259765625 c 4,13,14
 269.97265625 257.325195312 269.97265625 257.325195312 269.97265625 253.455078125 c 4,15,16
 269.004882812 119.940429688 269.004882812 119.940429688 264.16796875 92.849609375 c 132,-1,17
 259.330078125 65.759765625 259.330078125 65.759765625 228.370117188 35.767578125 c 4,18,19
 226.435546875 34.7998046875 226.435546875 34.7998046875 225.467773438 33.83203125 c 4,20,21
 183.865234375 -6.802734375 183.865234375 -6.802734375 174.190429688 11.580078125 c 4,22,23
 173.22265625 12.5478515625 173.22265625 12.5478515625 173.22265625 13.5146484375 c 4,24,25
 171.288085938 18.3525390625 171.288085938 18.3525390625 174.190429688 325.049804688 c 4,26,27
 174.190429688 380.197265625 174.190429688 380.197265625 171.288085938 391.807617188 c 4,28,29
 170.3203125 395.677734375 170.3203125 395.677734375 168.869140625 404.869140625 c 132,-1,30
 167.41796875 414.059570312 167.41796875 414.059570312 166.450195312 417.9296875 c 6,31,-1
 163.547851562 430.5078125 l 5,32,-1
 104.530273438 429.540039062 l 6,33,34
 42.6103515625 428.572265625 42.6103515625 428.572265625 39.7080078125 429.540039062 c 4,35,36
 31 430.5078125 31 430.5078125 31 439.69921875 c 132,-1,37
 31 448.889648438 31 448.889648438 40.6748046875 459.532226562 c 4,38,39
 53.2529296875 474.044921875 53.2529296875 474.044921875 53.2529296875 478.3984375 c 132,-1,40
 53.2529296875 482.752929688 53.2529296875 482.752929688 73.0859375 499.68359375 c 132,-1,41
 92.919921875 516.615234375 92.919921875 516.615234375 104.530273438 522.419921875 c 260,0,1
EndSplineSet
MultipleSubs2: "Multiple Substitution lookup 2 subtable" t cartoucheMiddleTok
EndChar

StartChar: u
Encoding: 332 117 76
Width: 535
VWidth: 980
GlyphClass: 1
Flags: W
LayerCount: 2
Fore
SplineSet
459.797851562 526.647460938 m 260,0,1
 471.153320312 534.216796875 471.153320312 534.216796875 481.5625 533.271484375 c 4,2,3
 488.185546875 533.271484375 488.185546875 533.271484375 489.60546875 526.174804688 c 132,-1,4
 491.024414062 519.077148438 491.024414062 519.077148438 491.024414062 490.689453125 c 4,5,6
 491.024414062 451.891601562 491.024414062 451.891601562 488.185546875 419.71875 c 4,7,8
 485.346679688 388.491210938 485.346679688 388.491210938 489.1328125 364.833984375 c 4,9,10
 494.810546875 342.123046875 494.810546875 342.123046875 496.702148438 214.375976562 c 6,11,-1
 498.595703125 88.5224609375 l 5,12,-1
 464.529296875 55.40234375 l 6,13,14
 427.625 20.390625 427.625 20.390625 419.108398438 23.2294921875 c 132,-1,15
 410.591796875 26.068359375 410.591796875 26.068359375 407.752929688 74.328125 c 4,16,17
 403.967773438 126.372070312 403.967773438 126.372070312 399.709960938 126.372070312 c 132,-1,18
 395.451171875 126.372070312 395.451171875 126.372070312 389.7734375 116.91015625 c 4,19,20
 379.365234375 102.715820312 379.365234375 102.715820312 350.9765625 73.3818359375 c 132,-1,21
 322.587890625 44.0478515625 322.587890625 44.0478515625 306.500976562 31.7451171875 c 4,22,23
 289.467773438 18.498046875 289.467773438 18.498046875 276.220703125 13.29296875 c 132,-1,24
 262.97265625 8.087890625 262.97265625 8.087890625 236.4765625 4.3037109375 c 4,25,26
 214.712890625 1.46484375 214.712890625 1.46484375 175.442382812 18.498046875 c 132,-1,27
 136.171875 35.53125 136.171875 35.53125 121.978515625 54.4560546875 c 4,28,29
 113.461914062 66.7568359375 113.461914062 66.7568359375 98.7939453125 114.543945312 c 132,-1,30
 84.126953125 162.33203125 84.126953125 162.33203125 79.3955078125 200.181640625 c 4,31,32
 74.6640625 231.409179688 74.6640625 231.409179688 73.7177734375 302.853515625 c 132,-1,33
 72.771484375 374.296875 72.771484375 374.296875 76.556640625 386.59765625 c 6,34,-1
 81.2880859375 397.953125 l 5,35,-1
 62.3623046875 385.65234375 l 6,36,37
 43.4365234375 372.404296875 43.4365234375 372.404296875 36.8134765625 372.404296875 c 4,38,39
 33.0283203125 372.404296875 33.0283203125 372.404296875 31.6083984375 379.500976562 c 132,-1,40
 30.189453125 386.59765625 30.189453125 386.59765625 32.0810546875 395.114257812 c 132,-1,41
 33.974609375 403.630859375 33.974609375 403.630859375 37.7587890625 407.416015625 c 4,42,43
 45.330078125 413.09375 45.330078125 413.09375 45.330078125 418.771484375 c 132,-1,44
 45.330078125 424.44921875 45.330078125 424.44921875 70.4052734375 449.999023438 c 132,-1,45
 95.482421875 475.548828125 95.482421875 475.548828125 114.407226562 489.7421875 c 4,46,47
 131.440429688 502.990234375 131.440429688 502.990234375 134.279296875 505.829101562 c 4,48,49
 139.95703125 511.506835938 139.95703125 511.506835938 151.3125 515.764648438 c 132,-1,50
 162.666992188 520.0234375 162.666992188 520.0234375 171.18359375 520.0234375 c 4,51,52
 192.001953125 520.0234375 192.001953125 520.0234375 175.916015625 475.548828125 c 4,53,54
 167.399414062 454.729492188 167.399414062 454.729492188 167.399414062 364.361328125 c 132,-1,55
 167.399414062 273.991210938 167.399414062 273.991210938 175.916015625 243.7109375 c 4,56,57
 182.5390625 217.21484375 182.5390625 217.21484375 185.377929688 197.342773438 c 4,58,59
 189.163085938 179.364257812 189.163085938 179.364257812 201.46484375 151.921875 c 4,60,61
 229.853515625 96.091796875 229.853515625 96.091796875 305.555664062 100.823242188 c 4,62,63
 315.963867188 101.76953125 315.963867188 101.76953125 330.158203125 125.426757812 c 4,64,65
 349.083007812 157.599609375 349.083007812 157.599609375 360.912109375 207.752929688 c 132,-1,66
 372.740234375 257.905273438 372.740234375 257.905273438 383.149414062 355.372070312 c 4,67,68
 389.7734375 421.610351562 389.7734375 421.610351562 394.978515625 443.848632812 c 132,-1,69
 400.182617188 466.084960938 400.182617188 466.084960938 410.591796875 476.495117188 c 260,70,71
 421.000976562 486.903320312 421.000976562 486.903320312 435.1953125 503.936523438 c 4,72,73
 448.442382812 519.077148438 448.442382812 519.077148438 459.797851562 526.647460938 c 260,0,1
EndSplineSet
MultipleSubs2: "Multiple Substitution lookup 2 subtable" u cartoucheMiddleTok
EndChar

StartChar: v
Encoding: 333 118 77
Width: 420
VWidth: 980
GlyphClass: 1
Flags: W
LayerCount: 2
Fore
SplineSet
128 507 m 0,0,1
 162 530 162 530 181 528 c 2,2,-1
 199 527 l 1,3,-1
 198 501 l 2,4,5
 198 486 198 486 195 439 c 0,6,7
 191 403 191 403 197 396 c 0,8,9
 202 390 202 390 199 384 c 0,10,11
 195 377 195 377 196 257 c 128,-1,12
 197 137 197 137 201 133 c 0,13,14
 206 128 206 128 223 144 c 0,15,16
 236 155 236 155 263 179 c 2,17,-1
 286 200 l 1,18,-1
 285 310 l 2,19,20
 285 420 285 420 282 426 c 0,21,22
 276 436 276 436 312.5 475.5 c 128,-1,23
 349 515 349 515 367 516 c 0,24,25
 377 517 377 517 378 514 c 0,26,27
 383 507 383 507 384 339 c 0,28,29
 385.716796875 306.375 385.716796875 306.375 385 304 c 0,30,31
 345 207 345 207 279 134 c 0,32,33
 253.15234375 106.321289062 253.15234375 106.321289062 238 95 c 0,34,35
 221 75 221 75 188.5 48 c 128,-1,36
 156 21 156 21 140 13 c 256,37,38
 124 5 124 5 110.5 4.5 c 128,-1,39
 97 4 97 4 97 11 c 0,40,41
 96 35 96 35 97.5 216.5 c 128,-1,42
 99 398 99 398 100 402 c 0,43,44
 105 414 105 414 92 413 c 0,45,46
 84 412 84 412 69 404 c 0,47,48
 51 395 51 395 40.5 396 c 128,-1,49
 30 397 30 397 30 407 c 0,50,51
 30 416 30 416 64.5 451.5 c 128,-1,52
 99 487 99 487 128 507 c 0,0,1
EndSplineSet
EndChar

StartChar: w
Encoding: 334 119 78
Width: 599
VWidth: 980
GlyphClass: 1
Flags: W
LayerCount: 2
Fore
SplineSet
128 507 m 0,0,1
 162 530 162 530 181 528 c 2,2,-1
 199 527 l 1,3,-1
 198 501 l 2,4,5
 198 486 198 486 195 439 c 0,6,7
 191 403 191 403 197 396 c 0,8,9
 202 390 202 390 199 384 c 0,10,11
 195 377 195 377 196 257 c 128,-1,12
 197 137 197 137 201 133 c 0,13,14
 206 128 206 128 223 144 c 0,15,16
 236 155 236 155 263 179 c 2,17,-1
 286 200 l 1,18,-1
 285 310 l 2,19,20
 285 420 285 420 282 426 c 0,21,22
 276 436 276 436 312.5 475.5 c 128,-1,23
 349 515 349 515 367 516 c 0,24,25
 377 517 377 517 378 514 c 0,26,27
 383 507 383 507 384 339 c 0,28,29
 385 320 385 320 385 304 c 0,30,31
 386 133 386 133 392 131 c 256,32,33
 398 129 398 129 413 141 c 0,34,35
 417 145 417 145 428.5 154.5 c 128,-1,36
 440 164 440 164 444 167 c 2,37,-1
 459 180 l 1,38,-1
 460 313 l 2,39,40
 460 403 460 403 462 427 c 128,-1,41
 464 451 464 451 470 461 c 0,42,43
 490 492 490 492 515 512.5 c 128,-1,44
 540 533 540 533 552 528 c 0,45,46
 558 526 558 526 559 499 c 128,-1,47
 560 472 560 472 560 369 c 2,48,-1
 560 213 l 1,49,-1
 546 196 l 2,50,51
 529 176 529 176 506.5 155 c 128,-1,52
 484 134 484 134 478 134 c 0,53,54
 471 134 471 134 442 107 c 0,55,56
 406 73 406 73 366.5 45 c 128,-1,57
 327 17 327 17 309 12 c 0,58,59
 294 9 294 9 289.5 19.5 c 128,-1,60
 285 30 285 30 286 65 c 0,61,62
 291 134 291 134 279 134 c 0,63,64
 272 134 272 134 238 95 c 0,65,66
 221 75 221 75 188.5 48 c 128,-1,67
 156 21 156 21 140 13 c 256,68,69
 124 5 124 5 110.5 4.5 c 128,-1,70
 97 4 97 4 97 11 c 0,71,72
 96 35 96 35 97.5 216.5 c 128,-1,73
 99 398 99 398 100 402 c 0,74,75
 105 414 105 414 92 413 c 0,76,77
 84 412 84 412 69 404 c 0,78,79
 51 395 51 395 40.5 396 c 128,-1,80
 30 397 30 397 30 407 c 0,81,82
 30 416 30 416 64.5 451.5 c 128,-1,83
 99 487 99 487 128 507 c 0,0,1
EndSplineSet
MultipleSubs2: "Multiple Substitution lookup 2 subtable" w cartoucheMiddleTok
EndChar

StartChar: x
Encoding: 335 120 79
Width: 508
VWidth: 980
GlyphClass: 1
Flags: W
LayerCount: 2
Fore
SplineSet
141.993164062 518.9921875 m 4,0,1
 158.958984375 529.360351562 158.958984375 529.360351562 164.61328125 529.360351562 c 260,2,3
 170.268554688 529.360351562 170.268554688 529.360351562 192.888671875 496.372070312 c 4,4,5
 256.036132812 404.0078125 256.036132812 404.0078125 264.518554688 397.41015625 c 4,6,7
 268.288085938 394.58203125 268.288085938 394.58203125 277.713867188 377.6171875 c 4,8,9
 298.448242188 338.032226562 298.448242188 338.032226562 306.930664062 338.032226562 c 4,10,11
 311.643554688 338.032226562 311.643554688 338.032226562 334.734375 367.25 c 132,-1,12
 357.826171875 396.467773438 357.826171875 396.467773438 384.215820312 436.052734375 c 4,13,14
 395.526367188 453.017578125 395.526367188 453.017578125 427.099609375 481.29296875 c 132,-1,15
 458.673828125 509.567382812 458.673828125 509.567382812 466.213867188 509.567382812 c 4,16,17
 470.92578125 509.567382812 470.92578125 509.567382812 470.92578125 492.602539062 c 260,18,19
 470.92578125 475.637695312 470.92578125 475.637695312 428.513671875 416.259765625 c 4,20,21
 342.74609375 299.389648438 342.74609375 299.389648438 342.74609375 292.79296875 c 260,22,23
 342.74609375 286.1953125 342.74609375 286.1953125 386.100585938 223.990234375 c 4,24,25
 431.340820312 157.072265625 431.340820312 157.072265625 434.168945312 152.360351562 c 4,26,27
 440.765625 141.9921875 440.765625 141.9921875 441.708984375 141.9921875 c 4,28,29
 448.305664062 135.39453125 448.305664062 135.39453125 461.97265625 114.188476562 c 132,-1,30
 475.638671875 92.982421875 475.638671875 92.982421875 475.638671875 90.1552734375 c 4,31,32
 475.638671875 83.5576171875 475.638671875 83.5576171875 443.122070312 51.5126953125 c 132,-1,33
 410.606445312 19.4677734375 410.606445312 19.4677734375 401.180664062 15.697265625 c 4,34,35
 390.813476562 12.8701171875 390.813476562 12.8701171875 382.331054688 24.1796875 c 4,36,37
 372.90625 36.4326171875 372.90625 36.4326171875 372.90625 42.087890625 c 260,38,39
 372.90625 47.7421875 372.90625 47.7421875 364.423828125 54.33984375 c 4,40,41
 356.883789062 60.9375 356.883789062 60.9375 346.515625 76.017578125 c 4,42,43
 325.78125 106.177734375 325.78125 106.177734375 296.091796875 146.233398438 c 132,-1,44
 266.403320312 186.290039062 266.403320312 186.290039062 264.518554688 186.290039062 c 4,45,46
 261.69140625 186.290039062 261.69140625 186.290039062 240.013671875 158.014648438 c 4,47,48
 222.106445312 133.509765625 222.106445312 133.509765625 215.508789062 126.912109375 c 4,49,50
 210.795898438 124.084960938 210.795898438 124.084960938 198.543945312 102.407226562 c 4,51,52
 185.348632812 81.6728515625 185.348632812 81.6728515625 145.291992188 43.0302734375 c 132,-1,53
 105.236328125 4.3876953125 105.236328125 4.3876953125 96.75390625 4.3876953125 c 4,54,55
 89.2138671875 4.3876953125 89.2138671875 4.3876953125 88.271484375 13.8125 c 132,-1,56
 87.328125 23.2373046875 87.328125 23.2373046875 93.92578125 35.490234375 c 4,57,58
 100.5234375 46.7998046875 100.5234375 46.7998046875 140.108398438 99.580078125 c 4,59,60
 183.463867188 159.900390625 183.463867188 159.900390625 191.00390625 172.15234375 c 4,61,62
 201.37109375 190.059570312 201.37109375 190.059570312 205.140625 191.9453125 c 260,63,64
 208.911132812 193.830078125 208.911132812 193.830078125 222.106445312 212.208984375 c 132,-1,65
 235.30078125 230.587890625 235.30078125 230.587890625 235.30078125 234.357421875 c 4,66,67
 235.30078125 239.0703125 235.30078125 239.0703125 227.760742188 245.66796875 c 4,68,69
 214.56640625 256.03515625 214.56640625 256.03515625 188.17578125 298.447265625 c 4,70,71
 184.40625 305.044921875 184.40625 305.044921875 166.498046875 328.607421875 c 4,72,73
 150.475585938 348.400390625 150.475585938 348.400390625 141.993164062 365.365234375 c 4,74,75
 134.453125 380.4453125 134.453125 380.4453125 114.661132812 401.1796875 c 6,76,-1
 93.92578125 422.857421875 l 5,77,-1
 71.3056640625 404.950195312 l 6,78,79
 48.685546875 387.04296875 48.685546875 387.04296875 41.146484375 387.04296875 c 4,80,81
 32.6630859375 387.04296875 32.6630859375 387.04296875 31.25 395.525390625 c 132,-1,82
 29.8359375 404.0078125 29.8359375 404.0078125 36.43359375 414.375 c 4,83,84
 45.8583984375 429.455078125 45.8583984375 429.455078125 86.857421875 469.51171875 c 132,-1,85
 127.856445312 509.567382812 127.856445312 509.567382812 141.993164062 518.9921875 c 4,0,1
EndSplineSet
EndChar

StartChar: y
Encoding: 336 121 80
Width: 458
VWidth: 980
GlyphClass: 1
Flags: W
LayerCount: 2
Fore
SplineSet
78.0830078125 509.923828125 m 4,0,1
 93.4052734375 526.204101562 93.4052734375 526.204101562 106.333984375 527.162109375 c 132,-1,2
 119.263671875 528.120117188 119.263671875 528.120117188 125.966796875 514.712890625 c 4,3,4
 131.712890625 503.219726562 131.712890625 503.219726562 154.697265625 479.755859375 c 132,-1,5
 177.681640625 456.29296875 177.681640625 456.29296875 177.681640625 452.94140625 c 132,-1,6
 177.681640625 449.58984375 177.681640625 449.58984375 186.30078125 440.012695312 c 4,7,8
 199.708984375 425.647460938 199.708984375 425.647460938 215.032226562 406.493164062 c 4,9,10
 239.931640625 376.805664062 239.931640625 376.805664062 246.635742188 370.1015625 c 6,11,-1
 258.126953125 357.651367188 l 5,12,-1
 272.493164062 374.889648438 l 6,13,14
 283.02734375 388.296875 283.02734375 388.296875 302.181640625 409.366210938 c 4,15,16
 317.504882812 426.60546875 317.504882812 426.60546875 317.504882812 432.350585938 c 260,17,18
 317.504882812 438.096679688 317.504882812 438.096679688 321.334960938 440.012695312 c 260,19,20
 325.166015625 441.927734375 325.166015625 441.927734375 344.3203125 462.997070312 c 4,21,22
 364.430664062 486.939453125 364.430664062 486.939453125 390.2890625 508.0078125 c 4,23,24
 409.442382812 524.2890625 409.442382812 524.2890625 414.708984375 526.204101562 c 132,-1,25
 419.9765625 528.120117188 419.9765625 528.120117188 424.765625 522.374023438 c 4,26,27
 431.469726562 513.754882812 431.469726562 513.754882812 422.850585938 497.473632812 c 4,28,29
 413.2734375 481.193359375 413.2734375 481.193359375 412.315429688 479.27734375 c 4,30,31
 408.485351562 476.404296875 408.485351562 476.404296875 387.415039062 446.715820312 c 4,32,33
 364.430664062 416.0703125 364.430664062 416.0703125 362.515625 414.154296875 c 4,34,35
 357.727539062 410.32421875 357.727539062 410.32421875 344.3203125 392.127929688 c 4,36,37
 335.701171875 379.677734375 335.701171875 379.677734375 311.758789062 349.032226562 c 6,38,-1
 292.604492188 327.004882812 l 5,39,-1
 292.604492188 200.590820312 l 5,40,-1
 292.604492188 76.0908203125 l 5,41,-1
 261.000976562 43.5302734375 l 6,42,43
 222.693359375 4.263671875 222.693359375 4.263671875 213.116210938 7.1376953125 c 4,44,45
 200.666992188 10.96875 200.666992188 10.96875 199.708984375 86.6259765625 c 4,46,47
 198.750976562 100.033203125 198.750976562 100.033203125 198.750976562 123.018554688 c 4,48,49
 197.793945312 193.88671875 197.793945312 193.88671875 195.877929688 212.561523438 c 132,-1,50
 193.961914062 231.236328125 193.961914062 231.236328125 187.258789062 240.813476562 c 4,51,52
 177.681640625 254.220703125 177.681640625 254.220703125 177.681640625 257.094726562 c 260,53,54
 177.681640625 259.966796875 177.681640625 259.966796875 163.31640625 279.12109375 c 132,-1,55
 148.951171875 298.275390625 148.951171875 298.275390625 136.501953125 311.682617188 c 260,56,57
 124.051757812 325.08984375 124.051757812 325.08984375 109.686523438 345.201171875 c 4,58,59
 94.36328125 366.270507812 94.36328125 366.270507812 67.5478515625 395.001953125 c 4,60,61
 34.986328125 430.435546875 34.986328125 430.435546875 31.634765625 440.970703125 c 132,-1,62
 28.2822265625 451.50390625 28.2822265625 451.50390625 42.6474609375 470.658203125 c 4,63,64
 57.970703125 489.8125 57.970703125 489.8125 78.0830078125 509.923828125 c 4,0,1
EndSplineSet
EndChar

StartChar: z
Encoding: 337 122 81
Width: 545
VWidth: 980
GlyphClass: 1
Flags: W
LayerCount: 2
Fore
SplineSet
108.774414062 526.186523438 m 4,0,1
 122.165039062 535.45703125 122.165039062 535.45703125 133.494140625 531.336914062 c 4,2,3
 143.794921875 528.247070312 143.794921875 528.247070312 155.125 529.276367188 c 4,4,5
 176.754882812 530.306640625 176.754882812 530.306640625 317.349609375 530.306640625 c 132,-1,6
 457.944335938 530.306640625 457.944335938 530.306640625 461.034179688 529.276367188 c 4,7,8
 466.184570312 526.186523438 466.184570312 526.186523438 476.484375 530.306640625 c 4,9,10
 487.814453125 533.396484375 487.814453125 533.396484375 502.234375 526.186523438 c 4,11,12
 511.504882812 522.06640625 511.504882812 522.06640625 513.564453125 517.946289062 c 132,-1,13
 515.625 513.827148438 515.625 513.827148438 513.564453125 504.556640625 c 4,14,15
 507.384765625 479.836914062 507.384765625 479.836914062 402.32421875 366.537109375 c 4,16,17
 372.454101562 334.606445312 372.454101562 334.606445312 372.454101562 327.396484375 c 4,18,19
 372.454101562 321.216796875 372.454101562 321.216796875 386.875 320.186523438 c 4,20,21
 415.71484375 316.06640625 415.71484375 316.06640625 390.994140625 286.196289062 c 4,22,23
 382.754882812 275.896484375 382.754882812 275.896484375 367.3046875 261.4765625 c 4,24,25
 339.494140625 233.666992188 339.494140625 233.666992188 330.224609375 229.03125 c 132,-1,26
 320.954101562 224.396484375 320.954101562 224.396484375 300.354492188 224.396484375 c 6,27,-1
 271.514648438 224.396484375 l 5,28,-1
 222.07421875 173.926757812 l 6,29,30
 181.904296875 133.756835938 181.904296875 133.756835938 172.634765625 121.912109375 c 132,-1,31
 163.364257812 110.06640625 163.364257812 110.06640625 166.454101562 104.916992188 c 4,32,33
 169.544921875 100.796875 169.544921875 100.796875 332.284179688 100.796875 c 4,34,35
 453.82421875 100.796875 453.82421875 100.796875 474.424804688 99.251953125 c 132,-1,36
 495.024414062 97.70703125 495.024414062 97.70703125 495.024414062 89.466796875 c 4,37,38
 495.024414062 78.13671875 495.024414062 78.13671875 479.57421875 62.6865234375 c 260,39,40
 464.125 47.236328125 464.125 47.236328125 462.064453125 43.1171875 c 4,41,42
 461.034179688 40.0263671875 461.034179688 40.0263671875 438.375 22.5166015625 c 6,43,-1
 416.744140625 3.9765625 l 5,44,-1
 225.165039062 2.9462890625 l 6,45,46
 93.32421875 1.9169921875 93.32421875 1.9169921875 62.939453125 2.9462890625 c 132,-1,47
 32.5546875 3.9765625 32.5546875 3.9765625 30.494140625 11.1865234375 c 4,48,49
 24.314453125 30.7568359375 24.314453125 30.7568359375 95.384765625 105.946289062 c 4,50,51
 189.114257812 205.856445312 189.114257812 205.856445312 193.234375 216.15625 c 4,52,53
 196.32421875 223.3671875 196.32421875 223.3671875 187.0546875 224.396484375 c 4,54,55
 184.994140625 224.396484375 184.994140625 224.396484375 171.604492188 224.396484375 c 4,56,57
 146.884765625 224.396484375 146.884765625 224.396484375 143.794921875 229.546875 c 4,58,59
 139.674804688 236.756835938 139.674804688 236.756835938 168.514648438 270.747070312 c 132,-1,60
 197.354492188 304.736328125 197.354492188 304.736328125 207.654296875 304.736328125 c 4,61,62
 210.744140625 304.736328125 210.744140625 304.736328125 225.165039062 315.037109375 c 4,63,64
 238.5546875 326.3671875 238.5546875 326.3671875 263.274414062 322.247070312 c 4,65,66
 280.784179688 320.186523438 280.784179688 320.186523438 287.479492188 322.247070312 c 132,-1,67
 294.174804688 324.306640625 294.174804688 324.306640625 304.474609375 335.63671875 c 4,68,69
 332.284179688 362.416992188 332.284179688 362.416992188 357.51953125 390.2265625 c 132,-1,70
 382.754882812 418.037109375 382.754882812 418.037109375 382.754882812 422.15625 c 4,71,72
 382.754882812 428.336914062 382.754882812 428.336914062 208.684570312 428.336914062 c 4,73,74
 52.125 428.336914062 52.125 428.336914062 38.734375 433.486328125 c 4,75,76
 29.46484375 437.606445312 29.46484375 437.606445312 38.734375 455.1171875 c 4,77,78
 40.794921875 458.20703125 40.794921875 458.20703125 41.82421875 459.236328125 c 4,79,80
 48.0048828125 470.56640625 48.0048828125 470.56640625 70.1494140625 493.2265625 c 132,-1,81
 92.294921875 515.88671875 92.294921875 515.88671875 108.774414062 526.186523438 c 4,0,1
EndSplineSet
EndChar

StartChar: teTok
Encoding: 343 12300 87
Width: 789
GlyphClass: 1
Flags: W
LayerCount: 2
Fore
SplineSet
719.04296875 754 m 128,-1,1
 724.04296875 758 724.04296875 758 737.04296875 751 c 0,2,3
 765.723632812 735.17578125 765.723632812 735.17578125 713.04296875 684 c 2,4,-1
 678.04296875 650 l 1,5,-1
 469.04296875 650 l 1,6,-1
 260.04296875 650 l 1,7,-1
 258.04296875 618 l 1,8,-1
 256.04296875 585 l 1,9,-1
 297.04296875 584 l 2,10,11
 300.04296875 584 300.04296875 584 375.54296875 584 c 0,12,13
 442.29296875 584 442.29296875 584 509.04296875 584 c 2,14,-1
 679.04296875 584 l 1,15,-1
 679.04296875 572 l 2,16,17
 679.04296875 559 679.04296875 559 663.04296875 545 c 0,18,19
 646.04296875 530 646.04296875 530 642.04296875 519 c 128,-1,20
 638.04296875 508 638.04296875 508 618.04296875 495 c 2,21,-1
 598.04296875 482 l 1,22,-1
 434.04296875 482 l 2,23,24
 263.04296875 482 263.04296875 482 263.04296875 479 c 0,25,26
 257.04296875 391 257.04296875 391 257.04296875 355 c 2,27,-1
 257.04296875 -60 l 1,28,-1
 221.04296875 -95 l 2,29,30
 220.04296875 -96 220.04296875 -96 205.04296875 -112 c 0,31,32
 184.04296875 -134 184.04296875 -134 177.04296875 -129 c 0,33,34
 164.04296875 -121 164.04296875 -121 163.04296875 53 c 0,35,36
 162.04296875 231 162.04296875 231 163.04296875 254 c 0,37,38
 163.04296875 396 163.04296875 396 163.04296875 406 c 2,39,-1
 163.04296875 647 l 1,40,-1
 144.04296875 648 l 2,41,42
 125.04296875 649 125.04296875 649 103.04296875 648 c 0,43,44
 86.04296875 647 86.04296875 647 64.54296875 654 c 0,45,46
 42.04296875 662 42.04296875 662 43.04296875 667 c 128,-1,47
 44.04296875 672 44.04296875 672 76.54296875 706 c 0,48,49
 110.04296875 740 110.04296875 740 119.04296875 745 c 0,50,51
 130.04296875 750 130.04296875 750 423.04296875 750 c 0,52,0
 714.04296875 750 714.04296875 750 719.04296875 754 c 128,-1,1
EndSplineSet
Validated: 33
LCarets2: 1 0
MultipleSubs2: "Multiple Substitution lookup 2 subtable" teTok cartoucheMiddleTok
Ligature2: "'liga' Standard Ligatures in Latin lookup 0 subtable" t e
EndChar

StartChar: toTok
Encoding: 344 12301 88
Width: 751
GlyphClass: 1
Flags: W
LayerCount: 2
Fore
SplineSet
653.041992188 695 m 2,0,1
 709.041992188 749 709.041992188 749 709.041992188 726 c 0,2,3
 709.041992188 213 709.041992188 213 709.041992188 161 c 0,4,5
 709.041992188 -72.5 709.041992188 -72.5 709.041992188 -72.5 c 0,6,7
 709.041992188 -78 709.041992188 -78 672.041992188 -115 c 128,-1,8
 635.041992188 -152 635.041992188 -152 628.541992188 -151.5 c 0,9,10
 622.041992188 -152 622.041992188 -152 615.041992188 -143.5 c 0,11,12
 611.041992188 -138 611.041992188 -138 560.541992188 -137 c 0,13,14
 354.959960938 -134.602539062 354.959960938 -134.602539062 326.041992188 -134.5 c 2,15,-1
 44.0419921875 -133.5 l 1,16,-1
 43.0419921875 -118.5 l 2,17,18
 42.0419921875 -102 42.0419921875 -102 65.0419921875 -78.5 c 0,19,20
 79.0419921875 -64 79.0419921875 -64 86.5419921875 -58.5 c 0,21,22
 94.0419921875 -52 94.0419921875 -52 103.541992188 -47 c 0,23,24
 115.041992188 -41 115.041992188 -41 133.541992188 -40 c 0,25,26
 154.041992188 -39 154.041992188 -39 175.041992188 -38 c 0,27,28
 217.041992188 -36 217.041992188 -36 245.041992188 -36.5 c 0,29,30
 367.041992188 -39 367.041992188 -39 380.041992188 -36.5 c 0,31,32
 383.041992188 -36 383.041992188 -36 398.041992188 -37 c 128,-1,33
 413.041992188 -38 413.041992188 -38 422.041992188 -37.5 c 0,34,35
 469.041992188 -38 469.041992188 -38 492.041992188 -37.5 c 0,36,37
 597.041992188 -38 597.041992188 -38 607.041992188 -34.5 c 0,38,39
 614.041992188 -32 614.041992188 -32 615.041992188 -6.5 c 0,40,41
 616.041992188 20 616.041992188 20 609.041992188 23.5 c 0,42,43
 604.041992188 26 604.041992188 26 517.041992188 25.5 c 0,44,45
 432.041992188 25 432.041992188 25 424.041992188 25.5 c 0,46,47
 407.041992188 26 407.041992188 26 390.041992188 25.5 c 2,48,-1
 277.041992188 25.5 l 2,49,50
 174.041992188 26 174.041992188 26 156.041992188 22.5 c 0,51,52
 141.041992188 20 141.041992188 20 130.541992188 27 c 128,-1,53
 120.041992188 34 120.041992188 34 120.041992188 45.5 c 0,54,55
 120.041992188 52 120.041992188 52 139.541992188 74.5 c 0,56,57
 157.102539062 95.0712890625 157.102539062 95.0712890625 178.041992188 110.5 c 2,58,-1
 197.041992188 124.5 l 1,59,-1
 404.041992188 125.5 l 1,60,-1
 612.041992188 127.5 l 1,61,-1
 615.041992188 228 l 1,62,-1
 617.041992188 659 l 1,63,-1
 653.041992188 695 l 2,0,1
EndSplineSet
Validated: 33
LCarets2: 1 0
MultipleSubs2: "Multiple Substitution lookup 2 subtable" toTok cartoucheMiddleTok
Ligature2: "'liga' Standard Ligatures in Latin lookup 0 subtable" t o
EndChar

